<svg width="178" height="30" viewBox="0 0 178 30" fill="none" xmlns="http://www.w3.org/2000/svg">
<g filter="url(#filter0_b_20_106)">
<rect width="178" height="30" rx="15" fill="#E4FFD3"/>
<rect x="0.5" y="0.5" width="177" height="29" rx="14.5" stroke="#439B0E"/>
</g>
<circle cx="16.5" cy="15" r="3.5" fill="#439B0E"/>
<path d="M33.073 20V11.06H36.841C37.433 11.06 37.937 11.164 38.353 11.372C38.777 11.572 39.101 11.86 39.325 12.236C39.557 12.604 39.673 13.052 39.673 13.58C39.673 13.988 39.561 14.372 39.337 14.732C39.121 15.084 38.773 15.376 38.293 15.608V14.852C38.733 15.02 39.081 15.228 39.337 15.476C39.593 15.724 39.773 16 39.877 16.304C39.981 16.608 40.033 16.928 40.033 17.264C40.033 18.12 39.749 18.792 39.181 19.28C38.621 19.76 37.841 20 36.841 20H33.073ZM34.705 18.56H37.009C37.433 18.56 37.769 18.444 38.017 18.212C38.273 17.972 38.401 17.656 38.401 17.264C38.401 16.872 38.273 16.556 38.017 16.316C37.769 16.076 37.433 15.956 37.009 15.956H34.705V18.56ZM34.705 14.528H36.925C37.261 14.528 37.529 14.432 37.729 14.24C37.929 14.04 38.029 13.784 38.029 13.472C38.029 13.16 37.929 12.912 37.729 12.728C37.529 12.544 37.261 12.452 36.925 12.452H34.705V14.528ZM43.2179 20.144C42.7619 20.144 42.3659 20.068 42.0299 19.916C41.6939 19.764 41.4339 19.548 41.2499 19.268C41.0659 18.98 40.9739 18.648 40.9739 18.272C40.9739 17.912 41.0539 17.592 41.2139 17.312C41.3739 17.024 41.6219 16.784 41.9579 16.592C42.2939 16.4 42.7179 16.264 43.2299 16.184L45.3659 15.836V17.036L43.5299 17.348C43.2179 17.404 42.9859 17.504 42.8339 17.648C42.6819 17.792 42.6059 17.98 42.6059 18.212C42.6059 18.436 42.6899 18.616 42.8579 18.752C43.0339 18.88 43.2499 18.944 43.5059 18.944C43.8339 18.944 44.1219 18.876 44.3699 18.74C44.6259 18.596 44.8219 18.4 44.9579 18.152C45.1019 17.904 45.1739 17.632 45.1739 17.336V15.656C45.1739 15.376 45.0619 15.144 44.8379 14.96C44.6219 14.768 44.3339 14.672 43.9739 14.672C43.6379 14.672 43.3379 14.764 43.0739 14.948C42.8179 15.124 42.6299 15.36 42.5099 15.656L41.2259 15.032C41.3539 14.688 41.5539 14.392 41.8259 14.144C42.1059 13.888 42.4339 13.688 42.8099 13.544C43.1859 13.4 43.5939 13.328 44.0339 13.328C44.5699 13.328 45.0419 13.428 45.4499 13.628C45.8579 13.82 46.1739 14.092 46.3979 14.444C46.6299 14.788 46.7459 15.192 46.7459 15.656V20H45.2579V18.884L45.5939 18.86C45.4259 19.14 45.2259 19.376 44.9939 19.568C44.7619 19.752 44.4979 19.896 44.2019 20C43.9059 20.096 43.5779 20.144 43.2179 20.144ZM51.3428 20.144C50.6948 20.144 50.1108 19.996 49.5908 19.7C49.0788 19.396 48.6748 18.988 48.3788 18.476C48.0828 17.956 47.9348 17.372 47.9348 16.724C47.9348 16.076 48.0828 15.496 48.3788 14.984C48.6748 14.472 49.0788 14.068 49.5908 13.772C50.1108 13.476 50.6948 13.328 51.3428 13.328C51.8068 13.328 52.2388 13.412 52.6388 13.58C53.0388 13.74 53.3828 13.964 53.6708 14.252C53.9668 14.532 54.1788 14.868 54.3068 15.26L52.9268 15.86C52.8068 15.532 52.6028 15.268 52.3148 15.068C52.0348 14.868 51.7108 14.768 51.3428 14.768C50.9988 14.768 50.6908 14.852 50.4188 15.02C50.1548 15.188 49.9468 15.42 49.7948 15.716C49.6428 16.012 49.5668 16.352 49.5668 16.736C49.5668 17.12 49.6428 17.46 49.7948 17.756C49.9468 18.052 50.1548 18.284 50.4188 18.452C50.6908 18.62 50.9988 18.704 51.3428 18.704C51.7188 18.704 52.0468 18.604 52.3268 18.404C52.6068 18.204 52.8068 17.936 52.9268 17.6L54.3068 18.224C54.1788 18.592 53.9708 18.924 53.6828 19.22C53.3948 19.508 53.0508 19.736 52.6508 19.904C52.2508 20.064 51.8148 20.144 51.3428 20.144ZM55.4996 20V10.916H57.0716V16.868L56.4716 16.688L59.5436 13.472H61.4996L59.0876 16.1L61.5476 20H59.7476L57.6116 16.616L58.5476 16.424L56.5796 18.536L57.0716 17.576V20H55.4996ZM65.4042 20.144C64.7322 20.144 64.1442 19.992 63.6402 19.688C63.1362 19.384 62.7442 18.972 62.4642 18.452C62.1842 17.932 62.0442 17.356 62.0442 16.724C62.0442 16.068 62.1842 15.488 62.4642 14.984C62.7522 14.472 63.1402 14.068 63.6282 13.772C64.1242 13.476 64.6762 13.328 65.2842 13.328C65.7962 13.328 66.2442 13.412 66.6282 13.58C67.0202 13.748 67.3522 13.98 67.6242 14.276C67.8962 14.572 68.1042 14.912 68.2482 15.296C68.3922 15.672 68.4642 16.08 68.4642 16.52C68.4642 16.632 68.4562 16.748 68.4402 16.868C68.4322 16.988 68.4122 17.092 68.3802 17.18H63.3402V15.98H67.4922L66.7482 16.544C66.8202 16.176 66.8002 15.848 66.6882 15.56C66.5842 15.272 66.4082 15.044 66.1602 14.876C65.9202 14.708 65.6282 14.624 65.2842 14.624C64.9562 14.624 64.6642 14.708 64.4082 14.876C64.1522 15.036 63.9562 15.276 63.8202 15.596C63.6922 15.908 63.6442 16.288 63.6762 16.736C63.6442 17.136 63.6962 17.492 63.8322 17.804C63.9762 18.108 64.1842 18.344 64.4562 18.512C64.7362 18.68 65.0562 18.764 65.4162 18.764C65.7762 18.764 66.0802 18.688 66.3282 18.536C66.5842 18.384 66.7842 18.18 66.9282 17.924L68.2002 18.548C68.0722 18.86 67.8722 19.136 67.6002 19.376C67.3282 19.616 67.0042 19.804 66.6282 19.94C66.2602 20.076 65.8522 20.144 65.4042 20.144ZM69.6558 20V13.472H71.1318V14.756L71.0118 14.528C71.1638 14.136 71.4118 13.84 71.7558 13.64C72.1078 13.432 72.5158 13.328 72.9798 13.328C73.4598 13.328 73.8838 13.432 74.2518 13.64C74.6278 13.848 74.9198 14.14 75.1278 14.516C75.3358 14.884 75.4398 15.312 75.4398 15.8V20H73.8678V16.172C73.8678 15.884 73.8118 15.636 73.6998 15.428C73.5878 15.22 73.4318 15.06 73.2318 14.948C73.0398 14.828 72.8118 14.768 72.5478 14.768C72.2918 14.768 72.0638 14.828 71.8638 14.948C71.6638 15.06 71.5078 15.22 71.3958 15.428C71.2838 15.636 71.2278 15.884 71.2278 16.172V20H69.6558ZM79.8051 20.144C79.1731 20.144 78.6091 19.996 78.1131 19.7C77.6171 19.396 77.2251 18.984 76.9371 18.464C76.6491 17.944 76.5051 17.368 76.5051 16.736C76.5051 16.096 76.6491 15.52 76.9371 15.008C77.2251 14.496 77.6171 14.088 78.1131 13.784C78.6171 13.48 79.1771 13.328 79.7931 13.328C80.2891 13.328 80.7291 13.428 81.1131 13.628C81.5051 13.82 81.8131 14.092 82.0371 14.444L81.7971 14.768V10.916H83.3691V20H81.8811V18.74L82.0491 19.052C81.8251 19.404 81.5131 19.676 81.1131 19.868C80.7131 20.052 80.2771 20.144 79.8051 20.144ZM79.9731 18.704C80.3331 18.704 80.6491 18.62 80.9211 18.452C81.1931 18.284 81.4051 18.052 81.5571 17.756C81.7171 17.46 81.7971 17.12 81.7971 16.736C81.7971 16.36 81.7171 16.024 81.5571 15.728C81.4051 15.424 81.1931 15.188 80.9211 15.02C80.6491 14.852 80.3331 14.768 79.9731 14.768C79.6211 14.768 79.3051 14.856 79.0251 15.032C78.7451 15.2 78.5251 15.432 78.3651 15.728C78.2131 16.016 78.1371 16.352 78.1371 16.736C78.1371 17.12 78.2131 17.46 78.3651 17.756C78.5251 18.052 78.7451 18.284 79.0251 18.452C79.3051 18.62 79.6211 18.704 79.9731 18.704ZM87.0964 20V11.06H90.0124C90.9564 11.06 91.7764 11.252 92.4724 11.636C93.1764 12.012 93.7204 12.536 94.1044 13.208C94.4884 13.872 94.6804 14.644 94.6804 15.524C94.6804 16.396 94.4884 17.172 94.1044 17.852C93.7204 18.524 93.1764 19.052 92.4724 19.436C91.7764 19.812 90.9564 20 90.0124 20H87.0964ZM88.7284 18.56H90.0484C90.6564 18.56 91.1804 18.436 91.6204 18.188C92.0684 17.932 92.4164 17.58 92.6644 17.132C92.9124 16.676 93.0364 16.14 93.0364 15.524C93.0364 14.9 92.9124 14.364 92.6644 13.916C92.4164 13.468 92.0684 13.12 91.6204 12.872C91.1804 12.624 90.6564 12.5 90.0484 12.5H88.7284V18.56ZM98.9432 20.144C98.2712 20.144 97.6832 19.992 97.1792 19.688C96.6752 19.384 96.2832 18.972 96.0032 18.452C95.7232 17.932 95.5832 17.356 95.5832 16.724C95.5832 16.068 95.7232 15.488 96.0032 14.984C96.2912 14.472 96.6792 14.068 97.1672 13.772C97.6632 13.476 98.2152 13.328 98.8232 13.328C99.3352 13.328 99.7832 13.412 100.167 13.58C100.559 13.748 100.891 13.98 101.163 14.276C101.435 14.572 101.643 14.912 101.787 15.296C101.931 15.672 102.003 16.08 102.003 16.52C102.003 16.632 101.995 16.748 101.979 16.868C101.971 16.988 101.951 17.092 101.919 17.18H96.8792V15.98H101.031L100.287 16.544C100.359 16.176 100.339 15.848 100.227 15.56C100.123 15.272 99.9472 15.044 99.6992 14.876C99.4592 14.708 99.1672 14.624 98.8232 14.624C98.4952 14.624 98.2032 14.708 97.9472 14.876C97.6912 15.036 97.4952 15.276 97.3592 15.596C97.2312 15.908 97.1832 16.288 97.2152 16.736C97.1832 17.136 97.2352 17.492 97.3712 17.804C97.5152 18.108 97.7232 18.344 97.9952 18.512C98.2752 18.68 98.5952 18.764 98.9552 18.764C99.3152 18.764 99.6192 18.688 99.8672 18.536C100.123 18.384 100.323 18.18 100.467 17.924L101.739 18.548C101.611 18.86 101.411 19.136 101.139 19.376C100.867 19.616 100.543 19.804 100.167 19.94C99.7992 20.076 99.3912 20.144 98.9432 20.144ZM105.046 20L102.478 13.472H104.194L106.054 18.608H105.418L107.29 13.472H109.006L106.438 20H105.046ZM112.853 20.144C112.181 20.144 111.593 19.992 111.089 19.688C110.585 19.384 110.193 18.972 109.913 18.452C109.633 17.932 109.493 17.356 109.493 16.724C109.493 16.068 109.633 15.488 109.913 14.984C110.201 14.472 110.589 14.068 111.077 13.772C111.573 13.476 112.125 13.328 112.733 13.328C113.245 13.328 113.693 13.412 114.077 13.58C114.469 13.748 114.801 13.98 115.073 14.276C115.345 14.572 115.553 14.912 115.697 15.296C115.841 15.672 115.913 16.08 115.913 16.52C115.913 16.632 115.905 16.748 115.889 16.868C115.881 16.988 115.861 17.092 115.829 17.18H110.789V15.98H114.941L114.197 16.544C114.269 16.176 114.249 15.848 114.137 15.56C114.033 15.272 113.857 15.044 113.609 14.876C113.369 14.708 113.077 14.624 112.733 14.624C112.405 14.624 112.113 14.708 111.857 14.876C111.601 15.036 111.405 15.276 111.269 15.596C111.141 15.908 111.093 16.288 111.125 16.736C111.093 17.136 111.145 17.492 111.281 17.804C111.425 18.108 111.633 18.344 111.905 18.512C112.185 18.68 112.505 18.764 112.865 18.764C113.225 18.764 113.529 18.688 113.777 18.536C114.033 18.384 114.233 18.18 114.377 17.924L115.649 18.548C115.521 18.86 115.321 19.136 115.049 19.376C114.777 19.616 114.453 19.804 114.077 19.94C113.709 20.076 113.301 20.144 112.853 20.144ZM117.105 20V10.916H118.677V20H117.105ZM123.32 20.144C122.68 20.144 122.096 19.996 121.568 19.7C121.048 19.404 120.632 19 120.32 18.488C120.016 17.976 119.864 17.392 119.864 16.736C119.864 16.08 120.016 15.496 120.32 14.984C120.632 14.472 121.048 14.068 121.568 13.772C122.088 13.476 122.672 13.328 123.32 13.328C123.96 13.328 124.54 13.476 125.06 13.772C125.58 14.068 125.992 14.472 126.296 14.984C126.608 15.488 126.764 16.072 126.764 16.736C126.764 17.392 126.608 17.976 126.296 18.488C125.984 19 125.568 19.404 125.048 19.7C124.528 19.996 123.952 20.144 123.32 20.144ZM123.32 18.704C123.672 18.704 123.98 18.62 124.244 18.452C124.516 18.284 124.728 18.052 124.88 17.756C125.04 17.452 125.12 17.112 125.12 16.736C125.12 16.352 125.04 16.016 124.88 15.728C124.728 15.432 124.516 15.2 124.244 15.032C123.98 14.856 123.672 14.768 123.32 14.768C122.96 14.768 122.644 14.856 122.372 15.032C122.1 15.2 121.884 15.432 121.724 15.728C121.572 16.016 121.496 16.352 121.496 16.736C121.496 17.112 121.572 17.452 121.724 17.756C121.884 18.052 122.1 18.284 122.372 18.452C122.644 18.62 122.96 18.704 123.32 18.704ZM127.957 22.4V13.472H129.433V14.768L129.289 14.444C129.513 14.092 129.817 13.82 130.201 13.628C130.585 13.428 131.029 13.328 131.533 13.328C132.149 13.328 132.705 13.48 133.201 13.784C133.697 14.088 134.089 14.496 134.377 15.008C134.673 15.52 134.821 16.096 134.821 16.736C134.821 17.368 134.677 17.944 134.389 18.464C134.101 18.984 133.709 19.396 133.213 19.7C132.717 19.996 132.153 20.144 131.521 20.144C131.049 20.144 130.613 20.052 130.213 19.868C129.821 19.676 129.509 19.404 129.277 19.052L129.529 18.74V22.4H127.957ZM131.341 18.704C131.701 18.704 132.021 18.62 132.301 18.452C132.581 18.284 132.797 18.052 132.949 17.756C133.109 17.46 133.189 17.12 133.189 16.736C133.189 16.352 133.109 16.016 132.949 15.728C132.797 15.432 132.581 15.2 132.301 15.032C132.021 14.856 131.701 14.768 131.341 14.768C130.997 14.768 130.685 14.852 130.405 15.02C130.133 15.188 129.917 15.424 129.757 15.728C129.605 16.024 129.529 16.36 129.529 16.736C129.529 17.12 129.605 17.46 129.757 17.756C129.917 18.052 130.133 18.284 130.405 18.452C130.685 18.62 130.997 18.704 131.341 18.704ZM136.019 20V13.472H137.495V14.984L137.327 14.732C137.447 14.26 137.687 13.908 138.047 13.676C138.407 13.444 138.831 13.328 139.319 13.328C139.855 13.328 140.327 13.468 140.735 13.748C141.143 14.028 141.407 14.396 141.527 14.852L141.083 14.888C141.283 14.368 141.583 13.98 141.983 13.724C142.383 13.46 142.843 13.328 143.363 13.328C143.827 13.328 144.239 13.432 144.599 13.64C144.967 13.848 145.255 14.14 145.463 14.516C145.671 14.884 145.775 15.312 145.775 15.8V20H144.203V16.172C144.203 15.884 144.151 15.636 144.047 15.428C143.943 15.22 143.799 15.06 143.615 14.948C143.431 14.828 143.207 14.768 142.943 14.768C142.695 14.768 142.475 14.828 142.283 14.948C142.091 15.06 141.943 15.22 141.839 15.428C141.735 15.636 141.683 15.884 141.683 16.172V20H140.111V16.172C140.111 15.884 140.059 15.636 139.955 15.428C139.851 15.22 139.703 15.06 139.511 14.948C139.327 14.828 139.107 14.768 138.851 14.768C138.603 14.768 138.383 14.828 138.191 14.948C137.999 15.06 137.851 15.22 137.747 15.428C137.643 15.636 137.591 15.884 137.591 16.172V20H136.019ZM150.201 20.144C149.529 20.144 148.941 19.992 148.437 19.688C147.933 19.384 147.541 18.972 147.261 18.452C146.981 17.932 146.841 17.356 146.841 16.724C146.841 16.068 146.981 15.488 147.261 14.984C147.549 14.472 147.937 14.068 148.425 13.772C148.921 13.476 149.473 13.328 150.081 13.328C150.593 13.328 151.041 13.412 151.425 13.58C151.817 13.748 152.149 13.98 152.421 14.276C152.693 14.572 152.901 14.912 153.045 15.296C153.189 15.672 153.261 16.08 153.261 16.52C153.261 16.632 153.253 16.748 153.237 16.868C153.229 16.988 153.209 17.092 153.177 17.18H148.137V15.98H152.289L151.545 16.544C151.617 16.176 151.597 15.848 151.485 15.56C151.381 15.272 151.205 15.044 150.957 14.876C150.717 14.708 150.425 14.624 150.081 14.624C149.753 14.624 149.461 14.708 149.205 14.876C148.949 15.036 148.753 15.276 148.617 15.596C148.489 15.908 148.441 16.288 148.473 16.736C148.441 17.136 148.493 17.492 148.629 17.804C148.773 18.108 148.981 18.344 149.253 18.512C149.533 18.68 149.853 18.764 150.213 18.764C150.573 18.764 150.877 18.688 151.125 18.536C151.381 18.384 151.581 18.18 151.725 17.924L152.997 18.548C152.869 18.86 152.669 19.136 152.397 19.376C152.125 19.616 151.801 19.804 151.425 19.94C151.057 20.076 150.649 20.144 150.201 20.144ZM154.453 20V13.472H155.929V14.756L155.809 14.528C155.961 14.136 156.209 13.84 156.553 13.64C156.905 13.432 157.313 13.328 157.777 13.328C158.257 13.328 158.681 13.432 159.049 13.64C159.425 13.848 159.717 14.14 159.925 14.516C160.133 14.884 160.237 15.312 160.237 15.8V20H158.665V16.172C158.665 15.884 158.609 15.636 158.497 15.428C158.385 15.22 158.229 15.06 158.029 14.948C157.837 14.828 157.609 14.768 157.345 14.768C157.089 14.768 156.861 14.828 156.661 14.948C156.461 15.06 156.305 15.22 156.193 15.428C156.081 15.636 156.025 15.884 156.025 16.172V20H154.453ZM164.542 20.072C163.806 20.072 163.234 19.872 162.826 19.472C162.426 19.064 162.226 18.492 162.226 17.756V14.876H161.098V13.472H161.218C161.538 13.472 161.786 13.388 161.962 13.22C162.138 13.052 162.226 12.808 162.226 12.488V11.984H163.798V13.472H165.298V14.876H163.798V17.672C163.798 17.888 163.834 18.072 163.906 18.224C163.986 18.376 164.106 18.492 164.266 18.572C164.434 18.652 164.646 18.692 164.902 18.692C164.958 18.692 165.022 18.688 165.094 18.68C165.174 18.672 165.25 18.664 165.322 18.656V20C165.21 20.016 165.082 20.032 164.938 20.048C164.794 20.064 164.662 20.072 164.542 20.072Z" fill="#18181B"/>
<defs>
<filter id="filter0_b_20_106" x="-14" y="-14" width="206" height="58" filterUnits="userSpaceOnUse" color-interpolation-filters="sRGB">
<feFlood flood-opacity="0" result="BackgroundImageFix"/>
<feGaussianBlur in="BackgroundImageFix" stdDeviation="7"/>
<feComposite in2="SourceAlpha" operator="in" result="effect1_backgroundBlur_20_106"/>
<feBlend mode="normal" in="SourceGraphic" in2="effect1_backgroundBlur_20_106" result="shape"/>
</filter>
</defs>
</svg>
