<svg width="84" height="84" viewBox="0 0 84 84" fill="none" xmlns="http://www.w3.org/2000/svg">
<circle cx="42" cy="42" r="42" fill="white"/>
<circle cx="42" cy="42" r="40" fill="#FF44B4"/>
<path d="M35.909 31.3818H39.1238C39.2607 31.3843 39.3959 31.3517 39.5167 31.2871C39.6374 31.2225 39.7396 31.1281 39.8136 31.0128L42.0273 27.3681C42.3289 26.8741 43.1117 26.8869 43.4005 27.381L45.534 30.9968C45.6688 31.231 45.9447 31.3818 46.2206 31.3818H49.4642C50.0546 31.3818 50.4428 30.7914 50.1508 30.2973L43.5513 19.4436C43.4612 19.3072 43.3388 19.1953 43.1949 19.1179C43.051 19.0405 42.8901 19 42.7267 19C42.5633 19 42.4025 19.0405 42.2586 19.1179C42.1147 19.1953 41.9922 19.3072 41.9022 19.4436L35.2321 30.3102C34.9305 30.7786 35.3026 31.3818 35.9218 31.3818H35.909ZM20.7561 57.5072H35.4406C36.1144 57.5072 36.4448 56.6955 35.9892 56.2143L33.1851 53.3813H28.3438C27.6155 53.3813 27.1759 52.406 27.6026 51.7868L28.7994 50.0286C28.939 49.8186 29.0016 49.5667 28.9764 49.3157C28.9513 49.0648 28.84 48.8303 28.6614 48.6522L26.7364 46.7689C26.6539 46.6915 26.5551 46.6336 26.4473 46.5994C26.3395 46.5652 26.2253 46.5556 26.1133 46.5713C26.0013 46.587 25.8942 46.6276 25.8 46.6901C25.7057 46.7526 25.6266 46.8355 25.5686 46.9326L20.108 56.3522C20.0391 56.4676 20.0019 56.599 20.0001 56.7334C19.9983 56.8677 20.0319 57.0002 20.0977 57.1173C20.1634 57.2345 20.2589 57.3322 20.3745 57.4007C20.4901 57.4692 20.6217 57.5059 20.7561 57.5072ZM63.244 57.5072H48.5563C47.8825 57.5072 47.5553 56.6955 48.0076 56.2143L50.8117 53.3813H55.6531C56.3814 53.3813 56.8209 52.406 56.3942 51.7868L55.1975 50.0286C55.0579 49.8186 54.9953 49.5667 55.0204 49.3157C55.0456 49.0648 55.1569 48.8303 55.3355 48.6522L57.2605 46.7689C57.3413 46.688 57.4397 46.6269 57.5482 46.5905C57.6566 46.5542 57.772 46.5435 57.8852 46.5594C57.9985 46.5752 58.1065 46.6172 58.2007 46.682C58.295 46.7467 58.3729 46.8325 58.4283 46.9326L63.8889 56.3522C63.9556 56.4677 63.9912 56.5985 63.9922 56.7318C63.9932 56.8652 63.9595 56.9965 63.8945 57.1129C63.8295 57.2293 63.7354 57.3269 63.6214 57.396C63.5073 57.4651 63.3773 57.5034 63.244 57.5072ZM40.6253 33.557V39.8806C40.6322 40.1698 40.525 40.4501 40.3269 40.6609C40.1287 40.8716 39.8556 40.9959 39.5665 41.0068H37.449C36.8555 41.0068 36.4993 40.5127 36.4993 39.8935V38.0391C36.4993 37.5963 36.0438 36.8841 35.6331 36.8841H28.0711C27.3973 36.8841 27.0668 38.1193 27.5481 38.6166L35.1358 46.4513C35.6042 46.9326 36.4993 46.9069 36.4993 46.2203C36.4993 45.6139 36.8426 45.1198 37.4201 45.1198H39.5633C39.8524 45.1307 40.1255 45.255 40.3237 45.4657C40.5218 45.6765 40.629 45.9568 40.6221 46.246V56.5447C40.6221 57.3981 39.6596 57.8248 39.0692 57.2313L21.648 38.9181C21.4727 38.7319 21.3751 38.4857 21.3751 38.2299C21.3751 37.9742 21.4727 37.728 21.648 37.5418L26.2134 32.7581H39.8681C40.2788 32.7581 40.6253 33.1143 40.6253 33.557ZM43.3748 56.5447V34.0415C43.3748 33.3388 43.9234 32.7613 44.5972 32.7613H57.2894C57.4528 32.7606 57.6145 32.7945 57.7638 32.8609C57.9131 32.9272 58.0467 33.0245 58.1556 33.1463L62.3617 37.6829C62.4558 37.7891 62.5275 37.9132 62.5727 38.0476C62.6179 38.1821 62.6356 38.3243 62.6248 38.4658C62.5831 38.7962 62.3617 39.0753 62.1564 39.332L61.9639 39.5823L61.319 40.4902L61.2869 40.5159C61.1265 40.7373 60.9468 40.9971 60.6581 41.01H56.4039C56.1023 41.01 55.7461 40.7629 55.7461 40.4325V40.2143C55.7461 39.8004 56.0189 39.4154 56.3236 39.1556L56.3654 39.1138C56.529 38.9759 56.7343 38.177 56.7343 37.946C56.7343 37.5193 56.2819 36.8873 55.8681 36.8873H48.3894C47.9756 36.8873 47.4943 37.6027 47.4943 38.0423V45.7679C47.4943 46.6342 48.6236 47.0609 49.2011 46.4417L50.616 45.2065C50.6706 45.1487 50.754 45.1359 50.8374 45.1359H54.3986C55.2104 45.1359 55.6082 46.1401 55.0435 46.7593L44.9373 57.2217C44.3598 57.8409 43.3716 57.4013 43.3716 56.5479" fill="white"/>
</svg>
