<svg width="137" height="30" viewBox="0 0 137 30" fill="none" xmlns="http://www.w3.org/2000/svg">
<g filter="url(#filter0_b_20_91)">
<rect width="137" height="30" rx="15" fill="#FFEBFD"/>
<rect x="0.5" y="0.5" width="136" height="29" rx="14.5" stroke="#FF44EC"/>
</g>
<circle cx="16.5" cy="15" r="3.5" fill="#FF44EC"/>
<path d="M37.3706 20.144C36.7306 20.144 36.1386 20.028 35.5946 19.796C35.0586 19.564 34.5866 19.24 34.1786 18.824C33.7786 18.408 33.4666 17.92 33.2426 17.36C33.0186 16.8 32.9066 16.188 32.9066 15.524C32.9066 14.86 33.0146 14.248 33.2306 13.688C33.4546 13.12 33.7666 12.632 34.1666 12.224C34.5746 11.808 35.0506 11.488 35.5946 11.264C36.1386 11.032 36.7306 10.916 37.3706 10.916C38.0106 10.916 38.5826 11.024 39.0866 11.24C39.5986 11.456 40.0306 11.744 40.3826 12.104C40.7346 12.456 40.9866 12.844 41.1386 13.268L39.6746 13.952C39.5066 13.504 39.2226 13.136 38.8226 12.848C38.4226 12.552 37.9386 12.404 37.3706 12.404C36.8106 12.404 36.3146 12.536 35.8826 12.8C35.4586 13.064 35.1266 13.428 34.8866 13.892C34.6546 14.356 34.5386 14.9 34.5386 15.524C34.5386 16.148 34.6546 16.696 34.8866 17.168C35.1266 17.632 35.4586 17.996 35.8826 18.26C36.3146 18.524 36.8106 18.656 37.3706 18.656C37.9386 18.656 38.4226 18.512 38.8226 18.224C39.2226 17.928 39.5066 17.556 39.6746 17.108L41.1386 17.792C40.9866 18.216 40.7346 18.608 40.3826 18.968C40.0306 19.32 39.5986 19.604 39.0866 19.82C38.5826 20.036 38.0106 20.144 37.3706 20.144ZM43.1236 22.652C42.9476 22.652 42.7756 22.636 42.6076 22.604C42.4396 22.58 42.2876 22.536 42.1516 22.472V21.152C42.2556 21.176 42.3796 21.2 42.5236 21.224C42.6756 21.248 42.8156 21.26 42.9436 21.26C43.3036 21.26 43.5636 21.176 43.7236 21.008C43.8916 20.84 44.0396 20.62 44.1676 20.348L44.5996 19.34L44.5756 20.66L41.7316 13.472H43.4236L45.4156 18.776H44.8156L46.7956 13.472H48.4996L45.6556 20.66C45.4876 21.084 45.2836 21.444 45.0436 21.74C44.8036 22.036 44.5236 22.26 44.2036 22.412C43.8916 22.572 43.5316 22.652 43.1236 22.652ZM52.9269 20.144C52.4549 20.144 52.0189 20.052 51.6189 19.868C51.2269 19.676 50.9149 19.404 50.6829 19.052L50.8389 18.74V20H49.3629V10.916H50.9349V14.768L50.6949 14.444C50.9189 14.092 51.2229 13.82 51.6069 13.628C51.9909 13.428 52.4349 13.328 52.9389 13.328C53.5549 13.328 54.1109 13.48 54.6069 13.784C55.1029 14.088 55.4949 14.496 55.7829 15.008C56.0789 15.52 56.2269 16.096 56.2269 16.736C56.2269 17.368 56.0829 17.944 55.7949 18.464C55.5069 18.984 55.1149 19.396 54.6189 19.7C54.1229 19.996 53.5589 20.144 52.9269 20.144ZM52.7469 18.704C53.1069 18.704 53.4269 18.62 53.7069 18.452C53.9869 18.284 54.2029 18.052 54.3549 17.756C54.5149 17.46 54.5949 17.12 54.5949 16.736C54.5949 16.352 54.5149 16.016 54.3549 15.728C54.2029 15.432 53.9869 15.2 53.7069 15.032C53.4269 14.856 53.1069 14.768 52.7469 14.768C52.4029 14.768 52.0909 14.852 51.8109 15.02C51.5389 15.188 51.3229 15.424 51.1629 15.728C51.0109 16.024 50.9349 16.36 50.9349 16.736C50.9349 17.12 51.0109 17.46 51.1629 17.756C51.3229 18.052 51.5389 18.284 51.8109 18.452C52.0909 18.62 52.4029 18.704 52.7469 18.704ZM60.5214 20.144C59.8494 20.144 59.2614 19.992 58.7574 19.688C58.2534 19.384 57.8614 18.972 57.5814 18.452C57.3014 17.932 57.1614 17.356 57.1614 16.724C57.1614 16.068 57.3014 15.488 57.5814 14.984C57.8694 14.472 58.2574 14.068 58.7454 13.772C59.2414 13.476 59.7934 13.328 60.4014 13.328C60.9134 13.328 61.3614 13.412 61.7454 13.58C62.1374 13.748 62.4694 13.98 62.7414 14.276C63.0134 14.572 63.2214 14.912 63.3654 15.296C63.5094 15.672 63.5814 16.08 63.5814 16.52C63.5814 16.632 63.5734 16.748 63.5574 16.868C63.5494 16.988 63.5294 17.092 63.4974 17.18H58.4574V15.98H62.6094L61.8654 16.544C61.9374 16.176 61.9174 15.848 61.8054 15.56C61.7014 15.272 61.5254 15.044 61.2774 14.876C61.0374 14.708 60.7454 14.624 60.4014 14.624C60.0734 14.624 59.7814 14.708 59.5254 14.876C59.2694 15.036 59.0734 15.276 58.9374 15.596C58.8094 15.908 58.7614 16.288 58.7934 16.736C58.7614 17.136 58.8134 17.492 58.9494 17.804C59.0934 18.108 59.3014 18.344 59.5734 18.512C59.8534 18.68 60.1734 18.764 60.5334 18.764C60.8934 18.764 61.1974 18.688 61.4454 18.536C61.7014 18.384 61.9014 18.18 62.0454 17.924L63.3174 18.548C63.1894 18.86 62.9894 19.136 62.7174 19.376C62.4454 19.616 62.1214 19.804 61.7454 19.94C61.3774 20.076 60.9694 20.144 60.5214 20.144ZM64.773 20V13.472H66.249V14.924L66.129 14.708C66.281 14.22 66.517 13.88 66.837 13.688C67.165 13.496 67.557 13.4 68.013 13.4H68.397V14.792H67.833C67.385 14.792 67.025 14.932 66.753 15.212C66.481 15.484 66.345 15.868 66.345 16.364V20H64.773ZM74.7181 20.144C74.1501 20.144 73.6221 20.04 73.1341 19.832C72.6541 19.624 72.2381 19.336 71.8861 18.968C71.5421 18.592 71.2901 18.156 71.1301 17.66L72.4861 17.072C72.7021 17.584 73.0141 17.988 73.4221 18.284C73.8301 18.572 74.2901 18.716 74.8021 18.716C75.0901 18.716 75.3381 18.672 75.5461 18.584C75.7621 18.488 75.9261 18.36 76.0381 18.2C76.1581 18.04 76.2181 17.848 76.2181 17.624C76.2181 17.36 76.1381 17.144 75.9781 16.976C75.8261 16.8 75.5941 16.664 75.2821 16.568L73.5661 16.016C72.8701 15.8 72.3461 15.476 71.9941 15.044C71.6421 14.612 71.4661 14.104 71.4661 13.52C71.4661 13.008 71.5901 12.556 71.8381 12.164C72.0941 11.772 72.4461 11.468 72.8941 11.252C73.3501 11.028 73.8701 10.916 74.4541 10.916C74.9901 10.916 75.4821 11.012 75.9301 11.204C76.3781 11.388 76.7621 11.648 77.0821 11.984C77.4101 12.312 77.6541 12.7 77.8141 13.148L76.4701 13.748C76.2941 13.3 76.0301 12.956 75.6781 12.716C75.3261 12.468 74.9181 12.344 74.4541 12.344C74.1821 12.344 73.9421 12.392 73.7341 12.488C73.5261 12.576 73.3621 12.704 73.2421 12.872C73.1301 13.032 73.0741 13.224 73.0741 13.448C73.0741 13.696 73.1541 13.916 73.3141 14.108C73.4741 14.292 73.7181 14.436 74.0461 14.54L75.6901 15.056C76.4021 15.288 76.9341 15.608 77.2861 16.016C77.6461 16.424 77.8261 16.928 77.8261 17.528C77.8261 18.04 77.6941 18.492 77.4301 18.884C77.1661 19.276 76.8021 19.584 76.3381 19.808C75.8741 20.032 75.3341 20.144 74.7181 20.144ZM82.2596 20.144C81.5876 20.144 80.9996 19.992 80.4956 19.688C79.9916 19.384 79.5996 18.972 79.3196 18.452C79.0396 17.932 78.8996 17.356 78.8996 16.724C78.8996 16.068 79.0396 15.488 79.3196 14.984C79.6076 14.472 79.9956 14.068 80.4836 13.772C80.9796 13.476 81.5316 13.328 82.1396 13.328C82.6516 13.328 83.0996 13.412 83.4836 13.58C83.8756 13.748 84.2076 13.98 84.4796 14.276C84.7516 14.572 84.9596 14.912 85.1036 15.296C85.2476 15.672 85.3196 16.08 85.3196 16.52C85.3196 16.632 85.3116 16.748 85.2956 16.868C85.2876 16.988 85.2676 17.092 85.2356 17.18H80.1956V15.98H84.3476L83.6036 16.544C83.6756 16.176 83.6556 15.848 83.5436 15.56C83.4396 15.272 83.2636 15.044 83.0156 14.876C82.7756 14.708 82.4836 14.624 82.1396 14.624C81.8116 14.624 81.5196 14.708 81.2636 14.876C81.0076 15.036 80.8116 15.276 80.6756 15.596C80.5476 15.908 80.4996 16.288 80.5316 16.736C80.4996 17.136 80.5516 17.492 80.6876 17.804C80.8316 18.108 81.0396 18.344 81.3116 18.512C81.5916 18.68 81.9116 18.764 82.2716 18.764C82.6316 18.764 82.9356 18.688 83.1836 18.536C83.4396 18.384 83.6396 18.18 83.7836 17.924L85.0556 18.548C84.9276 18.86 84.7276 19.136 84.4556 19.376C84.1836 19.616 83.8596 19.804 83.4836 19.94C83.1156 20.076 82.7076 20.144 82.2596 20.144ZM89.6553 20.144C89.0073 20.144 88.4233 19.996 87.9033 19.7C87.3913 19.396 86.9873 18.988 86.6913 18.476C86.3953 17.956 86.2473 17.372 86.2473 16.724C86.2473 16.076 86.3953 15.496 86.6913 14.984C86.9873 14.472 87.3913 14.068 87.9033 13.772C88.4233 13.476 89.0073 13.328 89.6553 13.328C90.1193 13.328 90.5513 13.412 90.9513 13.58C91.3513 13.74 91.6953 13.964 91.9833 14.252C92.2793 14.532 92.4913 14.868 92.6193 15.26L91.2393 15.86C91.1193 15.532 90.9153 15.268 90.6273 15.068C90.3473 14.868 90.0233 14.768 89.6553 14.768C89.3113 14.768 89.0033 14.852 88.7313 15.02C88.4673 15.188 88.2593 15.42 88.1073 15.716C87.9553 16.012 87.8793 16.352 87.8793 16.736C87.8793 17.12 87.9553 17.46 88.1073 17.756C88.2593 18.052 88.4673 18.284 88.7313 18.452C89.0033 18.62 89.3113 18.704 89.6553 18.704C90.0313 18.704 90.3593 18.604 90.6393 18.404C90.9193 18.204 91.1193 17.936 91.2393 17.6L92.6193 18.224C92.4913 18.592 92.2833 18.924 91.9953 19.22C91.7073 19.508 91.3633 19.736 90.9633 19.904C90.5633 20.064 90.1273 20.144 89.6553 20.144ZM96.1401 20.144C95.6361 20.144 95.1961 20.032 94.8201 19.808C94.4521 19.584 94.1681 19.272 93.9681 18.872C93.7761 18.472 93.6801 18.004 93.6801 17.468V13.472H95.2521V17.336C95.2521 17.608 95.3041 17.848 95.4081 18.056C95.5201 18.256 95.6761 18.416 95.8761 18.536C96.0841 18.648 96.3161 18.704 96.5721 18.704C96.8281 18.704 97.0561 18.648 97.2561 18.536C97.4561 18.416 97.6121 18.252 97.7241 18.044C97.8361 17.836 97.8921 17.588 97.8921 17.3V13.472H99.4641V20H97.9761V18.716L98.1081 18.944C97.9561 19.344 97.7041 19.644 97.3521 19.844C97.0081 20.044 96.6041 20.144 96.1401 20.144ZM100.925 20V13.472H102.401V14.924L102.281 14.708C102.433 14.22 102.669 13.88 102.989 13.688C103.317 13.496 103.709 13.4 104.165 13.4H104.549V14.792H103.985C103.537 14.792 103.177 14.932 102.905 15.212C102.633 15.484 102.497 15.868 102.497 16.364V20H100.925ZM105.414 20V13.472H106.986V20H105.414ZM105.414 12.74V11.06H106.986V12.74H105.414ZM111.413 20.072C110.677 20.072 110.105 19.872 109.697 19.472C109.297 19.064 109.097 18.492 109.097 17.756V14.876H107.969V13.472H108.089C108.409 13.472 108.657 13.388 108.833 13.22C109.009 13.052 109.097 12.808 109.097 12.488V11.984H110.669V13.472H112.169V14.876H110.669V17.672C110.669 17.888 110.705 18.072 110.777 18.224C110.857 18.376 110.977 18.492 111.137 18.572C111.305 18.652 111.517 18.692 111.773 18.692C111.829 18.692 111.893 18.688 111.965 18.68C112.045 18.672 112.121 18.664 112.193 18.656V20C112.081 20.016 111.953 20.032 111.809 20.048C111.665 20.064 111.533 20.072 111.413 20.072ZM114.186 22.652C114.01 22.652 113.838 22.636 113.67 22.604C113.502 22.58 113.35 22.536 113.214 22.472V21.152C113.318 21.176 113.442 21.2 113.586 21.224C113.738 21.248 113.878 21.26 114.006 21.26C114.366 21.26 114.626 21.176 114.786 21.008C114.954 20.84 115.102 20.62 115.23 20.348L115.662 19.34L115.638 20.66L112.794 13.472H114.486L116.478 18.776H115.878L117.858 13.472H119.562L116.718 20.66C116.55 21.084 116.346 21.444 116.106 21.74C115.866 22.036 115.586 22.26 115.266 22.412C114.954 22.572 114.594 22.652 114.186 22.652Z" fill="#18181B"/>
<defs>
<filter id="filter0_b_20_91" x="-14" y="-14" width="165" height="58" filterUnits="userSpaceOnUse" color-interpolation-filters="sRGB">
<feFlood flood-opacity="0" result="BackgroundImageFix"/>
<feGaussianBlur in="BackgroundImageFix" stdDeviation="7"/>
<feComposite in2="SourceAlpha" operator="in" result="effect1_backgroundBlur_20_91"/>
<feBlend mode="normal" in="SourceGraphic" in2="effect1_backgroundBlur_20_91" result="shape"/>
</filter>
</defs>
</svg>
