<svg width="50" height="50" viewBox="0 0 50 50" fill="none" xmlns="http://www.w3.org/2000/svg">
<rect x="0.5" y="0.5" width="49" height="49" rx="24.5" fill="#1D1E2D"/>
<rect x="0.5" y="0.5" width="49" height="49" rx="24.5" stroke="url(#paint0_linear_106_197)"/>
<path d="M21.5903 12.6786C21.3874 12.6786 21.2019 12.7932 21.1111 12.9747L14.878 25.4423C14.7949 25.6083 14.8038 25.8056 14.9014 25.9635C14.9991 26.1214 15.1715 26.2175 15.3571 26.2175H20.8192L17.2203 35.8845C17.132 36.1218 17.2218 36.3886 17.4358 36.524C17.6497 36.6595 17.9292 36.6267 18.106 36.4454L23.5347 30.8757C23.7412 30.6638 23.7369 30.3247 23.525 30.1182C23.3131 29.9116 22.9739 29.916 22.7674 30.1279L19.1096 33.8807L22.0923 25.8687C22.1536 25.7043 22.1304 25.5203 22.0302 25.3762C21.9301 25.2321 21.7658 25.1461 21.5903 25.1461H16.2239L21.9214 13.75H32.2083L27.3789 20.9302C27.2683 21.0947 27.2575 21.3069 27.351 21.4818C27.4445 21.6566 27.627 21.7655 27.8253 21.7649L30.929 21.7543L29.931 22.7782C29.7245 22.9901 29.7289 23.3293 29.9407 23.5358C30.1526 23.7423 30.4918 23.738 30.6983 23.5261L32.5871 21.5882C32.7377 21.4337 32.7809 21.2039 32.6968 21.0053C32.6126 20.8066 32.4174 20.6779 32.2017 20.6786L28.8317 20.69L33.6588 13.5133C33.7693 13.349 33.7802 13.1372 33.6871 12.9625C33.5941 12.7878 33.4122 12.6786 33.2143 12.6786H21.5903Z" fill="white"/>
<path d="M29.8337 24.9795C29.6251 24.7696 29.2859 24.7686 29.0761 24.9772C28.8663 25.1858 28.8653 25.525 29.0739 25.7348L29.2565 25.9186C26.7466 26.2812 24.8214 28.4525 24.8214 31.0714C24.8214 32.8011 25.6611 34.3346 26.9522 35.2808C27.1909 35.4557 27.5261 35.404 27.701 35.1654C27.8759 34.9267 27.8242 34.5915 27.5856 34.4166C26.5593 33.6644 25.8929 32.4468 25.8929 31.0714C25.8929 29.0459 27.3383 27.3643 29.2432 27.0069L29.0739 27.1773C28.8653 27.3871 28.8663 27.7263 29.0761 27.9349C29.2859 28.1435 29.6251 28.1425 29.8337 27.9326L30.9261 26.8337C31.1339 26.6248 31.1339 26.2873 30.9261 26.0784L29.8337 24.9795Z" fill="white"/>
<path d="M33.0478 26.8621C32.8091 26.6872 32.4739 26.7389 32.299 26.9775C32.1241 27.2162 32.1758 27.5514 32.4144 27.7263C33.4407 28.4784 34.1071 29.6961 34.1071 31.0714C34.1071 33.097 32.6617 34.7786 30.7568 35.136L30.9261 34.9656C31.1347 34.7558 31.1337 34.4166 30.9239 34.208C30.7141 33.9994 30.3749 34.0004 30.1663 34.2102L29.0739 35.3091C28.8661 35.5181 28.8661 35.8556 29.0739 36.0645L30.1663 37.1634C30.3749 37.3732 30.7141 37.3742 30.9239 37.1657C31.1337 36.9571 31.1347 36.6179 30.9261 36.408L30.7434 36.2243C33.2534 35.8617 35.1786 33.6904 35.1786 31.0714C35.1786 29.3418 34.3389 27.8083 33.0478 26.8621Z" fill="white"/>
<defs>
<linearGradient id="paint0_linear_106_197" x1="25" y1="0" x2="25" y2="50" gradientUnits="userSpaceOnUse">
<stop stop-color="#54567C"/>
<stop offset="0.473958" stop-color="#54567C" stop-opacity="0"/>
<stop offset="0.9375" stop-color="#282B60"/>
</linearGradient>
</defs>
</svg>
