<svg xmlns="http://www.w3.org/2000/svg" height="800" width="1200" version="1.0" viewBox="-11.932395 -8.072375 103.41409 48.43425"><g fill="red"><path d="M36.7427.0628c-9.8095.2812-19.49 2.085-27.3662 5.0888C8.203 5.6043 5.91 6.5713 5.001 7.0102c-.095.0411-.2238.1852-.2849.3155-.2306.4595-.1696.768.6513 3.381.5088 1.6186.7598 2.5102.7326 2.6336-.0475.2675-.3256.631-.5766.7407-.1221.0549-.6038.2195-1.0854.3772C3.5017 14.76.9849 15.727.5304 15.967c-.407.2057-.5699.4938-.5224.9259.034.3566 4.1789 14.4365 4.362 14.8342.061.1235.2035.3018.3257.3978l.217.1646h34.781c25.582 0 34.8216-.0206 34.9302-.0754.3053-.1578.5223-.439.658-.8436.4952-1.5225 4.2196-14.2719 4.2535-14.5462.034-.3086.0136-.3704-.1492-.5693-.1018-.1234-.2782-.2743-.3867-.3292-.3731-.192-2.9646-1.1864-3.8329-1.4745-.4817-.1508-.9837-.3292-1.133-.3909-.312-.1303-.5765-.5006-.5969-.8367-.0136-.2263 1.2754-4.7733 1.4518-5.123.122-.247.0271-.7613-.19-.9876-.1017-.1098-.2239-.199-.2713-.199-.0475 0-.4613-.1714-.9227-.384C65.9473 3.0667 56.2938.8515 45.9077.1931c-1.4382-.0891-5.3253-.2057-6.5125-.192-.502.0069-1.696.0343-2.6525.0617zm11.2884 7.2766c.0814.1029.1085.2057.0814.3223-.3528 1.4882-.4613 1.7969-.7666 2.1398-.3188.3635-.7598.6172-1.7977 1.0561-.3189.1303-.753.288-.9633.343-.3392.0822-.4138.0891-.5767 0-.4002-.2058-.4273-.6996-.1017-1.7489.2985-.9464.4138-1.1453.8412-1.4334.6173-.4114 1.3432-.672 2.3608-.823.5155-.0822.7733-.041.9226.144zm-24.578.3635c.1085.0617.217.1783.2374.2606.0272.096-.3934 1.742-1.0786 4.2452-.6174 2.2495-1.1261 4.1218-1.1261 4.163 0 .0548.4952.0754 1.723.0754h1.7232l.0271-.1578c.0204-.0823.407-1.5225.8616-3.2027.658-2.4484.8819-3.1754 1.126-3.6829.346-.7064.8345-1.2962 1.3162-1.5842l.312-.1852 1.757-.0206c.9633-.0137 1.7978-.0068 1.8588.0206.0814.0274.0475.1029-.1696.3292-.7123.7407-1.4042 2.2563-2.1573 4.7184-.502 1.6323-2.7067 10.3148-2.7339 10.7605-.0339.583.0543.8573.4274 1.2962l.312.3704-.156.1577c-.4341.432-1.5806.9259-2.5982 1.1179-.6512.1235-1.9944.2126-2.1708.144-.2442-.096-.3867-.432-.3799-.9258 0-.4938.0543-.7133 1.1329-4.7802.4274-1.6117.7734-2.9559.7734-2.997 0-.0549-.5427-.0755-1.7164-.0755H21.038l-.4884 1.694c-.658 2.27-.9837 2.949-1.8588 3.8955-.8548.9327-3.6362 2.51-5.4814 3.1136-1.194.3909-1.5196.4458-2.6118.4526-1.1329 0-1.3771-.0548-2.2386-.5075-1.4586-.7612-2.7882-3.1753-2.9239-5.3082-.061-.9876.034-1.4402.3595-1.7352.3596-.3223 1.601-.9327 2.5236-1.2413 1.0108-.336.9566-.4115.909 1.31-.027 1.0355-.0135 1.4539.0747 1.9957.2239 1.3579.7802 2.6884 1.3771 3.2713.5495.5418 1.5739.8367 2.4151.7133.9769-.1509 2.1301-1.6117 3.0053-3.7926.122-.3223.6444-2.0712 1.1532-3.8886a2390.242 2390.242 0 011.5942-5.7129c.3664-1.3236.692-2.5924.7123-2.8118.0814-.7819-.1492-.919-1.601-.967-1.1736-.0343-1.567.0274-2.3065.4046-.8344.4252-1.3703 1.0904-1.6756 2.0849-.095.3292-.1221.631-.1153 1.4745 0 1.2276.0407 1.3785.7123 2.8118.217.4664.3731.8779.346.8985-.061.0686-1.4314.2537-2.232.3086-.4273.0343-.6851.0206-.8208-.0343-.312-.1303-.6173-.8093-.9226-2.03-.563-2.2564.095-4.211 1.8045-5.3563 1.3771-.9258 2.9714-1.1659 7.944-1.1864 2.1708-.007 2.5914.0068 2.761.096zm35.0116 5.0407c.7326.144 1.1465.6173 1.1465 1.3168 0 .3978-.129.9122-1.289 5.0614-1.2482 4.4852-1.3228 4.8624-.9769 5.2808.1018.1166.2985.2743.441.3498.1492.0754.2646.1577.2646.192 0 .3978-3.3852 1.7214-4.4096 1.7214-.407 0-.753-.1852-.8954-.48-.2239-.4459-.1425-1.0425.3527-2.572.1425-.4526.5224-1.7899.848-2.9764.3189-1.1864.7191-2.606.882-3.1616.1627-.5555.3188-1.1933.3391-1.4128.0407-.3498.0272-.432-.1017-.5967-.1154-.144-.2036-.1851-.4139-.1851-.7123 0-1.9062.8298-2.3879 1.6665-.251.4252-.3663.775-1.038 3.0313-.9157 3.1-.9157 3.1-.9564 4.1835-.0204.631-.0679 1.0082-.1221 1.1042-.2307.3635-2.483 1.31-3.297 1.3785-.4952.048-.6988-.0686-.8887-.5144-.2239-.5006-.1492-1.2481.2374-2.4483.1696-.5281.7327-2.3524 1.2483-4.0464.8954-2.9696.9294-3.1067.9361-3.7034 0-.5692-.0135-.6378-.1967-.9121-.1492-.2195-.1832-.3292-.1357-.4047.034-.0617.3664-.2674.7395-.4732 1.0854-.5898 3.3783-1.2893 3.8397-1.1727.3324.0891.4138.5623.2238 1.3373-.1628.6447-.1628.6447.7937-.0137.9566-.6515 2.2387-1.2208 3.2495-1.4334.9362-.1989 1.065-.2126 1.567-.1166zm-19.151.439c.57.2949.8956.727 1.038 1.4059.2782 1.31-1.0311 2.9559-3.2223 4.0395-.7462.3703-1.9673.8298-2.7814 1.0424-.3256.0892-.6377.199-.6852.247-.0475.048-.156.3428-.2442.6583-.1221.4526-.156.7407-.156 1.4265-.0068.9739.0542 1.1728.4748 1.646.4003.4458.692.5624 1.5129.6035.848.0412 1.2278-.0411 2.1437-.432.373-.1647.7055-.2744.7394-.2401.1357.1372-.0746.4664-.7598 1.159-1.289 1.31-2.2319 1.7832-4.016 2.0026-.8005.096-1.4247.0412-2.0895-.1851-.9769-.3292-1.4924-.775-1.8791-1.6254-.2917-.6378-.3867-1.1454-.38-1.9752.0136-2.27 1.0584-4.979 2.6322-6.817 1.5671-1.8312 3.5412-2.812 6.3294-3.148.4613-.0548 1.0176.0206 1.3432.192zm6.8654-.096c.0746.0754.1492.2126.1764.3086.0746.3154-.2375 1.5568-1.3161 5.2122-1.289 4.3824-1.3704 4.6842-1.3704 5.1848 0 .3498.0272.432.2036.6378.1153.1235.3324.2812.4816.343.2646.1097.2714.1234.1696.24-.1492.1714-1.3025.7612-2.0623 1.063-.8073.3223-1.8384.5898-2.259.5898-.441 0-.8955-.2263-1.0312-.5144-.2917-.624-.217-1.1384.502-3.3125 1.3704-4.1355 2.042-6.4536 2.0556-7.0845.0067-.391-.0204-.487-.19-.7338-.1018-.1578-.1764-.3292-.156-.384.1424-.3773 2.198-1.2551 3.6768-1.5706.6784-.1509.9566-.144 1.1194.0206zm24.0353-.0618c.1967.1098.2442.1852.1967.3498-.0204.0754-1.4925 2.1603-3.2834 4.6361-2.5779 3.5663-3.2427 4.5333-3.2291 4.6705l.0203.1783 3.1817.0206c2.0623.0068 3.2698-.0069 3.4394-.0549.3188-.0892.658-.4184 1.0176-.9807.2442-.384.2645-.4458.2645-.919 0-.5761-.0814-.7956-.4341-1.1042-.2646-.2332-.6038-.3155-1.16-.2743l-.3393.0206.0204-.24c.0271-.4047.3528-.967.6784-1.2003.2713-.1851.346-.2057.848-.2057.8954.0068 1.5603.384 1.8587 1.0424.1425.3086.1629.439.129.7201-.1357 1.0288-1.2415 3.0588-2.8629 5.274-.3527.48-.7462.967-.8819 1.0836l-.2374.2126h-5.1218c-4.3146 0-5.1558-.0137-5.3525-.096-.1289-.0549-.2374-.1303-.2374-.1646 0-.0755.597-.9464 1.0379-1.5225.658-.8505 1.6485-2.037 3.3037-3.9435 2.6458-3.0519 3.0528-3.5868 3.0528-3.9846v-.2332h-4.2874l-.3596.3772c-.3256.343-.4884.439-.5902.343-.0814-.0824.6174-2.085.9633-2.7777.1696-.3291.5292-.7406.9023-1.0287.312-.24.7055-.2675 4.0364-.2675 2.3472-.0068 3.3241.0138 3.4259.0686z"/><path d="M35.8744 14.6296c-.502.3704-1.0312 1.31-1.635 2.8805-.4341 1.1385-.4341 1.159-.0067 1.111.1831-.0206.597-.1234.9158-.2194.6716-.2058.6173-.144 1.1465-1.4403.5902-1.4676.7462-2.2769.4613-2.4346-.2375-.1235-.6445-.0823-.882.1028z"/></g></svg>