<svg width="607" height="527" viewBox="0 0 607 527" fill="none" xmlns="http://www.w3.org/2000/svg">
<path d="M541.613 411.387C541.967 410.814 542.308 410.235 542.637 409.65L541.983 409.282C542.631 408.13 543.229 406.954 543.779 405.754L544.461 406.067C545.018 404.851 545.526 403.612 545.985 402.351L545.28 402.094C545.73 400.86 546.132 399.604 546.488 398.327L547.21 398.528C547.568 397.242 547.88 395.935 548.145 394.608L547.409 394.461C547.665 393.184 547.877 391.887 548.046 390.572L548.79 390.667C548.959 389.354 549.086 388.023 549.172 386.675L548.423 386.628C548.506 385.321 548.549 383.998 548.554 382.658L549.304 382.661C549.308 381.349 549.275 380.022 549.205 378.681L548.456 378.719C548.389 377.409 548.285 376.084 548.147 374.746L548.893 374.669C548.759 373.368 548.592 372.054 548.393 370.729L547.651 370.84C547.457 369.548 547.231 368.244 546.975 366.928L547.712 366.785C547.461 365.496 547.181 364.196 546.872 362.887L546.142 363.059C545.843 361.791 545.517 360.512 545.163 359.225L545.886 359.026C545.538 357.757 545.164 356.479 544.763 355.192L544.047 355.415C543.661 354.172 543.25 352.921 542.815 351.662L543.524 351.417C543.094 350.172 542.641 348.92 542.165 347.661L541.464 347.926C541.003 346.708 540.521 345.482 540.017 344.25L540.711 343.966C540.213 342.749 539.694 341.525 539.155 340.296L538.468 340.597C537.943 339.401 537.399 338.198 536.835 336.99L537.514 336.673C536.959 335.485 536.386 334.291 535.793 333.092L535.121 333.424C534.539 332.247 533.94 331.065 533.322 329.878L533.988 329.532C533.385 328.373 532.765 327.209 532.128 326.041L531.47 326.4C530.837 325.24 530.187 324.075 529.521 322.906L530.173 322.534C529.529 321.404 528.87 320.271 528.196 319.133L527.551 319.516C526.878 318.382 526.191 317.245 525.489 316.105L526.127 315.712C525.441 314.597 524.74 313.479 524.025 312.358L523.393 312.762C522.689 311.658 521.971 310.551 521.239 309.441L521.865 309.028C521.137 307.924 520.395 306.817 519.64 305.707L519.02 306.129C518.288 305.053 517.543 303.975 516.786 302.894L517.4 302.464C516.641 301.381 515.869 300.295 515.085 299.208L514.477 299.646C513.712 298.585 512.936 297.523 512.147 296.458L512.75 296.012C511.969 294.957 511.176 293.9 510.372 292.842L509.775 293.295C508.973 292.24 508.16 291.183 507.336 290.125L507.928 289.664C507.127 288.636 506.316 287.607 505.495 286.576L504.908 287.043C504.088 286.015 503.258 284.985 502.417 283.954L502.999 283.48C502.163 282.456 501.318 281.431 500.463 280.404L499.887 280.884C499.051 279.882 498.206 278.879 497.351 277.874L497.922 277.388C497.066 276.382 496.2 275.375 495.324 274.367L494.758 274.859C493.896 273.866 493.024 272.873 492.144 271.879L492.705 271.382C491.836 270.401 490.958 269.419 490.071 268.437L489.514 268.94C488.629 267.96 487.735 266.979 486.832 265.998L487.384 265.49C486.493 264.522 485.594 263.554 484.687 262.586L484.14 263.099C483.244 262.143 482.34 261.187 481.428 260.231L481.971 259.713C481.057 258.755 480.135 257.797 479.205 256.839L478.667 257.361C477.753 256.419 476.831 255.477 475.901 254.534L476.435 254.008C475.513 253.073 474.583 252.139 473.646 251.205L473.116 251.736C472.18 250.803 471.237 249.871 470.286 248.938L470.811 248.403C469.871 247.481 468.924 246.559 467.97 245.638L467.449 246.178C466.506 245.267 465.556 244.358 464.599 243.448L465.115 242.904C464.157 241.993 463.191 241.083 462.219 240.173L461.706 240.72C460.744 239.82 459.776 238.92 458.8 238.021L459.309 237.469C458.344 236.58 457.373 235.692 456.396 234.803L455.891 235.359C454.915 234.472 453.932 233.585 452.943 232.7L453.443 232.141C452.457 231.258 451.465 230.376 450.466 229.495L449.97 230.058C448.989 229.191 448.001 228.326 447.008 227.462L447.5 226.896C446.505 226.03 445.504 225.165 444.496 224.301L444.008 224.87C443.002 224.007 441.99 223.145 440.972 222.284L441.457 221.711C440.457 220.865 439.451 220.02 438.439 219.175L437.959 219.751C436.949 218.909 435.933 218.067 434.912 217.226L435.389 216.647C434.367 215.805 433.339 214.964 432.305 214.125L431.832 214.707C430.812 213.878 429.786 213.05 428.754 212.223L429.224 211.638C428.198 210.816 427.166 209.995 426.13 209.175L425.665 209.763C424.629 208.944 423.589 208.126 422.543 207.309L423.004 206.718C421.962 205.904 420.914 205.091 419.861 204.28L419.403 204.874C418.365 204.074 417.321 203.275 416.272 202.477L416.727 201.88C415.677 201.081 414.622 200.284 413.562 199.488L413.112 200.088C412.053 199.293 410.99 198.499 409.921 197.707L410.368 197.105C409.312 196.322 408.251 195.54 407.186 194.76L406.743 195.366C405.682 194.589 404.616 193.814 403.546 193.04L403.985 192.432C402.914 191.658 401.837 190.884 400.756 190.113L400.321 190.723C399.246 189.956 398.166 189.191 397.082 188.427L397.514 187.814C396.44 187.057 395.362 186.302 394.279 185.548L393.85 186.164C392.769 185.411 391.682 184.66 390.592 183.91L391.017 183.292C389.925 182.542 388.829 181.793 387.728 181.046L387.307 181.667C386.219 180.929 385.127 180.192 384.031 179.457L384.448 178.834C383.355 178.101 382.257 177.37 381.155 176.641L380.741 177.266C379.64 176.538 378.535 175.811 377.426 175.086L377.836 174.458C376.728 173.734 375.615 173.011 374.499 172.291L374.092 172.921C372.989 172.209 371.882 171.499 370.771 170.791L371.174 170.158C370.062 169.45 368.946 168.743 367.826 168.038L367.427 168.673C366.308 167.968 365.186 167.266 364.059 166.566L364.455 165.929C363.891 165.579 363.326 165.229 362.761 164.88C362.195 164.53 361.629 164.182 361.063 163.835L360.671 164.474C359.541 163.78 358.41 163.091 357.28 162.406L357.668 161.764C356.537 161.079 355.405 160.397 354.273 159.721L353.888 160.364C352.757 159.688 351.627 159.016 350.496 158.349L350.877 157.703C349.733 157.027 348.589 156.356 347.445 155.69L347.068 156.338C345.923 155.671 344.778 155.008 343.634 154.35L344.008 153.7C342.862 153.041 341.716 152.387 340.571 151.737L340.201 152.389C339.053 151.738 337.906 151.091 336.758 150.449L337.125 149.795C335.964 149.145 334.804 148.5 333.644 147.86L333.282 148.517C332.123 147.877 330.965 147.243 329.808 146.612L330.166 145.954C329.007 145.323 327.849 144.697 326.691 144.075L326.337 144.736C325.168 144.109 324 143.487 322.833 142.869L323.184 142.206C322.01 141.585 320.837 140.969 319.664 140.358L319.318 141.023C318.146 140.412 316.976 139.806 315.806 139.206L316.149 138.538C314.975 137.935 313.801 137.337 312.628 136.743L312.289 137.412C311.103 136.812 309.917 136.216 308.732 135.626L309.067 134.954C307.88 134.363 306.695 133.777 305.511 133.196L305.181 133.869C303.998 133.289 302.816 132.714 301.635 132.144L301.962 131.468C300.765 130.89 299.569 130.317 298.374 129.75L298.052 130.427C296.853 129.858 295.656 129.293 294.46 128.734L294.778 128.055C293.58 127.495 292.384 126.941 291.19 126.392L290.877 127.073C289.676 126.522 288.476 125.975 287.278 125.434L287.587 124.75C286.373 124.202 285.161 123.659 283.95 123.122L283.646 123.808C282.437 123.271 281.229 122.74 280.024 122.215L280.323 121.527C279.116 121.001 277.909 120.48 276.705 119.965L276.41 120.654C275.184 120.13 273.96 119.611 272.738 119.098L273.028 118.407C271.805 117.893 270.583 117.385 269.363 116.883L269.078 117.577C267.86 117.075 266.644 116.58 265.43 116.09L265.71 115.395C264.475 114.896 263.242 114.404 262.012 113.918L261.736 114.615C260.501 114.127 259.269 113.646 258.039 113.17L258.309 112.47C257.077 111.994 255.848 111.524 254.621 111.059L254.355 111.761C253.115 111.291 251.876 110.828 250.641 110.371L250.901 109.668C249.651 109.206 248.405 108.751 247.161 108.301L246.906 109.007C245.665 108.558 244.425 108.116 243.189 107.681L243.439 106.974C242.187 106.533 240.939 106.098 239.694 105.671L239.451 106.38C238.191 105.947 236.935 105.522 235.682 105.103L235.919 104.391C234.664 103.972 233.413 103.559 232.164 103.153L231.932 103.866C230.673 103.456 229.418 103.054 228.166 102.658L228.392 101.943C227.119 101.541 225.85 101.146 224.584 100.758L224.364 101.475C223.101 101.087 221.841 100.707 220.585 100.334L220.799 99.6155C219.527 99.2378 218.258 98.8675 216.994 98.5046L216.787 99.2255C215.506 98.8575 214.228 98.4972 212.956 98.1446L213.156 97.4218C211.881 97.0686 210.61 96.723 209.344 96.3851L209.15 97.1098C207.867 96.7674 206.589 96.433 205.316 96.1065L205.502 95.38C204.208 95.0485 202.92 94.7251 201.637 94.4099L201.458 95.1383C200.177 94.8237 198.901 94.5173 197.631 94.2192L197.802 93.489C196.502 93.1837 195.206 92.8871 193.917 92.599L193.753 93.331C192.455 93.041 191.162 92.7597 189.875 92.4873L190.031 91.7535C188.741 91.4805 187.458 91.2163 186.18 90.9608L186.033 91.6963C184.717 91.4333 183.408 91.1796 182.106 90.9354L182.244 90.1983C180.938 89.9533 179.638 89.7178 178.345 89.4917L178.216 90.2305C176.911 90.0024 175.613 89.784 174.322 89.5752L174.442 88.8348C173.118 88.6208 171.802 88.4169 170.493 88.2232L170.383 88.9651C169.078 88.7719 167.781 88.5889 166.491 88.4161L166.59 87.6727C165.26 87.4945 163.939 87.3271 162.625 87.1706L162.536 87.9153C161.216 87.758 159.905 87.6116 158.602 87.4763L158.68 86.7303C157.357 86.593 156.044 86.467 154.74 86.3524L154.674 87.0995C153.34 86.9822 152.016 86.8769 150.701 86.7835L150.754 86.0354C149.436 85.9417 148.127 85.8601 146.828 85.7905L146.788 86.5394C145.444 86.4674 144.112 86.4084 142.791 86.3623L142.817 85.6128C141.488 85.5664 140.17 85.5332 138.863 85.5131L138.852 86.263C137.514 86.2424 136.188 86.2357 134.875 86.2429L134.871 85.4929C133.534 85.5002 132.21 85.5218 130.899 85.5578L130.919 86.3075C129.587 86.3441 128.268 86.3957 126.963 86.4622L126.925 85.7132C125.584 85.7816 124.257 85.8657 122.946 85.9657L123.003 86.7135C121.676 86.8146 120.364 86.9321 119.068 87.0658L118.991 86.3198C117.652 86.458 116.33 86.6137 115.024 86.7868L115.123 87.5302C113.802 87.7053 112.5 87.8983 111.216 88.1092L111.094 87.3691C109.764 87.5875 108.454 87.8251 107.163 88.0821L107.309 88.8176C106 89.0782 104.711 89.3588 103.443 89.6593L103.27 88.9295C101.961 89.2399 100.673 89.5715 99.4084 89.9245L99.61 90.6469C98.3191 91.0071 97.0522 91.3897 95.8097 91.7946L95.5773 91.0816C94.303 91.4969 93.0536 91.9359 91.83 92.3985L92.0952 93.1C90.8366 93.5758 89.606 94.0767 88.4039 94.6029L88.1032 93.9158C86.8729 94.4542 85.6718 95.019 84.5004 95.6103L84.8384 96.2798C83.6425 96.8835 82.4786 97.5149 81.3474 98.174L80.9698 97.526C79.8029 98.206 78.6698 98.9155 77.5714 99.6548L77.9902 100.277C76.89 101.017 75.8255 101.788 74.7976 102.588L74.3368 101.997C73.2691 102.828 72.2399 103.692 71.2502 104.588L71.7537 105.144C70.771 106.034 69.8283 106.956 68.9263 107.91L68.3813 107.395C67.4591 108.37 66.5788 109.379 65.7413 110.422L66.326 110.892C65.4998 111.921 64.716 112.982 63.9756 114.077L63.3543 113.657C62.9783 114.213 62.6134 114.778 62.2596 115.35C61.9058 115.923 61.5646 116.502 61.2358 117.087L61.8896 117.455C61.2422 118.607 60.6438 119.783 60.094 120.983L59.4122 120.67C58.855 121.886 58.3469 123.125 57.8875 124.387L58.5922 124.643C58.1429 125.877 57.7407 127.133 57.3851 128.41L56.6626 128.209C56.3045 129.495 55.9931 130.802 55.7278 132.129L56.4633 132.276C56.2079 133.553 55.9957 134.85 55.8263 136.166L55.0824 136.07C54.9133 137.383 54.7863 138.714 54.7009 140.062L55.4494 140.109C55.3666 141.416 55.3233 142.739 55.319 144.079L54.569 144.076C54.5649 145.389 54.5978 146.715 54.6673 148.057L55.4163 148.018C55.4842 149.328 55.5874 150.653 55.7256 151.991L54.9795 152.068C55.1138 153.37 55.2808 154.683 55.4801 156.009L56.2218 155.897C56.4161 157.189 56.6414 158.493 56.8973 159.809L56.1611 159.952C56.412 161.241 56.6919 162.541 57.0007 163.85L57.7307 163.678C58.0298 164.947 58.3561 166.225 58.7095 167.512L57.9863 167.711C58.3347 168.98 58.7091 170.258 59.1092 171.545L59.8254 171.322C60.2119 172.565 60.6226 173.816 61.0573 175.075L60.3484 175.32C60.7783 176.565 61.2315 177.817 61.7076 179.076L62.4091 178.811C62.8697 180.03 63.3521 181.255 63.8559 182.487L63.1618 182.771C63.6597 183.988 64.1785 185.212 64.7179 186.441L65.4047 186.14C65.9295 187.337 66.474 188.539 67.0379 189.747L66.3584 190.064C66.9134 191.253 67.4871 192.446 68.0793 193.645L68.7517 193.313C69.3333 194.49 69.9329 195.672 70.5503 196.859L69.885 197.205C70.488 198.365 71.108 199.528 71.7447 200.696L72.4031 200.337C73.036 201.498 73.6855 202.663 74.3514 203.832L73.6998 204.203C74.3436 205.333 75.0027 206.467 75.677 207.604L76.3221 207.221C76.9942 208.355 77.6815 209.492 78.3839 210.632L77.7452 211.026C78.4317 212.14 79.1325 213.258 79.8473 214.379L80.4796 213.975C81.184 215.08 81.9021 216.187 82.634 217.297L82.0078 217.709C82.7359 218.814 83.4775 219.921 84.2324 221.03L84.8525 220.608C85.5846 221.684 86.3294 222.762 87.0866 223.843L86.4724 224.273C87.2316 225.356 88.0033 226.442 88.7874 227.53L89.3958 227.091C90.1605 228.152 90.937 229.214 91.7253 230.279L91.1226 230.725C91.9038 231.78 92.6965 232.837 93.5005 233.895L94.0977 233.442C94.8994 234.497 95.7123 235.554 96.5366 236.612L95.9448 237.073C96.7454 238.101 97.5565 239.131 98.3781 240.161L98.9645 239.694C99.7844 240.722 100.615 241.752 101.455 242.783L100.874 243.257C101.709 244.281 102.555 245.307 103.41 246.333L103.986 245.853C104.822 246.855 105.667 247.859 106.522 248.863L105.95 249.349C106.807 250.355 107.673 251.362 108.549 252.37L109.115 251.878C109.977 252.871 110.848 253.864 111.729 254.858L111.168 255.355C112.037 256.336 112.915 257.318 113.802 258.3L114.358 257.797C115.244 258.777 116.138 259.758 117.041 260.739L116.489 261.247C117.379 262.215 118.278 263.183 119.186 264.151L119.733 263.638C120.629 264.594 121.533 265.55 122.445 266.507L121.902 267.024C122.816 267.982 123.737 268.94 124.667 269.898L125.205 269.376C126.12 270.318 127.042 271.26 127.972 272.203L127.438 272.729C128.36 273.664 129.29 274.598 130.227 275.532L130.757 275.001C131.692 275.934 132.636 276.867 133.587 277.799L133.062 278.335C134.002 279.256 134.949 280.178 135.903 281.099L136.424 280.56C137.367 281.47 138.317 282.38 139.274 283.289L138.757 283.833C139.716 284.744 140.681 285.654 141.654 286.565L142.166 286.017C143.128 286.917 144.097 287.817 145.072 288.716L144.564 289.268C145.529 290.157 146.5 291.046 147.477 291.934L147.981 291.379C148.958 292.265 149.941 293.152 150.93 294.037L150.43 294.596C151.415 295.479 152.408 296.361 153.406 297.242L153.902 296.68C154.884 297.546 155.871 298.411 156.865 299.276L156.373 299.841C157.368 300.707 158.369 301.572 159.376 302.436L159.865 301.867C160.87 302.73 161.882 303.592 162.9 304.453L162.416 305.026C163.416 305.872 164.422 306.717 165.433 307.562L165.914 306.986C166.924 307.829 167.939 308.67 168.96 309.511L168.484 310.09C169.506 310.932 170.534 311.773 171.568 312.613L172.041 312.03C173.061 312.859 174.087 313.687 175.118 314.514L174.649 315.099C175.675 315.921 176.706 316.743 177.743 317.563L178.208 316.974C179.243 317.793 180.284 318.611 181.33 319.428L180.868 320.019C181.911 320.833 182.959 321.646 184.012 322.457L184.47 321.863C185.508 322.664 186.552 323.463 187.6 324.26L187.146 324.857C188.196 325.656 189.251 326.453 190.31 327.249L190.761 326.649C191.819 327.444 192.883 328.238 193.951 329.03L193.505 329.632C194.561 330.415 195.621 331.197 196.687 331.977L197.13 331.371C198.191 332.148 199.256 332.923 200.327 333.697L199.888 334.305C200.959 335.08 202.036 335.853 203.116 336.624L203.552 336.014C204.627 336.781 205.706 337.546 206.79 338.31L206.358 338.923C207.432 339.68 208.511 340.435 209.594 341.189L210.022 340.574C211.104 341.326 212.19 342.078 213.281 342.827L212.856 343.445C213.948 344.195 215.044 344.944 216.144 345.691L216.565 345.07C217.653 345.808 218.745 346.545 219.842 347.28L219.424 347.903C220.518 348.636 221.616 349.367 222.718 350.096L223.132 349.471C224.233 350.2 225.338 350.926 226.447 351.651L226.037 352.279C227.145 353.003 228.257 353.726 229.374 354.446L229.78 353.816C230.883 354.528 231.991 355.238 233.101 355.946L232.698 356.579C233.81 357.288 234.926 357.994 236.046 358.699L236.446 358.065C237.565 358.769 238.687 359.471 239.814 360.171L239.418 360.808C239.982 361.158 240.546 361.508 241.112 361.858C241.678 362.207 242.244 362.555 242.809 362.902L243.202 362.263C244.332 362.957 245.463 363.646 246.593 364.331L246.204 364.973C247.336 365.658 248.468 366.34 249.6 367.017L249.985 366.373C251.115 367.049 252.246 367.721 253.377 368.389L252.995 369.034C254.139 369.71 255.283 370.381 256.427 371.048L256.805 370.399C257.95 371.067 259.094 371.729 260.239 372.387L259.865 373.037C261.011 373.696 262.156 374.35 263.302 375L263.672 374.348C264.82 374.999 265.967 375.646 267.114 376.288L266.748 376.942C267.909 377.592 269.069 378.237 270.229 378.877L270.591 378.22C271.75 378.86 272.908 379.495 274.065 380.125L273.707 380.783C274.865 381.414 276.024 382.04 277.181 382.662L277.536 382.001C278.705 382.628 279.872 383.25 281.04 383.868L280.689 384.531C281.863 385.152 283.036 385.768 284.208 386.379L284.555 385.714C285.726 386.325 286.897 386.931 288.066 387.532L287.724 388.199C288.898 388.802 290.072 389.401 291.245 389.994L291.583 389.325C292.77 389.926 293.956 390.521 295.141 391.112L294.806 391.783C295.992 392.374 297.178 392.96 298.362 393.541L298.692 392.868C299.875 393.448 301.057 394.023 302.237 394.593L301.911 395.269C303.108 395.847 304.304 396.42 305.499 396.988L305.821 396.31C307.019 396.88 308.217 397.444 309.412 398.003L309.095 398.682C310.292 399.242 311.488 399.796 312.683 400.345L312.996 399.664C314.197 400.216 315.397 400.762 316.595 401.303L316.286 401.987C317.5 402.535 318.712 403.078 319.923 403.615L320.227 402.929C321.436 403.466 322.643 403.997 323.849 404.522L323.549 405.21C324.757 405.736 325.963 406.257 327.168 406.772L327.463 406.083C328.689 406.607 329.913 407.126 331.135 407.639L330.845 408.331C332.068 408.844 333.29 409.352 334.51 409.854L334.795 409.16C336.013 409.662 337.229 410.157 338.443 410.647L338.162 411.343C339.397 411.841 340.63 412.333 341.861 412.819L342.137 412.122C343.371 412.61 344.604 413.092 345.834 413.567L345.564 414.267C346.796 414.743 348.025 415.214 349.252 415.678L349.517 414.976C350.758 415.446 351.997 415.909 353.232 416.366L352.972 417.069C354.221 417.531 355.468 417.987 356.712 418.436L356.966 417.73C358.208 418.179 359.447 418.621 360.683 419.056L360.434 419.764C361.685 420.204 362.933 420.639 364.178 421.066L364.422 420.357C365.682 420.79 366.938 421.216 368.191 421.635L367.953 422.346C369.208 422.766 370.46 423.178 371.708 423.585L371.94 422.871C373.199 423.281 374.455 423.683 375.707 424.079L375.481 424.794C376.754 425.197 378.023 425.592 379.289 425.98L379.509 425.262C380.772 425.65 382.032 426.03 383.287 426.403L383.074 427.122C384.346 427.499 385.614 427.87 386.878 428.233L387.085 427.512C388.367 427.88 389.644 428.24 390.917 428.593L390.717 429.315C391.992 429.669 393.263 430.014 394.529 430.352L394.722 429.627C396.005 429.97 397.284 430.304 398.557 430.631L398.371 431.357C399.664 431.689 400.953 432.012 402.236 432.327L402.415 431.599C403.696 431.913 404.971 432.22 406.242 432.518L406.07 433.248C407.371 433.553 408.666 433.85 409.956 434.138L410.12 433.406C411.418 433.696 412.711 433.977 413.997 434.25L413.842 434.984C415.131 435.257 416.415 435.521 417.693 435.776L417.84 435.041C419.155 435.304 420.464 435.557 421.767 435.802L421.629 436.539C422.935 436.784 424.235 437.019 425.528 437.245L425.657 436.507C426.962 436.735 428.26 436.953 429.551 437.162L429.431 437.902C430.755 438.116 432.071 438.32 433.379 438.514L433.489 437.772C434.795 437.965 436.092 438.148 437.382 438.321L437.282 439.064C438.612 439.243 439.934 439.41 441.248 439.567L441.336 438.822C442.656 438.979 443.968 439.126 445.271 439.261L445.193 440.007C446.515 440.144 447.829 440.27 449.133 440.385L449.198 439.638C450.533 439.755 451.857 439.86 453.171 439.954L453.118 440.702C454.437 440.795 455.746 440.877 457.045 440.947L457.085 440.198C458.428 440.27 459.761 440.329 461.082 440.375L461.056 441.124C462.385 441.171 463.703 441.204 465.01 441.224L465.021 440.474C466.359 440.495 467.684 440.501 468.997 440.494L469.001 441.244C470.339 441.237 471.663 441.215 472.974 441.179L472.954 440.43C474.286 440.393 475.605 440.341 476.91 440.275L476.948 441.024C478.289 440.956 479.615 440.871 480.927 440.771L480.87 440.024C482.197 439.923 483.509 439.805 484.804 439.671L484.881 440.417C486.221 440.279 487.543 440.123 488.849 439.95L488.75 439.207C490.07 439.032 491.373 438.839 492.657 438.628L492.779 439.368C494.108 439.15 495.419 438.912 496.71 438.655L496.564 437.919C497.873 437.659 499.162 437.378 500.43 437.078L500.603 437.808C501.912 437.497 503.199 437.166 504.464 436.813L504.263 436.09C505.554 435.73 506.821 435.348 508.063 434.943L508.295 435.656C509.57 435.24 510.819 434.801 512.043 434.339L511.778 433.637C513.036 433.161 514.267 432.66 515.469 432.134L515.77 432.821C517 432.283 518.201 431.718 519.372 431.127L519.034 430.457C520.23 429.854 521.394 429.222 522.525 428.563L522.903 429.211C524.07 428.531 525.203 427.822 526.301 427.082L525.883 426.46C526.983 425.72 528.047 424.949 529.075 424.149L529.536 424.741C530.604 423.909 531.633 423.045 532.622 422.149L532.119 421.593C533.102 420.703 534.044 419.782 534.946 418.827L535.491 419.342C536.414 418.367 537.294 417.358 538.131 416.315L537.547 415.845C538.373 414.817 539.157 413.755 539.897 412.66L540.518 413.08C540.894 412.524 541.259 411.96 541.613 411.387Z" stroke="#FD4141" stroke-width="1.5" stroke-dasharray="4 4"/>
<path d="M537.629 97.1616C537.24 96.6126 536.841 96.0722 536.432 95.5404L535.837 95.9976C535.031 94.9494 534.187 93.9353 533.304 92.9548L533.861 92.453C532.967 91.4594 532.034 90.5001 531.063 89.575L530.546 90.1178C529.594 89.2104 528.605 88.3362 527.581 87.4949L528.057 86.9153C527.027 86.0694 525.961 85.2567 524.861 84.4768L524.427 85.0887C523.362 84.3333 522.263 83.609 521.132 82.9156L521.524 82.2762C520.391 81.5816 519.226 80.9178 518.031 80.2847L517.68 80.9474C516.528 80.3375 515.346 79.756 514.136 79.2029L514.448 78.5207C513.248 77.9724 512.021 77.4519 510.766 76.959L510.492 77.657C509.273 77.1777 508.027 76.7247 506.756 76.2977L506.995 75.5867C505.753 75.1695 504.487 74.777 503.198 74.4092L502.993 75.1305C501.726 74.769 500.437 74.4314 499.125 74.1175L499.3 73.3881C498.033 73.085 496.745 72.8039 495.438 72.5448L495.292 73.2805C494.001 73.0244 492.69 72.7899 491.359 72.5767L491.478 71.8362C490.191 71.6301 488.887 71.4439 487.565 71.2775L487.472 72.0216C486.165 71.8571 484.841 71.712 483.5 71.5862L483.57 70.8395C482.273 70.7179 480.961 70.6142 479.633 70.5285L479.585 71.2769C478.268 71.1919 476.935 71.1246 475.588 71.0749L475.616 70.3254C474.316 70.2774 473.003 70.2458 471.677 70.2304L471.668 70.9804C470.348 70.965 469.014 70.9659 467.668 70.9829L467.658 70.2329C466.357 70.2493 465.043 70.2807 463.718 70.327L463.744 71.0765C462.429 71.1224 461.103 71.1831 459.765 71.2584L459.723 70.5096C458.416 70.5832 457.097 70.6707 455.769 70.7722L455.826 71.52C454.52 71.6196 453.205 71.7328 451.879 71.8593L451.808 71.1127C450.494 71.2381 449.17 71.3766 447.837 71.5282L447.922 72.2734C446.628 72.4205 445.325 72.58 444.013 72.7518L443.916 72.0081C442.6 72.1804 441.276 72.365 439.943 72.5619L440.052 73.3039C438.766 73.4938 437.472 73.6952 436.17 73.908L436.049 73.1679C434.749 73.3804 433.441 73.6043 432.126 73.8395L432.258 74.5778C430.963 74.8093 429.66 75.0519 428.351 75.3054L428.208 74.5691C426.924 74.8176 425.634 75.0766 424.336 75.346L424.489 76.0804C423.195 76.3491 421.894 76.6283 420.587 76.9178L420.425 76.1856C419.147 76.4687 417.862 76.7617 416.572 77.0646L416.743 77.7947C415.467 78.0943 414.185 78.4036 412.897 78.7225L412.716 77.9944C411.427 78.3136 410.132 78.6425 408.832 78.9809L409.02 79.7067C407.762 80.0343 406.497 80.3708 405.228 80.7164L405.031 79.9927C403.759 80.339 402.482 80.6943 401.2 81.0586L401.405 81.78C400.135 82.1408 398.86 82.5105 397.58 82.8889L397.368 82.1697C396.114 82.5404 394.856 82.9195 393.593 83.307L393.813 84.024C392.553 84.4107 391.289 84.8058 390.02 85.2093L389.793 84.4946C388.535 84.8946 387.272 85.3027 386.006 85.7191L386.24 86.4315C384.999 86.8398 383.753 87.2558 382.504 87.6798L382.263 86.9695C381.011 87.3942 379.756 87.8267 378.497 88.267L378.744 88.9749C377.501 89.4097 376.254 89.8521 375.004 90.302L374.75 89.5963C373.517 90.0401 372.28 90.4912 371.041 90.9496L371.301 91.653C370.063 92.1107 368.823 92.5757 367.579 93.0481L367.312 92.3469C366.078 92.8157 364.84 93.2916 363.6 93.7746L363.872 94.4735C362.653 94.9483 361.431 95.43 360.206 95.9186L359.928 95.222C358.701 95.7114 357.472 96.2077 356.239 96.7108L356.523 97.4052C355.3 97.9046 354.074 98.4108 352.846 98.9238L352.557 98.2317C351.348 98.7366 350.137 99.2479 348.924 99.7658L349.218 100.456C348.006 100.973 346.792 101.496 345.576 102.027L345.276 101.339C344.06 101.869 342.841 102.406 341.621 102.949L341.926 103.634C340.731 104.166 339.535 104.703 338.337 105.247L338.027 104.564C336.827 105.108 335.626 105.659 334.422 106.216L334.737 106.896C333.535 107.452 332.331 108.014 331.125 108.583L330.805 107.904C329.618 108.464 328.429 109.03 327.238 109.601L327.562 110.277C326.378 110.846 325.192 111.42 324.004 112L323.675 111.326C322.486 111.907 321.295 112.494 320.103 113.087L320.437 113.758C319.257 114.345 318.076 114.937 316.893 115.535L316.555 114.865C315.383 115.458 314.209 116.056 313.035 116.66L313.378 117.327C312.204 117.93 311.03 118.538 309.855 119.153L309.507 118.488C308.332 119.102 307.155 119.721 305.978 120.346L306.329 121.009C305.173 121.623 304.015 122.242 302.857 122.867L302.501 122.206C301.341 122.832 300.18 123.462 299.018 124.098L299.378 124.756C298.217 125.391 297.056 126.032 295.894 126.678L295.529 126.022C294.378 126.662 293.226 127.307 292.073 127.957L292.441 128.61C291.297 129.256 290.152 129.906 289.006 130.561L288.634 129.91C287.487 130.566 286.339 131.227 285.191 131.894L285.568 132.542C284.423 133.207 283.277 133.876 282.131 134.551L281.751 133.905C280.62 134.57 279.488 135.241 278.356 135.916L278.74 136.56C277.609 137.235 276.478 137.915 275.347 138.599L274.959 137.957C273.826 138.643 272.693 139.333 271.559 140.028L271.951 140.667C270.828 141.356 269.704 142.049 268.58 142.748L268.185 142.111C267.067 142.805 265.95 143.504 264.832 144.207L265.232 144.842C264.116 145.545 262.999 146.252 261.882 146.964L261.479 146.332C260.361 147.045 259.243 147.763 258.126 148.485L258.533 149.115C257.43 149.827 256.327 150.544 255.224 151.266L254.813 150.638C253.711 151.36 252.608 152.085 251.506 152.816L251.92 153.441C250.819 154.171 249.718 154.905 248.617 155.643L248.199 155.02C247.1 155.758 246.001 156.499 244.903 157.245L245.324 157.866C244.238 158.604 243.152 159.346 242.066 160.093L241.641 159.475C240.554 160.222 239.467 160.974 238.38 161.73L238.809 162.346C237.724 163.101 236.639 163.86 235.554 164.624L235.122 164.011C234.58 164.394 234.037 164.777 233.494 165.161C232.952 165.546 232.41 165.931 231.869 166.316L232.305 166.927C231.225 167.697 230.148 168.469 229.076 169.243L228.637 168.634C227.564 169.409 226.495 170.185 225.429 170.963L225.871 171.569C224.807 172.346 223.747 173.125 222.69 173.905L222.245 173.302C221.177 174.091 220.113 174.882 219.053 175.675L219.502 176.275C218.441 177.069 217.383 177.865 216.33 178.662L215.877 178.064C214.823 178.862 213.773 179.662 212.727 180.463L213.183 181.058C212.137 181.86 211.094 182.663 210.057 183.467L209.597 182.874C208.545 183.69 207.498 184.507 206.455 185.325L206.918 185.915C205.876 186.733 204.838 187.552 203.805 188.372L203.339 187.785C202.305 188.606 201.275 189.429 200.25 190.253L200.72 190.837C199.688 191.666 198.662 192.497 197.64 193.328L197.166 192.746C196.135 193.586 195.108 194.426 194.086 195.268L194.563 195.847C193.543 196.687 192.527 197.529 191.515 198.373L191.035 197.797C190.022 198.641 189.015 199.486 188.012 200.333L188.496 200.906C187.479 201.764 186.468 202.623 185.462 203.483L184.974 202.913C183.965 203.775 182.961 204.639 181.962 205.503L182.453 206.07C181.455 206.934 180.462 207.799 179.474 208.665L178.98 208.1C177.984 208.973 176.994 209.846 176.009 210.721L176.506 211.282C175.512 212.164 174.523 213.048 173.539 213.932L173.037 213.374C172.052 214.26 171.073 215.146 170.098 216.034L170.603 216.588C169.63 217.474 168.662 218.361 167.7 219.249L167.191 218.698C166.211 219.602 165.237 220.507 164.268 221.412L164.78 221.96C163.811 222.866 162.848 223.772 161.89 224.679L161.374 224.134C160.415 225.043 159.462 225.951 158.515 226.861L159.034 227.402C158.078 228.32 157.128 229.238 156.184 230.157L155.661 229.619C154.706 230.547 153.758 231.476 152.816 232.406L153.343 232.94C152.402 233.868 151.467 234.797 150.538 235.726L150.008 235.196C149.074 236.13 148.146 237.064 147.224 237.999L147.759 238.526C146.823 239.475 145.893 240.425 144.97 241.374L144.433 240.852C143.508 241.803 142.591 242.754 141.679 243.706L142.221 244.225C141.311 245.175 140.408 246.126 139.511 247.076L138.965 246.561C138.048 247.533 137.138 248.505 136.235 249.477L136.784 249.988C135.881 250.959 134.984 251.931 134.095 252.903L133.542 252.397C132.651 253.37 131.767 254.343 130.89 255.316L131.447 255.818C130.556 256.807 129.672 257.796 128.796 258.784L128.235 258.287C127.352 259.283 126.476 260.278 125.608 261.274L126.173 261.767C125.306 262.76 124.447 263.754 123.595 264.747L123.025 264.258C122.158 265.269 121.299 266.279 120.448 267.288L121.021 267.771C120.163 268.789 119.313 269.805 118.472 270.821L117.894 270.343C117.051 271.36 116.215 272.377 115.388 273.393L115.97 273.867C115.131 274.898 114.3 275.927 113.478 276.956L112.892 276.488C112.06 277.53 111.236 278.571 110.42 279.611L111.01 280.074C110.196 281.112 109.391 282.15 108.594 283.186L108 282.729C107.187 283.786 106.384 284.841 105.59 285.896L106.189 286.347C105.388 287.41 104.596 288.472 103.813 289.533L103.21 289.088C102.426 290.151 101.651 291.212 100.886 292.272L101.494 292.711C100.713 293.793 99.9415 294.873 99.1803 295.952L98.5675 295.52C97.799 296.609 97.0406 297.696 96.2923 298.781L96.9098 299.207C96.1631 300.29 95.4266 301.371 94.7004 302.45L94.0781 302.031C93.3279 303.146 92.5885 304.259 91.8601 305.37L92.4872 305.781C91.7595 306.891 91.0428 307.998 90.3372 309.103L89.7051 308.699C88.9917 309.816 88.2896 310.931 87.599 312.043L88.2361 312.439C87.5297 313.576 86.8352 314.711 86.1528 315.843L85.5105 315.456C84.8264 316.59 84.1543 317.722 83.4945 318.851L84.1419 319.23C83.4687 320.381 82.8082 321.53 82.1605 322.675L81.5077 322.306C80.8499 323.469 80.2052 324.629 79.5739 325.785L80.2321 326.144C79.5999 327.302 78.9811 328.456 78.3757 329.607L77.712 329.257C77.0845 330.45 76.4713 331.638 75.8727 332.823L76.5421 333.161C75.9454 334.342 75.3632 335.518 74.7956 336.69L74.1206 336.363C73.5358 337.571 72.9665 338.774 72.4127 339.972L73.0935 340.286C72.5348 341.495 71.992 342.699 71.4654 343.898L70.7788 343.596C70.2427 344.816 69.7232 346.031 69.2205 347.24L69.913 347.528C69.3987 348.765 68.9019 349.996 68.423 351.221L67.7245 350.948C67.2416 352.184 66.7766 353.413 66.3298 354.635L67.0342 354.893C66.572 356.158 66.1293 357.415 65.7062 358.666L64.9958 358.426C64.5707 359.682 64.1654 360.932 63.78 362.174L64.4963 362.396C64.0968 363.683 63.7188 364.963 63.3625 366.234L62.6404 366.031C62.2813 367.312 61.9442 368.585 61.6291 369.849L62.3569 370.03C62.0312 371.337 61.7293 372.634 61.4515 373.922L60.7184 373.763C60.4374 375.066 60.1809 376.358 59.9489 377.64L60.687 377.773C60.4471 379.1 60.2338 380.414 60.0475 381.718L59.305 381.612C59.1163 382.931 58.9549 384.238 58.8211 385.534L59.5671 385.611C59.4285 386.953 59.3198 388.281 59.2411 389.596L58.4925 389.551C58.4124 390.889 58.3633 392.213 58.3454 393.523L59.0953 393.533C59.0769 394.874 59.0916 396.199 59.1397 397.509L58.3902 397.536C58.4396 398.883 58.524 400.214 58.6437 401.527L59.3906 401.459C59.5114 402.784 59.6685 404.092 59.8622 405.381L59.1206 405.492C59.3217 406.83 59.562 408.149 59.8419 409.448L60.575 409.29C60.8545 410.587 61.1738 411.864 61.5333 413.12L60.8123 413.326C61.1835 414.622 61.5973 415.897 62.054 417.149L62.7586 416.892C63.2129 418.137 63.7102 419.36 64.2509 420.559L63.5672 420.867C64.1184 422.089 64.7143 423.287 65.3552 424.461L66.0134 424.101C66.6459 425.259 67.3229 426.392 68.0447 427.5L67.4163 427.909C67.7825 428.471 68.1601 429.027 68.5492 429.576C68.9383 430.125 69.3373 430.665 69.7462 431.197L70.3407 430.74C71.1467 431.788 71.9915 432.802 72.8743 433.783L72.3169 434.284C73.2116 435.278 74.1446 436.237 75.115 437.162L75.6325 436.62C76.5844 437.527 77.5729 438.401 78.5974 439.243L78.1214 439.822C79.1514 440.668 80.2169 441.481 81.3169 442.261L81.7506 441.649C82.8161 442.404 83.9147 443.128 85.0458 443.822L84.6538 444.461C85.7869 445.156 86.9516 445.82 88.1473 446.453L88.4983 445.79C89.6502 446.4 90.8317 446.981 92.042 447.535L91.7302 448.217C92.9301 448.765 94.1575 449.286 95.4117 449.778L95.686 449.08C96.9055 449.56 98.1511 450.013 99.4222 450.44L99.1834 451.151C100.425 451.568 101.691 451.96 102.98 452.328L103.185 451.607C104.452 451.968 105.741 452.306 107.053 452.62L106.879 453.349C108.145 453.652 109.433 453.934 110.74 454.193L110.886 453.457C112.177 453.713 113.488 453.948 114.819 454.161L114.7 454.901C115.987 455.107 117.291 455.294 118.613 455.46L118.707 454.716C120.013 454.88 121.337 455.025 122.678 455.151L122.608 455.898C123.905 456.02 125.217 456.123 126.545 456.209L126.593 455.46C127.91 455.546 129.243 455.613 130.59 455.663L130.562 456.412C131.862 456.46 133.175 456.492 134.501 456.507L134.51 455.757C135.83 455.772 137.164 455.772 138.51 455.755L138.52 456.505C139.821 456.488 141.135 456.457 142.46 456.41L142.434 455.661C143.749 455.615 145.075 455.554 146.413 455.479L146.455 456.228C147.762 456.154 149.081 456.067 150.409 455.965L150.352 455.217C151.658 455.118 152.973 455.005 154.299 454.878L154.37 455.625C155.684 455.499 157.008 455.361 158.341 455.209L158.257 454.464C159.55 454.317 160.853 454.157 162.165 453.986L162.262 454.729C163.578 454.557 164.902 454.372 166.236 454.176L166.126 453.434C167.412 453.244 168.706 453.042 170.008 452.829L170.129 453.57C171.429 453.357 172.737 453.133 174.052 452.898L173.92 452.16C175.215 451.928 176.518 451.686 177.827 451.432L177.97 452.168C179.254 451.92 180.544 451.661 181.842 451.391L181.689 450.657C182.983 450.388 184.284 450.109 185.591 449.82L185.753 450.552C187.032 450.269 188.316 449.976 189.606 449.673L189.435 448.943C190.711 448.643 191.993 448.334 193.282 448.015L193.462 448.743C194.751 448.424 196.046 448.095 197.347 447.757L197.158 447.031C198.417 446.703 199.681 446.367 200.95 446.021L201.147 446.745C202.419 446.398 203.696 446.043 204.978 445.679L204.773 444.957C206.043 444.597 207.318 444.227 208.598 443.849L208.81 444.568C210.064 444.197 211.322 443.818 212.585 443.43L212.365 442.713C213.625 442.327 214.889 441.932 216.158 441.528L216.386 442.243C217.644 441.843 218.906 441.435 220.172 441.018L219.938 440.306C221.179 439.898 222.425 439.482 223.674 439.058L223.915 439.768C225.167 439.343 226.422 438.911 227.681 438.47L227.434 437.763C228.677 437.328 229.924 436.885 231.174 436.435L231.428 437.141C232.661 436.697 233.898 436.246 235.137 435.788L234.877 435.084C236.115 434.627 237.355 434.162 238.599 433.689L238.866 434.39C240.1 433.922 241.338 433.446 242.578 432.963L242.306 432.264C243.525 431.789 244.747 431.307 245.972 430.819L246.25 431.515C247.477 431.026 248.706 430.53 249.939 430.027L249.655 429.332C250.878 428.833 252.104 428.327 253.332 427.814L253.621 428.506C254.83 428.001 256.041 427.49 257.254 426.972L256.96 426.282C258.172 425.765 259.386 425.241 260.602 424.711L260.902 425.398C262.118 424.868 263.337 424.331 264.557 423.788L264.253 423.103C265.447 422.572 266.643 422.034 267.841 421.491L268.151 422.174C269.351 421.629 270.553 421.079 271.756 420.522L271.441 419.841C272.643 419.285 273.847 418.723 275.053 418.155L275.373 418.833C276.56 418.274 277.75 417.708 278.94 417.136L278.616 416.46C279.8 415.892 280.986 415.317 282.174 414.737L282.503 415.411C283.692 414.83 284.883 414.243 286.075 413.651L285.741 412.979C286.921 412.393 288.102 411.801 289.285 411.203L289.623 411.872C290.795 411.279 291.969 410.681 293.143 410.078L292.801 409.41C293.974 408.808 295.148 408.199 296.324 407.585L296.671 408.25C297.846 407.636 299.023 407.016 300.2 406.391L299.849 405.729C301.005 405.115 302.163 404.495 303.322 403.871L303.677 404.531C304.837 403.906 305.999 403.275 307.16 402.639L306.8 401.981C307.961 401.346 309.122 400.706 310.285 400.06L310.649 400.715C311.8 400.076 312.953 399.431 314.106 398.78L313.737 398.127C314.881 397.482 316.026 396.832 317.172 396.176L317.544 396.827C318.691 396.171 319.839 395.51 320.987 394.844L320.61 394.195C321.755 393.531 322.901 392.861 324.047 392.187L324.427 392.833C325.559 392.167 326.69 391.497 327.822 390.821L327.438 390.177C328.569 389.502 329.7 388.823 330.831 388.138L331.219 388.78C332.352 388.095 333.485 387.405 334.619 386.71L334.227 386.07C335.35 385.382 336.474 384.688 337.598 383.99L337.993 384.627C339.111 383.933 340.228 383.234 341.346 382.53L340.946 381.895C342.063 381.193 343.179 380.485 344.296 379.773L344.699 380.405C345.817 379.692 346.935 378.975 348.053 378.253L347.646 377.623C348.748 376.91 349.851 376.193 350.954 375.472L351.365 376.099C352.467 375.378 353.57 374.652 354.672 373.922L354.258 373.296C355.359 372.567 356.46 371.833 357.561 371.094L357.979 371.717C359.078 370.98 360.177 370.238 361.275 369.492L360.854 368.872C361.94 368.134 363.026 367.391 364.112 366.645L364.537 367.263C365.624 366.515 366.711 365.764 367.798 365.007L367.369 364.392C368.455 363.637 369.539 362.877 370.624 362.113L371.056 362.726C371.599 362.344 372.141 361.96 372.684 361.576C373.226 361.191 373.768 360.806 374.309 360.421L373.873 359.81C374.953 359.04 376.03 358.268 377.102 357.495L377.541 358.103C378.614 357.329 379.684 356.552 380.749 355.774L380.307 355.169C381.371 354.391 382.431 353.613 383.488 352.832L383.933 353.435C385.001 352.646 386.065 351.855 387.125 351.063L386.676 350.462C387.737 349.668 388.795 348.873 389.848 348.075L390.301 348.673C391.355 347.875 392.405 347.076 393.451 346.275L392.995 345.679C394.042 344.878 395.084 344.075 396.121 343.27L396.581 343.863C397.633 343.048 398.68 342.231 399.723 341.412L399.26 340.822C400.302 340.005 401.34 339.186 402.373 338.365L402.839 338.953C403.873 338.131 404.903 337.309 405.928 336.485L405.458 335.9C406.49 335.071 407.516 334.241 408.538 333.409L409.012 333.991C410.043 333.152 411.07 332.311 412.092 331.47L411.615 330.891C412.636 330.05 413.652 329.208 414.663 328.365L415.143 328.941C416.156 328.097 417.163 327.251 418.166 326.405L417.683 325.832C418.699 324.974 419.71 324.115 420.716 323.255L421.204 323.825C422.213 322.962 423.217 322.099 424.216 321.234L423.725 320.667C424.723 319.803 425.716 318.939 426.704 318.073L427.198 318.637C428.194 317.765 429.184 316.891 430.17 316.017L429.672 315.456C430.666 314.573 431.655 313.69 432.639 312.805L433.141 313.363C434.126 312.478 435.105 311.591 436.08 310.704L435.575 310.149C436.548 309.263 437.516 308.376 438.479 307.488L438.987 308.04C439.967 307.136 440.941 306.231 441.91 305.325L441.398 304.777C442.367 303.872 443.33 302.966 444.288 302.059L444.804 302.603C445.763 301.695 446.716 300.786 447.663 299.877L447.144 299.336C448.1 298.418 449.05 297.5 449.994 296.581L450.517 297.118C451.472 296.19 452.42 295.261 453.362 294.332L452.835 293.798C453.776 292.869 454.711 291.941 455.64 291.012L456.171 291.542C457.104 290.608 458.032 289.673 458.954 288.738L458.42 288.212C459.355 287.262 460.285 286.313 461.208 285.363L461.746 285.886C462.67 284.934 463.588 283.983 464.499 283.031L463.957 282.513C464.867 281.562 465.771 280.612 466.668 279.661L467.213 280.176C468.13 279.204 469.04 278.232 469.943 277.261L469.394 276.75C470.297 275.778 471.194 274.806 472.083 273.834L472.637 274.341C473.527 273.367 474.411 272.394 475.288 271.421L474.731 270.919C475.622 269.93 476.506 268.941 477.382 267.953L477.943 268.451C478.826 267.455 479.702 266.459 480.57 265.464L480.005 264.971C480.872 263.977 481.732 262.984 482.584 261.991L483.153 262.479C484.02 261.469 484.879 260.459 485.73 259.45L485.157 258.966C486.015 257.949 486.865 256.932 487.707 255.916L488.284 256.395C489.127 255.377 489.963 254.36 490.79 253.344L490.208 252.871C491.047 251.84 491.878 250.81 492.7 249.781L493.286 250.249C494.119 249.207 494.943 248.166 495.758 247.126L495.168 246.663C495.982 245.625 496.787 244.588 497.584 243.551L498.178 244.009C498.991 242.952 499.794 241.896 500.588 240.842L499.989 240.391C500.791 239.327 501.582 238.265 502.365 237.204L502.968 237.649C503.752 236.587 504.527 235.525 505.292 234.465L504.684 234.026C505.465 232.944 506.237 231.864 506.998 230.785L507.611 231.218C508.379 230.129 509.138 229.042 509.886 227.956L509.268 227.531C510.015 226.448 510.751 225.366 511.478 224.287L512.1 224.706C512.85 223.591 513.59 222.478 514.318 221.368L513.691 220.956C514.419 219.847 515.135 218.739 515.841 217.634L516.473 218.038C517.186 216.921 517.888 215.806 518.579 214.694L517.942 214.299C518.648 213.161 519.343 212.026 520.025 210.895L520.668 211.282C521.352 210.147 522.024 209.015 522.684 207.886L522.036 207.508C522.709 206.356 523.37 205.208 524.018 204.062L524.67 204.431C525.328 203.268 525.973 202.109 526.604 200.952L525.946 200.593C526.578 199.435 527.197 198.281 527.802 197.131L528.466 197.48C529.094 196.288 529.707 195.099 530.305 193.915L529.636 193.576C530.233 192.396 530.815 191.219 531.382 190.048L532.057 190.374C532.642 189.167 533.212 187.964 533.765 186.766L533.085 186.451C533.643 185.242 534.186 184.038 534.713 182.84L535.399 183.141C535.935 181.921 536.455 180.707 536.958 179.497L536.265 179.209C536.779 177.972 537.276 176.741 537.755 175.516L538.454 175.789C538.937 174.554 539.401 173.325 539.848 172.102L539.144 171.845C539.606 170.58 540.049 169.322 540.472 168.071L541.182 168.312C541.607 167.055 542.013 165.806 542.398 164.564L541.682 164.341C542.081 163.054 542.459 161.775 542.816 160.504L543.538 160.706C543.897 159.425 544.234 158.153 544.549 156.889L543.821 156.707C544.147 155.4 544.449 154.103 544.727 152.816L545.46 152.974C545.741 151.672 545.997 150.38 546.229 149.097L545.491 148.964C545.731 147.638 545.944 146.323 546.131 145.02L546.873 145.126C547.062 143.807 547.223 142.499 547.357 141.203L546.611 141.126C546.75 139.785 546.858 138.456 546.937 137.142L547.686 137.186C547.766 135.849 547.815 134.524 547.833 133.214L547.083 133.204C547.101 131.863 547.086 130.538 547.038 129.229L547.788 129.201C547.738 127.854 547.654 126.524 547.534 125.21L546.788 125.278C546.667 123.953 546.51 122.646 546.316 121.357L547.058 121.245C546.856 119.907 546.616 118.588 546.336 117.289L545.603 117.447C545.324 116.15 545.004 114.873 544.645 113.618L545.366 113.411C544.995 112.115 544.581 110.841 544.124 109.588L543.419 109.845C542.965 108.6 542.468 107.378 541.927 106.179L542.611 105.871C542.06 104.648 541.464 103.45 540.823 102.277L540.165 102.636C539.532 101.478 538.855 100.345 538.133 99.2376L538.762 98.8282C538.396 98.2662 538.018 97.7106 537.629 97.1616Z" stroke="#27D939" stroke-width="1.5" stroke-dasharray="4 4"/>
</svg>
