<svg width="50" height="50" viewBox="0 0 50 50" fill="none" xmlns="http://www.w3.org/2000/svg">
<rect x="0.5" y="0.5" width="49" height="49" rx="24.5" fill="#1D1E2D"/>
<rect x="0.5" y="0.5" width="49" height="49" rx="24.5" stroke="url(#paint0_linear_106_200)"/>
<path fill-rule="evenodd" clip-rule="evenodd" d="M29.6893 18.9056L32.5112 16.3972C32.3792 16.114 32.3055 15.7982 32.3055 15.4652C32.3055 14.2455 33.2943 13.2567 34.514 13.2567C35.7338 13.2567 36.7226 14.2455 36.7226 15.4652C36.7226 16.6849 35.7338 17.6737 34.514 17.6737C34.1045 17.6737 33.7211 17.5623 33.3923 17.3681L30.4113 20.0179C30.4633 20.2058 30.491 20.4038 30.491 20.6083C30.491 21.828 29.5023 22.8168 28.2825 22.8168C27.0628 22.8168 26.074 21.828 26.074 20.6083C26.074 20.5125 26.0801 20.4182 26.0919 20.3256L23.6669 19.1796C23.2637 19.6121 22.689 19.8826 22.051 19.8826C21.3426 19.8826 20.7121 19.5491 20.308 19.0305L17.97 20.3561C17.8664 19.9135 17.6297 19.5221 17.3044 19.2264L19.8453 17.7858C19.8434 17.7488 19.8425 17.7116 19.8425 17.6741C19.8425 16.4544 20.8313 15.4656 22.051 15.4656C23.2708 15.4656 24.2595 16.4544 24.2595 17.6741C24.2595 17.7843 24.2515 17.8926 24.2359 17.9985L26.6382 19.1338C27.0426 18.6832 27.6295 18.3997 28.2825 18.3997C28.817 18.3997 29.3072 18.5896 29.6893 18.9056ZM22.9485 17.6741C22.9485 18.1698 22.5467 18.5716 22.051 18.5716C21.5553 18.5716 21.1535 18.1698 21.1535 17.6741C21.1535 17.1784 21.5553 16.7766 22.051 16.7766C22.5467 16.7766 22.9485 17.1784 22.9485 17.6741ZM28.2825 21.5058C28.7782 21.5058 29.1801 21.104 29.1801 20.6083C29.1801 20.1126 28.7782 19.7107 28.2825 19.7107C27.7868 19.7107 27.385 20.1126 27.385 20.6083C27.385 21.104 27.7868 21.5058 28.2825 21.5058ZM35.4116 15.4652C35.4116 15.9609 35.0097 16.3627 34.514 16.3627C34.0183 16.3627 33.6165 15.9609 33.6165 15.4652C33.6165 14.9695 34.0183 14.5677 34.514 14.5677C35.0097 14.5677 35.4116 14.9695 35.4116 15.4652Z" fill="white"/>
<path fill-rule="evenodd" clip-rule="evenodd" d="M15.8195 23.0699C17.0393 23.0699 18.028 22.0811 18.028 20.8613C18.028 19.6416 17.0393 18.6528 15.8195 18.6528C14.5998 18.6528 13.611 19.6416 13.611 20.8613C13.611 22.0811 14.5998 23.0699 15.8195 23.0699ZM15.8195 21.7589C16.3152 21.7589 16.717 21.357 16.717 20.8613C16.717 20.3656 16.3152 19.9638 15.8195 19.9638C15.3238 19.9638 14.922 20.3656 14.922 20.8613C14.922 21.357 15.3238 21.7589 15.8195 21.7589Z" fill="white"/>
<path d="M15.8092 25.0644C16.1712 25.0644 16.4647 25.3579 16.4647 25.7199V28.4181C16.4647 28.7801 16.1712 29.0736 15.8092 29.0736C15.4471 29.0736 15.1537 28.7801 15.1537 28.4181V25.7199C15.1537 25.3579 15.4471 25.0644 15.8092 25.0644Z" fill="white"/>
<path d="M28.9422 25.7199C28.9422 25.3579 28.6487 25.0644 28.2867 25.0644C27.9246 25.0644 27.6312 25.3579 27.6312 25.7199V28.4181C27.6312 28.7801 27.9246 29.0736 28.2867 29.0736C28.6487 29.0736 28.9422 28.7801 28.9422 28.4181V25.7199Z" fill="white"/>
<path d="M34.5247 19.6782C34.8867 19.6782 35.1802 19.9717 35.1802 20.3337V28.4181C35.1802 28.7801 34.8867 29.0736 34.5247 29.0736C34.1627 29.0736 33.8692 28.7801 33.8692 28.4181V20.3337C33.8692 19.9717 34.1627 19.6782 34.5247 19.6782Z" fill="white"/>
<path d="M22.7036 23.0698C22.7036 22.7078 22.4101 22.4144 22.0481 22.4144C21.686 22.4144 21.3926 22.7078 21.3926 23.0698V28.4182C21.3926 28.7803 21.686 29.0737 22.0481 29.0737C22.4101 29.0737 22.7036 28.7803 22.7036 28.4182V23.0698Z" fill="white"/>
<path fill-rule="evenodd" clip-rule="evenodd" d="M10 12.748C10 11.7826 10.7826 11 11.748 11H38.5866C39.552 11 40.3346 11.7826 40.3346 12.748V31.0369C40.3346 32.0022 39.552 32.7849 38.5866 32.7849H25.8226V37.409H31.1546C31.5166 37.409 31.8101 37.7025 31.8101 38.0645C31.8101 38.4265 31.5166 38.72 31.1546 38.72H25.1714L25.1672 38.72L25.1629 38.72H19.1793C18.8173 38.72 18.5238 38.4265 18.5238 38.0645C18.5238 37.7025 18.8173 37.409 19.1793 37.409H24.5117V32.7849L11.748 32.7849C10.7826 32.7849 10 32.0022 10 31.0369V12.748ZM11.748 12.311H38.5866C38.8279 12.311 39.0236 12.5066 39.0236 12.748V31.0369C39.0236 31.2782 38.8279 31.4739 38.5866 31.4739H11.748C11.5066 31.4739 11.311 31.2782 11.311 31.0369V12.748C11.311 12.5066 11.5066 12.311 11.748 12.311Z" fill="white"/>
<defs>
<linearGradient id="paint0_linear_106_200" x1="25" y1="0" x2="25" y2="50" gradientUnits="userSpaceOnUse">
<stop stop-color="#54567C"/>
<stop offset="0.473958" stop-color="#54567C" stop-opacity="0"/>
<stop offset="0.9375" stop-color="#282B60"/>
</linearGradient>
</defs>
</svg>
