<svg width="167" height="30" viewBox="0 0 167 30" fill="none" xmlns="http://www.w3.org/2000/svg">
<g filter="url(#filter0_b_20_96)">
<rect width="167" height="30" rx="15" fill="#D8EAFF"/>
<rect x="0.5" y="0.5" width="166" height="29" rx="14.5" stroke="#157BF6"/>
</g>
<circle cx="16.5" cy="15" r="3.5" fill="#157BF6"/>
<path d="M33.0203 20V11.06H34.5803L37.9283 15.608H37.1843L40.4603 11.06H42.0203V20H40.3763V12.92L41.0123 13.076L37.6163 17.6H37.4243L34.1123 13.076L34.6523 12.92V20H33.0203ZM46.7912 20.144C46.1512 20.144 45.5672 19.996 45.0392 19.7C44.5192 19.404 44.1032 19 43.7912 18.488C43.4872 17.976 43.3352 17.392 43.3352 16.736C43.3352 16.08 43.4872 15.496 43.7912 14.984C44.1032 14.472 44.5192 14.068 45.0392 13.772C45.5592 13.476 46.1432 13.328 46.7912 13.328C47.4312 13.328 48.0112 13.476 48.5312 13.772C49.0512 14.068 49.4632 14.472 49.7672 14.984C50.0792 15.488 50.2352 16.072 50.2352 16.736C50.2352 17.392 50.0792 17.976 49.7672 18.488C49.4552 19 49.0392 19.404 48.5192 19.7C47.9992 19.996 47.4232 20.144 46.7912 20.144ZM46.7912 18.704C47.1432 18.704 47.4512 18.62 47.7152 18.452C47.9872 18.284 48.1992 18.052 48.3512 17.756C48.5112 17.452 48.5912 17.112 48.5912 16.736C48.5912 16.352 48.5112 16.016 48.3512 15.728C48.1992 15.432 47.9872 15.2 47.7152 15.032C47.4512 14.856 47.1432 14.768 46.7912 14.768C46.4312 14.768 46.1152 14.856 45.8432 15.032C45.5712 15.2 45.3552 15.432 45.1952 15.728C45.0432 16.016 44.9672 16.352 44.9672 16.736C44.9672 17.112 45.0432 17.452 45.1952 17.756C45.3552 18.052 45.5712 18.284 45.8432 18.452C46.1152 18.62 46.4312 18.704 46.7912 18.704ZM54.9913 20.144C54.5193 20.144 54.0833 20.052 53.6833 19.868C53.2913 19.676 52.9793 19.404 52.7473 19.052L52.9033 18.74V20H51.4273V10.916H52.9993V14.768L52.7593 14.444C52.9833 14.092 53.2873 13.82 53.6713 13.628C54.0553 13.428 54.4993 13.328 55.0033 13.328C55.6193 13.328 56.1753 13.48 56.6713 13.784C57.1673 14.088 57.5593 14.496 57.8473 15.008C58.1433 15.52 58.2913 16.096 58.2913 16.736C58.2913 17.368 58.1473 17.944 57.8593 18.464C57.5713 18.984 57.1793 19.396 56.6833 19.7C56.1873 19.996 55.6233 20.144 54.9913 20.144ZM54.8113 18.704C55.1713 18.704 55.4913 18.62 55.7713 18.452C56.0513 18.284 56.2673 18.052 56.4193 17.756C56.5793 17.46 56.6593 17.12 56.6593 16.736C56.6593 16.352 56.5793 16.016 56.4193 15.728C56.2673 15.432 56.0513 15.2 55.7713 15.032C55.4913 14.856 55.1713 14.768 54.8113 14.768C54.4673 14.768 54.1553 14.852 53.8753 15.02C53.6033 15.188 53.3873 15.424 53.2273 15.728C53.0753 16.024 52.9993 16.36 52.9993 16.736C52.9993 17.12 53.0753 17.46 53.2273 17.756C53.3873 18.052 53.6033 18.284 53.8753 18.452C54.1553 18.62 54.4673 18.704 54.8113 18.704ZM59.4898 20V13.472H61.0618V20H59.4898ZM59.4898 12.74V11.06H61.0618V12.74H59.4898ZM62.5133 20V10.916H64.0853V20H62.5133ZM68.6327 20.144C67.9607 20.144 67.3727 19.992 66.8687 19.688C66.3647 19.384 65.9727 18.972 65.6927 18.452C65.4127 17.932 65.2727 17.356 65.2727 16.724C65.2727 16.068 65.4127 15.488 65.6927 14.984C65.9807 14.472 66.3687 14.068 66.8567 13.772C67.3527 13.476 67.9047 13.328 68.5127 13.328C69.0247 13.328 69.4727 13.412 69.8567 13.58C70.2487 13.748 70.5807 13.98 70.8527 14.276C71.1247 14.572 71.3327 14.912 71.4767 15.296C71.6207 15.672 71.6927 16.08 71.6927 16.52C71.6927 16.632 71.6847 16.748 71.6687 16.868C71.6607 16.988 71.6407 17.092 71.6087 17.18H66.5687V15.98H70.7207L69.9767 16.544C70.0487 16.176 70.0287 15.848 69.9167 15.56C69.8127 15.272 69.6367 15.044 69.3887 14.876C69.1487 14.708 68.8567 14.624 68.5127 14.624C68.1847 14.624 67.8927 14.708 67.6367 14.876C67.3807 15.036 67.1847 15.276 67.0487 15.596C66.9207 15.908 66.8727 16.288 66.9047 16.736C66.8727 17.136 66.9247 17.492 67.0607 17.804C67.2047 18.108 67.4127 18.344 67.6847 18.512C67.9647 18.68 68.2847 18.764 68.6447 18.764C69.0047 18.764 69.3087 18.688 69.5567 18.536C69.8127 18.384 70.0127 18.18 70.1567 17.924L71.4287 18.548C71.3007 18.86 71.1007 19.136 70.8287 19.376C70.5567 19.616 70.2327 19.804 69.8567 19.94C69.4887 20.076 69.0807 20.144 68.6327 20.144ZM75.1492 20V11.06H78.0652C79.0092 11.06 79.8292 11.252 80.5252 11.636C81.2292 12.012 81.7732 12.536 82.1572 13.208C82.5412 13.872 82.7332 14.644 82.7332 15.524C82.7332 16.396 82.5412 17.172 82.1572 17.852C81.7732 18.524 81.2292 19.052 80.5252 19.436C79.8292 19.812 79.0092 20 78.0652 20H75.1492ZM76.7812 18.56H78.1012C78.7092 18.56 79.2332 18.436 79.6732 18.188C80.1212 17.932 80.4692 17.58 80.7172 17.132C80.9652 16.676 81.0892 16.14 81.0892 15.524C81.0892 14.9 80.9652 14.364 80.7172 13.916C80.4692 13.468 80.1212 13.12 79.6732 12.872C79.2332 12.624 78.7092 12.5 78.1012 12.5H76.7812V18.56ZM86.996 20.144C86.324 20.144 85.736 19.992 85.232 19.688C84.728 19.384 84.336 18.972 84.056 18.452C83.776 17.932 83.636 17.356 83.636 16.724C83.636 16.068 83.776 15.488 84.056 14.984C84.344 14.472 84.732 14.068 85.22 13.772C85.716 13.476 86.268 13.328 86.876 13.328C87.388 13.328 87.836 13.412 88.22 13.58C88.612 13.748 88.944 13.98 89.216 14.276C89.488 14.572 89.696 14.912 89.84 15.296C89.984 15.672 90.056 16.08 90.056 16.52C90.056 16.632 90.048 16.748 90.032 16.868C90.024 16.988 90.004 17.092 89.972 17.18H84.932V15.98H89.084L88.34 16.544C88.412 16.176 88.392 15.848 88.28 15.56C88.176 15.272 88 15.044 87.752 14.876C87.512 14.708 87.22 14.624 86.876 14.624C86.548 14.624 86.256 14.708 86 14.876C85.744 15.036 85.548 15.276 85.412 15.596C85.284 15.908 85.236 16.288 85.268 16.736C85.236 17.136 85.288 17.492 85.424 17.804C85.568 18.108 85.776 18.344 86.048 18.512C86.328 18.68 86.648 18.764 87.008 18.764C87.368 18.764 87.672 18.688 87.92 18.536C88.176 18.384 88.376 18.18 88.52 17.924L89.792 18.548C89.664 18.86 89.464 19.136 89.192 19.376C88.92 19.616 88.596 19.804 88.22 19.94C87.852 20.076 87.444 20.144 86.996 20.144ZM93.0984 20L90.5304 13.472H92.2464L94.1064 18.608H93.4704L95.3424 13.472H97.0584L94.4904 20H93.0984ZM100.906 20.144C100.234 20.144 99.6461 19.992 99.1421 19.688C98.6381 19.384 98.2461 18.972 97.9661 18.452C97.6861 17.932 97.5461 17.356 97.5461 16.724C97.5461 16.068 97.6861 15.488 97.9661 14.984C98.2541 14.472 98.6421 14.068 99.1301 13.772C99.6261 13.476 100.178 13.328 100.786 13.328C101.298 13.328 101.746 13.412 102.13 13.58C102.522 13.748 102.854 13.98 103.126 14.276C103.398 14.572 103.606 14.912 103.75 15.296C103.894 15.672 103.966 16.08 103.966 16.52C103.966 16.632 103.958 16.748 103.942 16.868C103.934 16.988 103.914 17.092 103.882 17.18H98.8421V15.98H102.994L102.25 16.544C102.322 16.176 102.302 15.848 102.19 15.56C102.086 15.272 101.91 15.044 101.662 14.876C101.422 14.708 101.13 14.624 100.786 14.624C100.458 14.624 100.166 14.708 99.9101 14.876C99.6541 15.036 99.4581 15.276 99.3221 15.596C99.1941 15.908 99.1461 16.288 99.1781 16.736C99.1461 17.136 99.1981 17.492 99.3341 17.804C99.4781 18.108 99.6861 18.344 99.9581 18.512C100.238 18.68 100.558 18.764 100.918 18.764C101.278 18.764 101.582 18.688 101.83 18.536C102.086 18.384 102.286 18.18 102.43 17.924L103.702 18.548C103.574 18.86 103.374 19.136 103.102 19.376C102.83 19.616 102.506 19.804 102.13 19.94C101.762 20.076 101.354 20.144 100.906 20.144ZM105.158 20V10.916H106.73V20H105.158ZM111.373 20.144C110.733 20.144 110.149 19.996 109.621 19.7C109.101 19.404 108.685 19 108.373 18.488C108.069 17.976 107.917 17.392 107.917 16.736C107.917 16.08 108.069 15.496 108.373 14.984C108.685 14.472 109.101 14.068 109.621 13.772C110.141 13.476 110.725 13.328 111.373 13.328C112.013 13.328 112.593 13.476 113.113 13.772C113.633 14.068 114.045 14.472 114.349 14.984C114.661 15.488 114.817 16.072 114.817 16.736C114.817 17.392 114.661 17.976 114.349 18.488C114.037 19 113.621 19.404 113.101 19.7C112.581 19.996 112.005 20.144 111.373 20.144ZM111.373 18.704C111.725 18.704 112.033 18.62 112.297 18.452C112.569 18.284 112.781 18.052 112.933 17.756C113.093 17.452 113.173 17.112 113.173 16.736C113.173 16.352 113.093 16.016 112.933 15.728C112.781 15.432 112.569 15.2 112.297 15.032C112.033 14.856 111.725 14.768 111.373 14.768C111.013 14.768 110.697 14.856 110.425 15.032C110.153 15.2 109.937 15.432 109.777 15.728C109.625 16.016 109.549 16.352 109.549 16.736C109.549 17.112 109.625 17.452 109.777 17.756C109.937 18.052 110.153 18.284 110.425 18.452C110.697 18.62 111.013 18.704 111.373 18.704ZM116.009 22.4V13.472H117.485V14.768L117.341 14.444C117.565 14.092 117.869 13.82 118.253 13.628C118.637 13.428 119.081 13.328 119.585 13.328C120.201 13.328 120.757 13.48 121.253 13.784C121.749 14.088 122.141 14.496 122.429 15.008C122.725 15.52 122.873 16.096 122.873 16.736C122.873 17.368 122.729 17.944 122.441 18.464C122.153 18.984 121.761 19.396 121.265 19.7C120.769 19.996 120.205 20.144 119.573 20.144C119.101 20.144 118.665 20.052 118.265 19.868C117.873 19.676 117.561 19.404 117.329 19.052L117.581 18.74V22.4H116.009ZM119.393 18.704C119.753 18.704 120.073 18.62 120.353 18.452C120.633 18.284 120.849 18.052 121.001 17.756C121.161 17.46 121.241 17.12 121.241 16.736C121.241 16.352 121.161 16.016 121.001 15.728C120.849 15.432 120.633 15.2 120.353 15.032C120.073 14.856 119.753 14.768 119.393 14.768C119.049 14.768 118.737 14.852 118.457 15.02C118.185 15.188 117.969 15.424 117.809 15.728C117.657 16.024 117.581 16.36 117.581 16.736C117.581 17.12 117.657 17.46 117.809 17.756C117.969 18.052 118.185 18.284 118.457 18.452C118.737 18.62 119.049 18.704 119.393 18.704ZM124.072 20V13.472H125.548V14.984L125.38 14.732C125.5 14.26 125.74 13.908 126.1 13.676C126.46 13.444 126.884 13.328 127.372 13.328C127.908 13.328 128.38 13.468 128.788 13.748C129.196 14.028 129.46 14.396 129.58 14.852L129.136 14.888C129.336 14.368 129.636 13.98 130.036 13.724C130.436 13.46 130.896 13.328 131.416 13.328C131.88 13.328 132.292 13.432 132.652 13.64C133.02 13.848 133.308 14.14 133.516 14.516C133.724 14.884 133.828 15.312 133.828 15.8V20H132.256V16.172C132.256 15.884 132.204 15.636 132.1 15.428C131.996 15.22 131.852 15.06 131.668 14.948C131.484 14.828 131.26 14.768 130.996 14.768C130.748 14.768 130.528 14.828 130.336 14.948C130.144 15.06 129.996 15.22 129.892 15.428C129.788 15.636 129.736 15.884 129.736 16.172V20H128.164V16.172C128.164 15.884 128.112 15.636 128.008 15.428C127.904 15.22 127.756 15.06 127.564 14.948C127.38 14.828 127.16 14.768 126.904 14.768C126.656 14.768 126.436 14.828 126.244 14.948C126.052 15.06 125.904 15.22 125.8 15.428C125.696 15.636 125.644 15.884 125.644 16.172V20H124.072ZM138.254 20.144C137.582 20.144 136.994 19.992 136.49 19.688C135.986 19.384 135.594 18.972 135.314 18.452C135.034 17.932 134.894 17.356 134.894 16.724C134.894 16.068 135.034 15.488 135.314 14.984C135.602 14.472 135.99 14.068 136.478 13.772C136.974 13.476 137.526 13.328 138.134 13.328C138.646 13.328 139.094 13.412 139.478 13.58C139.87 13.748 140.202 13.98 140.474 14.276C140.746 14.572 140.954 14.912 141.098 15.296C141.242 15.672 141.314 16.08 141.314 16.52C141.314 16.632 141.306 16.748 141.29 16.868C141.282 16.988 141.262 17.092 141.23 17.18H136.19V15.98H140.342L139.598 16.544C139.67 16.176 139.65 15.848 139.538 15.56C139.434 15.272 139.258 15.044 139.01 14.876C138.77 14.708 138.478 14.624 138.134 14.624C137.806 14.624 137.514 14.708 137.258 14.876C137.002 15.036 136.806 15.276 136.67 15.596C136.542 15.908 136.494 16.288 136.526 16.736C136.494 17.136 136.546 17.492 136.682 17.804C136.826 18.108 137.034 18.344 137.306 18.512C137.586 18.68 137.906 18.764 138.266 18.764C138.626 18.764 138.93 18.688 139.178 18.536C139.434 18.384 139.634 18.18 139.778 17.924L141.05 18.548C140.922 18.86 140.722 19.136 140.45 19.376C140.178 19.616 139.854 19.804 139.478 19.94C139.11 20.076 138.702 20.144 138.254 20.144ZM142.505 20V13.472H143.981V14.756L143.861 14.528C144.013 14.136 144.261 13.84 144.605 13.64C144.957 13.432 145.365 13.328 145.829 13.328C146.309 13.328 146.733 13.432 147.101 13.64C147.477 13.848 147.769 14.14 147.977 14.516C148.185 14.884 148.289 15.312 148.289 15.8V20H146.717V16.172C146.717 15.884 146.661 15.636 146.549 15.428C146.437 15.22 146.281 15.06 146.081 14.948C145.889 14.828 145.661 14.768 145.397 14.768C145.141 14.768 144.913 14.828 144.713 14.948C144.513 15.06 144.357 15.22 144.245 15.428C144.133 15.636 144.077 15.884 144.077 16.172V20H142.505ZM152.595 20.072C151.859 20.072 151.287 19.872 150.879 19.472C150.479 19.064 150.279 18.492 150.279 17.756V14.876H149.151V13.472H149.271C149.591 13.472 149.839 13.388 150.015 13.22C150.191 13.052 150.279 12.808 150.279 12.488V11.984H151.851V13.472H153.351V14.876H151.851V17.672C151.851 17.888 151.887 18.072 151.959 18.224C152.039 18.376 152.159 18.492 152.319 18.572C152.487 18.652 152.699 18.692 152.955 18.692C153.011 18.692 153.075 18.688 153.147 18.68C153.227 18.672 153.303 18.664 153.375 18.656V20C153.263 20.016 153.135 20.032 152.991 20.048C152.847 20.064 152.715 20.072 152.595 20.072Z" fill="#18181B"/>
<defs>
<filter id="filter0_b_20_96" x="-14" y="-14" width="195" height="58" filterUnits="userSpaceOnUse" color-interpolation-filters="sRGB">
<feFlood flood-opacity="0" result="BackgroundImageFix"/>
<feGaussianBlur in="BackgroundImageFix" stdDeviation="7"/>
<feComposite in2="SourceAlpha" operator="in" result="effect1_backgroundBlur_20_96"/>
<feBlend mode="normal" in="SourceGraphic" in2="effect1_backgroundBlur_20_96" result="shape"/>
</filter>
</defs>
</svg>
