<svg width="84" height="84" viewBox="0 0 84 84" fill="none" xmlns="http://www.w3.org/2000/svg">
<circle cx="42" cy="42" r="42" fill="white"/>
<circle cx="42" cy="42" r="40" fill="#439B0E"/>
<path d="M56.0533 24C55.989 23.9993 55.9257 24.0156 55.8696 24.0471C55.8112 24.0814 55.7626 24.13 55.7282 24.1884C55.6939 24.2467 55.675 24.3129 55.6733 24.3806V34.2892C55.6723 34.338 55.6592 34.3858 55.635 34.4282C55.6109 34.4706 55.5766 34.5063 55.5351 34.5321C55.4933 34.5546 55.4465 34.5663 55.399 34.5663C55.3516 34.5663 55.3048 34.5546 55.2629 34.5321L53.6581 33.6041C53.5403 33.5368 53.4069 33.5014 53.2713 33.5014C53.1356 33.5014 53.0023 33.5368 52.8844 33.6041L46.4629 37.3383C46.3439 37.4052 46.2447 37.5025 46.1754 37.6201C46.1061 37.7378 46.0691 37.8717 46.0682 38.0083V45.461C46.0682 45.7352 46.2206 45.9954 46.4629 46.1325L52.8855 49.8673C53.0032 49.9344 53.1363 49.9696 53.2718 49.9696C53.4073 49.9696 53.5404 49.9344 53.6581 49.8673L60.0807 46.1325C60.323 45.9954 60.4753 45.7352 60.4753 45.461V26.881C60.4753 26.5916 60.323 26.3314 60.0807 26.1953L56.2491 24.0471C56.1884 24.0165 56.1214 24.0004 56.0533 24ZM18.1638 33.2994C18.0434 33.2994 17.9225 33.3444 17.8168 33.4041L11.3942 37.1252C11.2735 37.1939 11.1733 37.2936 11.104 37.4139C11.0347 37.5343 10.9988 37.671 11 37.8099L11.0157 47.8081C11.0157 47.9457 11.0901 48.0834 11.2115 48.1446C11.2679 48.1817 11.3338 48.2014 11.4012 48.2014C11.4687 48.2014 11.5346 48.1817 11.591 48.1446L15.4095 45.9498C15.5282 45.8825 15.6271 45.785 15.696 45.6671C15.765 45.5493 15.8015 45.4153 15.802 45.2788V40.5998C15.802 40.3255 15.9538 40.0654 16.1967 39.9282L17.8168 38.9834C17.9353 38.9115 18.0718 38.8746 18.2104 38.8772C18.3465 38.8772 18.4836 38.907 18.5899 38.9834L20.2104 39.9282C20.4528 40.0654 20.6051 40.3255 20.6051 40.5998V45.2793C20.6051 45.5526 20.7559 45.8132 20.9977 45.9493L24.7853 48.1446C24.8441 48.1821 24.9124 48.202 24.9821 48.202C25.0518 48.202 25.1201 48.1821 25.1789 48.1446C25.2394 48.1119 25.2897 48.0632 25.3245 48.0039C25.3593 47.9445 25.3772 47.8768 25.3762 47.8081V37.8099C25.3762 37.5356 25.2244 37.276 24.9816 37.1383L18.5742 33.4041C18.4662 33.3468 18.3482 33.3111 18.2266 33.2989L18.1638 33.2994ZM70.8582 33.4078V33.4088L70.8572 33.4099C70.7248 33.4099 70.5929 33.4439 70.4714 33.513L64.0483 37.2451C63.806 37.3833 63.6557 37.6424 63.6557 37.9172V45.3709C63.6557 45.6452 63.806 45.9048 64.0483 46.0415L70.4254 49.6998C70.5403 49.7672 70.6711 49.8028 70.8043 49.8028C70.9376 49.8028 71.0684 49.7672 71.1833 49.6998L75.0463 47.5364C75.1065 47.5035 75.1567 47.4548 75.1913 47.3954C75.2259 47.3361 75.2436 47.2685 75.2426 47.1998C75.2433 47.1314 75.2255 47.0641 75.1909 47.0051C75.1563 46.9461 75.1063 46.8976 75.0463 46.8648L68.5939 43.1296C68.5349 43.0949 68.4858 43.0456 68.4514 42.9865C68.417 42.9274 68.3985 42.8604 68.3976 42.792V40.46C68.397 40.3918 68.415 40.3247 68.4495 40.2659C68.4841 40.2071 68.534 40.1588 68.5939 40.1261L70.6112 38.9677C70.67 38.9303 70.7383 38.9104 70.808 38.9104C70.8777 38.9104 70.946 38.9303 71.0048 38.9677L73.0174 40.1261C73.0761 40.1603 73.125 40.2089 73.1596 40.2674C73.1941 40.3258 73.2131 40.3922 73.2148 40.46V42.2889C73.2148 42.4266 73.2901 42.5637 73.4111 42.6245C73.47 42.6621 73.5385 42.6821 73.6084 42.6821C73.6783 42.6821 73.7468 42.6621 73.8057 42.6245L77.6221 40.3841C77.7392 40.3162 77.8361 40.2183 77.903 40.1006C77.9699 39.9829 78.0043 39.8495 78.0027 39.7141V37.9004C78.0027 37.6261 77.8498 37.367 77.6221 37.2294L71.2461 33.5125C71.1283 33.4444 70.9948 33.4082 70.8588 33.4072L70.8582 33.4078ZM35.7654 33.4334C35.6402 33.4343 35.5173 33.4673 35.4084 33.5292L29.0382 37.2283L31.267 41.3164L35.8408 33.4407C35.8159 33.4376 35.791 33.4353 35.766 33.4339H35.7649L35.7654 33.4334ZM36.0617 33.5109L40.5669 41.2651L42.6842 37.3681C42.6451 37.3278 42.6012 37.2924 42.5534 37.2629L39.2709 35.356L36.1109 33.5302C36.0948 33.5233 36.0784 33.5168 36.0617 33.5109ZM35.9308 33.5423L31.3382 41.4483L35.8931 49.805L35.9308 49.7976L40.4947 41.398L35.9303 33.5428L35.9308 33.5423ZM28.9288 37.2964C28.8345 37.3624 28.7577 37.4504 28.7051 37.5529C28.6526 37.6553 28.6259 37.7691 28.6273 37.8842V45.3699C28.6273 45.4892 28.6598 45.6054 28.7153 45.7085L31.1901 41.4462L28.9288 37.2964ZM42.7737 37.4754L40.6428 41.3959L42.903 45.2872V37.8842C42.903 37.7376 42.8549 37.5947 42.7732 37.4759L42.7737 37.4754ZM53.2718 38.975C53.3063 38.975 53.3395 38.9829 53.3712 38.9986L55.566 40.28C55.6267 40.3103 55.6576 40.3852 55.6576 40.4464V43.0076C55.6576 43.084 55.6262 43.1458 55.566 43.1762L53.3697 44.456C53.3389 44.4709 53.3052 44.4787 53.271 44.4787C53.2368 44.4787 53.2031 44.4709 53.1723 44.456L50.9765 43.1772C50.9158 43.1468 50.8844 43.0699 50.8844 43.0087V40.4475C50.8844 40.3711 50.9163 40.3109 50.9765 40.28L53.1723 38.9986C53.203 38.9827 53.2372 38.9746 53.2718 38.975ZM70.8357 40.0114C70.8086 40.0117 70.7822 40.0201 70.7598 40.0355L69.5319 40.7521C69.5087 40.7664 69.4897 40.7865 69.4767 40.8103C69.4637 40.8342 69.4571 40.861 69.4575 40.8882V42.3224C69.4575 42.3831 69.4863 42.4292 69.5319 42.4596L70.7598 43.1762C70.7822 43.1911 70.8085 43.1991 70.8355 43.1991C70.8624 43.1991 70.8887 43.1911 70.9111 43.1762L72.1381 42.459C72.1611 42.4444 72.1801 42.4243 72.1932 42.4004C72.2064 42.3765 72.2134 42.3497 72.2134 42.3224V40.8893C72.2138 40.862 72.207 40.8351 72.1938 40.8112C72.1806 40.7874 72.1614 40.7673 72.1381 40.7532L70.9111 40.0355C70.8888 40.0208 70.8625 40.0129 70.8357 40.013V40.0114ZM40.5711 41.5294L36.1156 49.7291L36.1229 49.7254L42.5544 45.9896C42.734 45.8881 42.8491 45.7143 42.8878 45.517L40.5711 41.5294ZM31.2628 41.5791L28.7948 45.8279C28.8472 45.8923 28.9084 45.9483 28.978 45.9902L35.3399 49.6867L35.4079 49.7259H35.4095C35.4591 49.7539 35.5118 49.7761 35.5665 49.7919C35.5829 49.7964 35.599 49.8003 35.6147 49.8034C35.6457 49.8104 35.6768 49.8151 35.7078 49.8175C35.7229 49.8186 35.7379 49.8189 35.7529 49.8186L31.2628 41.5791ZM44.0923 48.5895C43.8688 48.5895 43.6458 48.6419 43.4563 48.7487L37.4106 52.2714C37.2166 52.3851 37.0558 52.5476 36.9441 52.7427C36.8325 52.9379 36.7738 53.1589 36.7741 53.3837V60.4082C36.7741 60.8657 37.0164 61.2923 37.4101 61.5216L39.0018 62.4355C39.7739 62.8166 40.0461 62.8145 40.3942 62.8145C41.53 62.8145 42.1822 62.1141 42.1822 60.9102V53.9783C42.1817 53.9303 42.1627 53.8842 42.129 53.8499C42.0953 53.8156 42.0497 53.7956 42.0017 53.7941H41.2296C41.1809 53.7946 41.1343 53.8142 41.0999 53.8486C41.0655 53.8831 41.0459 53.9296 41.0453 53.9783V60.9128C41.0453 61.4462 40.4874 61.9801 39.5938 61.5232L37.9419 60.5632C37.8812 60.5328 37.8508 60.4548 37.8508 60.3941V53.367C37.8508 53.3062 37.8812 53.2293 37.9419 53.1995L43.985 49.6945C44.0305 49.6642 44.1064 49.6642 44.1682 49.6945L50.2107 53.1989C50.2709 53.2303 50.3029 53.2911 50.3029 53.3664V60.3931C50.3029 60.469 50.2715 60.5318 50.2107 60.5621L44.1666 64.0828C44.1211 64.1131 44.0452 64.1131 43.9834 64.0828L42.4398 63.1526C42.3937 63.1223 42.333 63.1076 42.288 63.1369C41.864 63.3819 41.7891 63.4133 41.3798 63.5504C41.2887 63.5808 41.1375 63.6405 41.44 63.808L43.4563 65.0134C43.6531 65.1197 43.8646 65.1799 44.0923 65.1799C44.3194 65.1799 44.5456 65.1197 44.7272 65.0438L50.7708 61.5232C50.9651 61.4092 51.126 61.2462 51.2376 61.0506C51.3492 60.855 51.4075 60.6335 51.4068 60.4082V53.3837C51.4068 52.9262 51.1644 52.5012 50.7708 52.2725L44.7272 48.7497C44.5325 48.6436 44.314 48.5881 44.0923 48.5895ZM53.5283 51.7977C53.218 51.7989 52.9208 51.9234 52.7022 52.1436C52.4836 52.3639 52.3615 52.662 52.3626 52.9723C52.3618 53.2824 52.484 53.5802 52.7026 53.8003C52.9212 54.0203 53.2181 54.1446 53.5283 54.1458C54.1653 54.1458 54.6955 53.6119 54.6955 52.9723C54.694 52.6625 54.5708 52.3658 54.3524 52.1461C54.134 51.9265 53.838 51.8015 53.5283 51.7982V51.7977ZM53.5126 51.9945H53.5141C53.6434 51.9929 53.7716 52.017 53.8914 52.0655C54.0112 52.114 54.1201 52.1858 54.2119 52.2768C54.3036 52.3679 54.3763 52.4762 54.4257 52.5956C54.4752 52.715 54.5003 52.8431 54.4998 52.9723C54.4998 53.5062 54.0596 53.9616 53.5141 53.9616C52.9844 53.9616 52.5437 53.5208 52.5437 52.9723C52.5437 52.4237 52.9986 51.9956 53.5126 51.9945ZM53.0886 52.3159V53.6559H53.3472V53.1257H53.5764C53.6675 53.1257 53.6968 53.156 53.7125 53.2319C53.7125 53.2476 53.7575 53.5821 53.7575 53.6428H54.0297C53.9983 53.5821 53.9842 53.3978 53.969 53.2911C53.9544 53.1236 53.9397 53.0026 53.7575 52.9875C53.8486 52.9566 53.9983 52.9116 53.9983 52.6676C53.9983 52.3169 53.6947 52.3169 53.5435 52.3169L53.0886 52.3159ZM53.3179 52.5295H53.5283C53.6047 52.5295 53.7267 52.5295 53.7267 52.7127C53.7267 52.7734 53.6958 52.8959 53.5283 52.8959H53.3179V52.5295ZM45.7442 53.5816C44.0169 53.5816 42.9847 54.3139 42.9847 55.5486C42.9847 56.875 44.0153 57.2383 45.6668 57.4058C47.6506 57.6047 47.8024 57.8952 47.8024 58.2915C47.8024 58.9772 47.257 59.2656 45.9845 59.2656C44.3786 59.2656 44.0295 58.8693 43.908 58.0622C43.908 57.9701 43.8347 57.9104 43.7437 57.9104H42.9559C42.9073 57.9104 42.8607 57.9297 42.8263 57.9641C42.792 57.9984 42.7727 58.045 42.7727 58.0936C42.7727 59.13 43.3192 60.348 45.9709 60.348C47.8788 60.348 48.9833 59.5859 48.9833 58.2438C48.9833 56.9337 48.1039 56.5824 46.2415 56.3385C44.3624 56.0946 44.1661 55.9575 44.1661 55.5157C44.1661 55.1498 44.3336 54.663 45.7259 54.663C46.9691 54.663 47.4386 54.9373 47.6208 55.7753C47.6294 55.8132 47.6503 55.8473 47.6802 55.8723C47.71 55.8972 47.7473 55.9117 47.7862 55.9135H48.5891C48.6347 55.9135 48.6818 55.8836 48.7127 55.8533C48.7404 55.8124 48.756 55.7645 48.7577 55.7151C48.6368 54.2521 47.6836 53.5816 45.7442 53.5816Z" fill="white"/>
</svg>
