<svg width="50" height="50" viewBox="0 0 50 50" fill="none" xmlns="http://www.w3.org/2000/svg">
<rect x="0.5" y="0.5" width="49" height="49" rx="24.5" fill="#1D1E2D"/>
<rect x="0.5" y="0.5" width="49" height="49" rx="24.5" stroke="url(#paint0_linear_104_247)"/>
<path d="M12.5857 32.5955C12.2536 32.5955 11.9844 32.8647 11.9844 33.1968C11.9844 33.5288 12.2536 33.7981 12.5857 33.7981H15.3515C15.6835 33.7981 15.9528 33.5288 15.9528 33.1968C15.9528 32.8647 15.6835 32.5955 15.3515 32.5955H12.5857Z" fill="white"/>
<path fill-rule="evenodd" clip-rule="evenodd" d="M23.7846 13.1411C23.9412 12.8118 24.2121 12.4494 24.5047 12.2872C24.6395 12.2125 24.7608 12.1895 24.8817 12.2097C25.0068 12.2305 25.1987 12.3092 25.4488 12.5594C25.5715 12.682 25.692 12.9407 25.7374 13.4121C25.7815 13.8691 25.7467 14.4406 25.6486 15.0833C25.4528 16.3659 25.0217 17.8279 24.6014 19.0127C24.2785 19.923 24.9347 20.9288 25.9379 20.9288H31.3199C31.7945 20.9288 32.4032 21.257 32.6037 22.1303C32.6781 22.4539 33.0007 22.6561 33.3243 22.5818C33.648 22.5074 33.8501 22.1848 33.7758 21.8612C33.4535 20.4575 32.3712 19.7262 31.3199 19.7262H25.9379C25.8024 19.7262 25.677 19.5777 25.7348 19.4148C26.1676 18.1945 26.6255 16.6527 26.8374 15.2648C26.9431 14.5723 26.9918 13.8918 26.9344 13.2967C26.8784 12.716 26.7125 12.1224 26.2992 11.709C25.9213 11.3311 25.5129 11.0958 25.0798 11.0235C24.6424 10.9505 24.2474 11.055 23.9218 11.2354C23.3021 11.5788 22.8835 12.2203 22.678 12.6686L22.664 12.6992L22.6535 12.7312C20.882 18.1136 18.7069 20.5029 17.5372 21.2338L17.5297 21.2385C17.236 20.9096 16.8088 20.7026 16.3332 20.7026H11.6034C10.7179 20.7026 10 21.4204 10 22.306V34.1787C10 35.0643 10.7179 35.7822 11.6034 35.7822H16.3332C16.9092 35.7822 17.4143 35.4785 17.697 35.0224C18.2304 35.6196 18.9983 36.0399 19.9865 36.0399H22.5057C22.8378 36.0399 23.107 35.7707 23.107 35.4387C23.107 35.1066 22.8378 34.8374 22.5057 34.8374H19.9865C19.3103 34.8374 18.8216 34.5327 18.4849 34.089C18.1359 33.6291 17.9578 33.0238 17.9578 32.4949V22.5558C17.9578 22.4826 18.011 22.3557 18.1744 22.2536C19.677 21.3148 21.9712 18.6332 23.7846 13.1411ZM16.3332 21.9051H11.6034C11.382 21.9051 11.2026 22.0846 11.2026 22.306V34.1787C11.2026 34.4001 11.382 34.5796 11.6034 34.5796H16.3332C16.5546 34.5796 16.7341 34.4001 16.7341 34.1787V22.306C16.7341 22.0846 16.5546 21.9051 16.3332 21.9051Z" fill="white"/>
<path fill-rule="evenodd" clip-rule="evenodd" d="M31.6561 28.4401C29.8018 28.4401 28.2985 29.9434 28.2985 31.7977C28.2985 33.6521 29.8018 35.1553 31.6561 35.1553C33.5105 35.1553 35.0137 33.6521 35.0137 31.7977C35.0137 29.9434 33.5105 28.4401 31.6561 28.4401ZM29.5011 31.7977C29.5011 30.6075 30.4659 29.6427 31.6561 29.6427C32.8463 29.6427 33.8111 30.6075 33.8111 31.7977C33.8111 32.9879 32.8463 33.9528 31.6561 33.9528C30.4659 33.9528 29.5011 32.9879 29.5011 31.7977Z" fill="white"/>
<path fill-rule="evenodd" clip-rule="evenodd" d="M29.678 24.3059V26.0115C29.4326 26.0954 29.1942 26.1945 28.964 26.3076L27.7576 25.1012L24.9583 27.9006L26.1651 29.1074C26.0525 29.3366 25.9539 29.574 25.8703 29.8184H24.1646V33.7773H25.8702C25.9539 34.0221 26.0527 34.2599 26.1654 34.4895L24.9592 35.6957L27.7586 38.4951L28.9647 37.2889C29.1947 37.4019 29.4328 37.5008 29.678 37.5846V39.29H33.6369V37.5839C33.881 37.5003 34.1181 37.4018 34.3471 37.2894L35.5536 38.4959L38.353 35.6966L37.1469 34.4905C37.2599 34.2606 37.3588 34.0225 37.4427 33.7773H39.1487V29.8184H37.4425C37.3588 29.5737 37.26 29.3359 37.1473 29.1064L38.3539 27.8997L35.5546 25.1004L34.3479 26.3071C34.1186 26.1945 33.8813 26.0959 33.6369 26.0122V24.3059H29.678ZM30.8806 25.5085H32.4343V26.9254L32.8856 27.0417C33.3354 27.1575 33.7603 27.3356 34.1508 27.5663L34.5522 27.8035L35.5546 26.8011L36.6533 27.8997L35.6509 28.9021L35.8881 29.3035C36.119 29.6942 36.2971 30.1195 36.413 30.5696L36.5292 31.021H37.9462V32.5747H36.5293L36.4131 33.0261C36.2972 33.4766 36.1188 33.9022 35.8877 34.2933L35.6504 34.6947L36.6523 35.6966L35.5536 36.7953L34.5515 35.7931L34.1502 36.0302C33.7599 36.2607 33.3351 36.4387 32.8856 36.5545L32.4343 36.6707V38.0874H30.8806V36.6711L30.4291 36.5549C29.9786 36.4391 29.5529 36.2608 29.1618 36.0297L28.7605 35.7925L27.7586 36.7944L26.6599 35.6957L27.6618 34.6938L27.4247 34.2924C27.1937 33.9016 27.0156 33.4763 26.8997 33.0261L26.7836 32.5747H25.3672V31.021H26.7836L26.8998 30.5696C27.0156 30.1198 27.1936 29.6948 27.4243 29.3043L27.6613 28.903L26.659 27.9006L27.7576 26.8019L28.7598 27.8041L29.1612 27.5668C29.5525 27.3355 29.9783 27.1571 30.4291 27.0412L30.8806 26.9251V25.5085Z" fill="white"/>
<defs>
<linearGradient id="paint0_linear_104_247" x1="25" y1="0" x2="25" y2="50" gradientUnits="userSpaceOnUse">
<stop stop-color="#54567C"/>
<stop offset="0.473958" stop-color="#54567C" stop-opacity="0"/>
<stop offset="0.9375" stop-color="#282B60"/>
</linearGradient>
</defs>
</svg>
