<svg width="50" height="50" viewBox="0 0 50 50" fill="none" xmlns="http://www.w3.org/2000/svg">
<rect x="0.5" y="0.5" width="49" height="49" rx="24.5" fill="#1D1E2D"/>
<rect x="0.5" y="0.5" width="49" height="49" rx="24.5" stroke="url(#paint0_linear_104_244)"/>
<path fill-rule="evenodd" clip-rule="evenodd" d="M25.3535 9.01978C24.2526 9.01978 23.1967 9.45712 22.4183 10.2356C21.6398 11.0141 21.2025 12.0699 21.2025 13.1708C21.2025 14.2718 21.6398 15.3276 22.4183 16.1061C22.561 16.2488 22.713 16.38 22.8729 16.4992C21.9416 16.8336 21.086 17.3712 20.3729 18.0843C19.1028 19.3544 18.3892 21.0771 18.3892 22.8734V23.7473C18.3892 24.1092 18.6827 24.4027 19.0447 24.4027C19.4067 24.4027 19.7001 24.1092 19.7001 23.7473V22.8734C19.7001 21.4248 20.2756 20.0355 21.2999 19.0112C22.3242 17.9869 23.7134 17.4114 25.162 17.4114C26.6106 17.4114 27.9999 17.9869 29.0242 19.0112C30.0485 20.0355 30.6239 21.4248 30.6239 22.8734V23.7473C30.6239 24.1092 30.9174 24.4027 31.2794 24.4027C31.6414 24.4027 31.9348 24.1092 31.9348 23.7473V22.8734C31.9348 21.0771 31.2212 19.3544 29.9511 18.0843C29.3023 17.4355 28.5354 16.9319 27.7009 16.5945C27.91 16.4511 28.107 16.2879 28.2888 16.1061C29.0672 15.3276 29.5046 14.2718 29.5046 13.1708C29.5046 12.0699 29.0672 11.0141 28.2888 10.2356C27.5103 9.45712 26.4544 9.01978 25.3535 9.01978ZM23.3452 11.1625C23.8778 10.6299 24.6002 10.3306 25.3535 10.3306C26.1068 10.3306 26.8292 10.6299 27.3618 11.1625C27.8945 11.6952 28.1937 12.4176 28.1937 13.1708C28.1937 13.9241 27.8945 14.6465 27.3618 15.1792C26.8292 15.7118 26.1068 16.011 25.3535 16.011C24.6002 16.011 23.8778 15.7118 23.3452 15.1792C22.8125 14.6465 22.5133 13.9241 22.5133 13.1708C22.5133 12.4176 22.8125 11.6952 23.3452 11.1625Z" fill="white"/>
<path fill-rule="evenodd" clip-rule="evenodd" d="M13.5362 27.1859C12.4502 27.1859 11.5699 28.0662 11.5699 29.1522C11.5699 30.2381 12.4502 31.1185 13.5362 31.1185C14.6221 31.1185 15.5025 30.2381 15.5025 29.1522C15.5025 28.0662 14.6221 27.1859 13.5362 27.1859ZM12.8807 29.1522C12.8807 28.7902 13.1742 28.4968 13.5362 28.4968C13.8982 28.4968 14.1916 28.7902 14.1916 29.1522C14.1916 29.5142 13.8982 29.8076 13.5362 29.8076C13.1742 29.8076 12.8807 29.5142 12.8807 29.1522Z" fill="white"/>
<path fill-rule="evenodd" clip-rule="evenodd" d="M30.5114 29.8445C30.7757 29.5549 30.9784 29.2042 31.0955 28.8103C31.271 28.2197 30.9925 27.5889 30.4377 27.3209L24.3425 24.3755C23.416 23.9278 22.3396 23.9094 21.3983 24.3251L16.9965 26.2692C16.6018 25.4822 15.7875 24.942 14.8471 24.942H12.2253C10.8981 24.942 9.82208 26.018 9.82208 27.3453V34.3365C9.82208 35.6638 10.8981 36.7398 12.2253 36.7398H14.8471C15.9302 36.7398 16.846 36.0232 17.1462 35.0382C17.1929 35.025 17.2564 35.0094 17.3418 34.9915C17.5929 34.939 17.9438 34.8845 18.4494 34.8059L18.7615 34.7573C20.3131 34.5149 21.2108 34.6017 24.063 35.0684C25.5061 35.3045 26.8495 35.4596 28.2512 35.3138C29.6631 35.1671 31.099 34.7195 32.7509 33.7988C33.0079 33.6556 33.2825 33.5027 33.5711 33.3421C35.9316 32.0282 39.2252 30.1948 41.4399 28.857C42.3728 28.2935 42.6821 27.1132 42.1958 26.161C41.6679 25.1272 40.3976 24.7233 39.3695 25.2624L31.1042 29.5971C30.9123 29.6978 30.714 29.7802 30.5114 29.8445ZM23.7722 25.5558C23.1918 25.2754 22.5175 25.2638 21.9279 25.5242L17.289 27.5731V33.6665C17.5481 33.6192 17.8705 33.5692 18.2575 33.5091L18.5591 33.4622C20.3335 33.185 21.4105 33.3061 24.2747 33.7747C25.6899 34.0063 26.893 34.1371 28.1156 34.01C29.3281 33.884 30.5945 33.5 32.1127 32.6538C32.3665 32.5124 32.6368 32.3619 32.9202 32.2041L32.934 32.1964C35.2986 30.8802 38.5693 29.0596 40.7621 27.735C41.0886 27.5377 41.2113 27.1154 41.0284 26.7572C40.8323 26.3731 40.3603 26.223 39.9784 26.4233L31.713 30.758C30.1912 31.5561 28.3663 31.5114 26.8865 30.6424L21.7822 28.477L22.2942 27.2702L27.3163 29.4008H28.5466C29.1278 29.4008 29.6417 29.0287 29.8251 28.4807L23.7722 25.5558ZM12.2253 26.2529C11.622 26.2529 11.1329 26.742 11.1329 27.3453V34.3365C11.1329 34.9398 11.622 35.4289 12.2253 35.4289H14.8471C15.4504 35.4289 15.9394 34.9398 15.9394 34.3365V27.3453C15.9394 26.742 15.4504 26.2529 14.8471 26.2529H12.2253Z" fill="white"/>
<defs>
<linearGradient id="paint0_linear_104_244" x1="25" y1="0" x2="25" y2="50" gradientUnits="userSpaceOnUse">
<stop stop-color="#54567C"/>
<stop offset="0.473958" stop-color="#54567C" stop-opacity="0"/>
<stop offset="0.9375" stop-color="#282B60"/>
</linearGradient>
</defs>
</svg>
