<svg width="84" height="84" viewBox="0 0 84 84" fill="none" xmlns="http://www.w3.org/2000/svg">
<circle cx="42" cy="42" r="42" fill="white"/>
<circle cx="42" cy="42" r="40" fill="#FF675E"/>
<g clip-path="url(#clip0_20_58)">
<mask id="mask0_20_58" style="mask-type:luminance" maskUnits="userSpaceOnUse" x="11" y="11" width="62" height="62">
<path d="M11 11H73V73H11V11Z" fill="white"/>
</mask>
<g mask="url(#mask0_20_58)">
<path d="M73 41.1966C73 37.0891 67.8566 33.196 59.9697 30.7832C61.7909 22.7464 60.9823 16.3501 57.4173 14.3015C56.5535 13.8177 55.5758 13.5742 54.586 13.5963V16.4121C55.1672 16.4121 55.6348 16.5283 56.0275 16.7428C57.7454 17.7296 58.492 21.4806 57.9108 26.3088C57.7712 27.4972 57.5439 28.7475 57.2649 30.0237C54.6238 29.3872 51.9433 28.9272 49.2411 28.6468C47.6313 26.4258 45.875 24.3149 43.984 22.3279C48.1044 18.4994 51.9717 16.4018 54.6015 16.4018V13.5833C51.1243 13.5833 46.5751 16.0608 41.9742 20.3568C37.3758 16.0892 32.824 13.635 29.3494 13.635V16.4508C31.9663 16.4508 35.8465 18.5382 39.9669 22.3408C38.1973 24.2008 36.4277 26.3088 34.746 28.6468C32.0382 28.9241 29.3529 29.3885 26.7092 30.0366C26.4299 28.8271 26.21 27.6045 26.0505 26.3734C25.4563 21.5426 26.19 17.7916 27.8976 16.7944C28.2747 16.5671 28.7682 16.4638 29.3494 16.4638V13.6479C28.2903 13.6479 27.3267 13.8753 26.4948 14.3532C22.9427 16.4018 22.1471 22.7826 23.9787 30.7961C16.1176 33.2244 11 37.102 11 41.1966C11 45.3041 16.1434 49.1972 24.0303 51.6074C22.2091 59.6468 23.0177 66.0431 26.5827 68.0891C27.4042 68.5696 28.3652 68.7969 29.4243 68.7969C32.9015 68.7969 37.4508 66.3195 42.0517 62.0234C46.65 66.2937 51.1992 68.7453 54.6764 68.7453C55.6738 68.7663 56.659 68.522 57.531 68.0374C61.0831 65.9914 61.8787 59.6106 60.0472 51.5971C67.8824 49.1843 73 45.2912 73 41.1966ZM56.5442 32.7672C56.0533 34.4563 55.4843 36.1218 54.8392 37.7582C53.783 35.7038 52.6233 33.7043 51.3646 31.7674C53.16 32.0335 54.8908 32.3616 56.5467 32.7672M50.7601 46.2263C49.8139 47.8783 48.7977 49.4892 47.7143 51.0546C43.9226 51.3888 40.1091 51.3931 36.3167 51.0675C34.1414 47.9602 32.239 44.6706 30.6307 41.2353C32.2365 37.792 34.1308 34.4908 36.2934 31.367C40.0842 31.0321 43.8968 31.0269 47.6885 31.3515C48.7373 32.855 49.7629 34.4618 50.7472 36.1565C51.7082 37.8098 52.5813 39.489 53.377 41.1837C52.5725 42.8989 51.6995 44.5811 50.7601 46.2263ZM54.8392 44.5833C55.5212 46.278 56.105 47.9701 56.5829 49.6131C54.9296 50.0187 53.1833 50.3597 51.3775 50.6232C52.631 48.6687 53.7864 46.6529 54.8392 44.5833ZM42.0258 58.0683C40.8504 56.8542 39.675 55.5031 38.5125 54.0228C39.6492 54.0745 40.8117 54.1133 41.9871 54.1133C43.1754 54.1133 44.3508 54.0874 45.5004 54.0228C44.3637 55.5031 43.1883 56.8542 42.0258 58.0683ZM32.6225 50.6232C30.8807 50.3708 29.1514 50.0381 27.4403 49.626C27.9079 47.9959 28.4892 46.3142 29.1453 44.635C29.6646 45.6425 30.2097 46.6552 30.8038 47.6678C31.398 48.6779 32.0025 49.6648 32.6225 50.6232ZM41.9612 24.3248C43.1367 25.539 44.3121 26.8901 45.4746 28.3703C44.3379 28.3187 43.1754 28.2799 42 28.2799C40.8117 28.2799 39.6362 28.3058 38.4867 28.3703C39.6233 26.8901 40.7987 25.539 41.9612 24.3248ZM32.6096 31.77C31.3563 33.7203 30.201 35.7317 29.1479 37.7969C28.4846 36.1499 27.9026 34.4713 27.4042 32.7672C29.0575 32.3745 30.8038 32.0335 32.6096 31.77ZM21.1732 47.5903C16.6988 45.6838 13.8055 43.1806 13.8055 41.1966C13.8055 39.2126 16.6988 36.6964 21.1732 34.8028C22.2582 34.3353 23.4465 33.9168 24.6736 33.5267C25.3943 36.0015 26.3424 38.5797 27.5152 41.2224C26.4079 43.7081 25.4715 46.2663 24.7123 48.8794C23.5122 48.5078 22.3311 48.0776 21.1732 47.5903ZM27.9725 65.6478C26.2546 64.6662 25.508 60.91 26.0892 56.0843C26.2287 54.896 26.4561 53.6431 26.7351 52.3669C29.2099 52.974 31.9147 53.4416 34.7589 53.7464C36.3688 55.9673 38.1251 58.0783 40.016 60.0653C35.8956 63.8938 32.0283 65.9914 29.3985 65.9914C28.9023 65.9968 28.4125 65.8797 27.9725 65.6504M57.9495 56.0223C58.5437 60.8506 57.81 64.6042 56.1024 65.6013C55.7252 65.8287 55.2318 65.9294 54.6506 65.9294C52.0337 65.9294 48.1535 63.8447 44.0331 60.0394C45.9161 58.0608 47.6606 55.9547 49.254 53.7361C51.9618 53.4587 54.6471 52.9943 57.2907 52.3463C57.5827 53.6224 57.8074 54.8469 57.9495 56.0223ZM62.8139 47.5929C61.7289 48.0605 60.5406 48.479 59.3135 48.8691C58.541 46.2427 57.5916 43.6715 56.4718 41.1733C57.6343 38.5461 58.5669 35.9808 59.2747 33.5163C60.4787 33.8892 61.664 34.3193 62.8268 34.8054C67.3012 36.7119 70.1945 39.2152 70.1945 41.1992C70.1816 43.1832 67.2882 45.6993 62.8139 47.5929Z" fill="white"/>
<path d="M41.9871 46.9729C43.5191 46.9729 44.9883 46.3643 46.0716 45.2811C47.1548 44.1978 47.7634 42.7286 47.7634 41.1966C47.7634 39.6646 47.1548 38.1954 46.0716 37.1121C44.9883 36.0288 43.5191 35.4203 41.9871 35.4203C40.4551 35.4203 38.9859 36.0288 37.9026 37.1121C36.8193 38.1954 36.2108 39.6646 36.2108 41.1966C36.2108 42.7286 36.8193 44.1978 37.9026 45.2811C38.9859 46.3643 40.4551 46.9729 41.9871 46.9729Z" fill="white"/>
</g>
</g>
<defs>
<clipPath id="clip0_20_58">
<rect width="62" height="62" fill="white" transform="translate(11 11)"/>
</clipPath>
</defs>
</svg>
