<svg width="50" height="50" viewBox="0 0 50 50" fill="none" xmlns="http://www.w3.org/2000/svg">
<rect x="0.5" y="0.5" width="49" height="49" rx="24.5" fill="#1D1E2D"/>
<rect x="0.5" y="0.5" width="49" height="49" rx="24.5" stroke="url(#paint0_linear_104_241)"/>
<path d="M19.3986 11.0845C21.173 10.3684 23.0742 10 24.9938 10C26.9134 10 28.8146 10.3684 30.5889 11.0845C32.3633 11.8006 33.9766 12.8507 35.3363 14.1755C36.696 15.5004 37.7755 17.0741 38.5123 18.8074C39.2492 20.5406 39.6287 22.3989 39.6287 24.276C39.6287 24.6298 39.3419 24.9165 38.9882 24.9165C38.6344 24.9165 38.3477 24.6298 38.3477 24.276C38.3477 22.5718 38.0032 20.8839 37.3335 19.3085C36.6637 17.7331 35.6816 16.3005 34.4423 15.093C33.203 13.8855 31.7309 12.9267 30.1095 12.2724C28.4881 11.618 26.7497 11.281 24.9938 11.281C23.2378 11.281 21.4995 11.618 19.878 12.2724C18.2567 12.9267 16.7845 13.8855 15.5452 15.093C14.5439 16.0686 13.7104 17.1913 13.074 18.4175H15.0982C15.452 18.4175 15.7387 18.7042 15.7387 19.0579C15.7387 19.4117 15.452 19.6984 15.0982 19.6984H12.0646C11.8279 19.6984 11.6104 19.5678 11.4992 19.3588L10.0752 16.6826C9.90903 16.3704 10.0275 15.9825 10.3397 15.8163C10.652 15.6502 11.0399 15.7686 11.206 16.0809L12.0358 17.6404C12.7222 16.3649 13.6036 15.1963 14.6513 14.1755C16.011 12.8507 17.6243 11.8006 19.3986 11.0845Z" fill="white"/>
<path d="M30.5996 38.1264C28.8229 38.8813 26.9179 39.27 24.9938 39.27C23.0696 39.27 21.1647 38.8813 19.3879 38.1264C17.6112 37.3716 15.9978 36.2657 14.6396 34.8727C13.2815 33.4797 12.2049 31.8268 11.4707 30.0089C10.7366 28.191 10.3589 26.2431 10.3589 24.2763C10.3589 23.9226 10.6456 23.6358 10.9994 23.6358C11.3531 23.6358 11.6398 23.9226 11.6398 24.2763C11.6398 26.0793 11.9861 27.8643 12.6585 29.5292C13.3309 31.1941 14.316 32.7058 15.5568 33.9784C16.7976 35.251 18.2698 36.2596 19.8888 36.9474C21.5078 37.6352 23.2424 37.989 24.9938 37.989C26.7451 37.989 28.4798 37.6352 30.0987 36.9474C31.7178 36.2596 33.1899 35.251 34.4307 33.9784C35.449 32.934 36.2951 31.7285 36.9375 30.4095L35.3998 30.4095C35.0461 30.4095 34.7593 30.1228 34.7593 29.769C34.7593 29.4153 35.0461 29.1285 35.3998 29.1285L37.9229 29.1285C38.1491 29.1285 38.3585 29.2478 38.4738 29.4424L39.8979 31.8439C40.0783 32.1481 39.9779 32.5411 39.6736 32.7215C39.3694 32.9019 38.9765 32.8015 38.796 32.4972L37.9988 31.1528C37.3088 32.5226 36.4153 33.7779 35.3479 34.8727C33.9897 36.2657 32.3764 37.3716 30.5996 38.1264Z" fill="white"/>
<path fill-rule="evenodd" clip-rule="evenodd" d="M24.9938 21.3875C23.2003 21.3875 21.7463 22.8414 21.7463 24.635C21.7463 26.4286 23.2003 27.8825 24.9938 27.8825C26.7874 27.8825 28.2414 26.4286 28.2414 24.635C28.2414 22.8414 26.7874 21.3875 24.9938 21.3875ZM23.0273 24.635C23.0273 23.5489 23.9077 22.6684 24.9938 22.6684C26.0799 22.6684 26.9604 23.5489 26.9604 24.635C26.9604 25.7211 26.0799 26.6016 24.9938 26.6016C23.9077 26.6016 23.0273 25.7211 23.0273 24.635Z" fill="white"/>
<path fill-rule="evenodd" clip-rule="evenodd" d="M23.376 14.9347C23.04 14.9347 22.7611 15.1944 22.7372 15.5296L22.5895 17.5972C22.1794 17.7372 21.7856 17.9121 21.4115 18.1181L19.9173 16.79C19.6638 16.5647 19.2787 16.576 19.0389 16.8158L17.1745 18.6802C16.9347 18.92 16.9234 19.3051 17.1487 19.5586L18.4769 21.0528C18.2709 21.4268 18.0961 21.8206 17.956 22.2306L15.8884 22.3783C15.5532 22.4023 15.2935 22.6812 15.2935 23.0172V26.2528C15.2935 26.5888 15.5532 26.8677 15.8884 26.8917L17.956 27.0394C18.0813 27.4063 18.2345 27.7602 18.413 28.0987L17.1488 29.5208C16.9235 29.7743 16.9348 30.1595 17.1746 30.3993L19.039 32.2636C19.2788 32.5034 19.664 32.5148 19.9174 32.2894L21.2804 31.0779C21.6932 31.3163 22.1312 31.5163 22.5895 31.6728L22.7372 33.7404C22.7611 34.0756 23.04 34.3353 23.376 34.3353H26.6117C26.9477 34.3353 27.2266 34.0756 27.2505 33.7404L27.3982 31.6728C27.8136 31.5309 28.2123 31.3534 28.5907 31.1439L29.8797 32.2896C30.1331 32.5149 30.5183 32.5036 30.7581 32.2638L32.6225 30.3994C32.8623 30.1596 32.8736 29.7744 32.6483 29.521L31.5026 28.2321C31.7122 27.8536 31.8898 27.4548 32.0317 27.0394L34.0993 26.8917C34.4345 26.8677 34.6941 26.5889 34.6941 26.2528V23.0172C34.6941 22.6812 34.4345 22.4023 34.0993 22.3783L32.0317 22.2306C31.8751 21.7724 31.6752 21.3344 31.4368 20.9215L32.6484 19.5584C32.8737 19.305 32.8624 18.9198 32.6226 18.68L30.7582 16.8157C30.5184 16.5759 30.1333 16.5645 29.8798 16.7898L28.4575 18.0541C28.1191 17.8757 27.7651 17.7225 27.3982 17.5972L27.2505 15.5296C27.2266 15.1944 26.9477 14.9347 26.6117 14.9347H23.376ZM23.8359 18.1259L23.9724 16.2157H26.0153L26.1517 18.1259C26.1711 18.397 26.3595 18.6263 26.6216 18.698C27.1858 18.8523 27.7178 19.085 28.2052 19.3838C28.4458 19.5313 28.7546 19.5039 28.9655 19.3164L30.2795 18.1485L31.2898 19.1588L30.1615 20.4281C29.9675 20.6463 29.9457 20.9681 30.1083 21.2105C30.4734 21.7546 30.7537 22.3597 30.9308 23.0072C31.0025 23.2694 31.2319 23.4577 31.503 23.4771L33.4132 23.6135V25.6565L31.503 25.7929C31.2319 25.8123 31.0025 26.0006 30.9308 26.2628C30.7644 26.8712 30.5069 27.4422 30.1735 27.9603C30.018 28.2019 30.0425 28.5176 30.2334 28.7324L31.2897 29.9206L30.2793 30.9309L29.091 29.8747C28.8763 29.6838 28.5606 29.6593 28.319 29.8148C27.8009 30.1481 27.23 30.4056 26.6216 30.572C26.3595 30.6437 26.1711 30.873 26.1517 31.1441L26.0153 33.0543H23.9724L23.8359 31.1441C23.8166 30.873 23.6282 30.6437 23.366 30.572C22.7186 30.3949 22.1134 30.1146 21.5694 29.7495C21.3269 29.5868 21.0052 29.6087 20.787 29.8026L19.5178 30.9308L18.5074 29.9205L19.6753 28.6067C19.8628 28.3958 19.8901 28.087 19.7426 27.8464C19.4438 27.3589 19.2112 26.827 19.0569 26.2628C18.9852 26.0006 18.7558 25.8123 18.4847 25.7929L16.5745 25.6565V23.6135L18.4847 23.4771C18.7558 23.4577 18.9852 23.2694 19.0569 23.0072C19.2219 22.4038 19.4766 21.8371 19.806 21.3224C19.9606 21.0808 19.9358 20.766 19.7453 20.5516L18.5073 19.1589L19.5176 18.1486L20.9103 19.3865C21.1247 19.5771 21.4395 19.6019 21.6811 19.4473C22.1958 19.1178 22.7626 18.8631 23.366 18.698C23.6282 18.6263 23.8166 18.397 23.8359 18.1259Z" fill="white"/>
<defs>
<linearGradient id="paint0_linear_104_241" x1="25" y1="0" x2="25" y2="50" gradientUnits="userSpaceOnUse">
<stop stop-color="#54567C"/>
<stop offset="0.473958" stop-color="#54567C" stop-opacity="0"/>
<stop offset="0.9375" stop-color="#282B60"/>
</linearGradient>
</defs>
</svg>
