<svg xmlns="http://www.w3.org/2000/svg" xmlns:xlink="http://www.w3.org/1999/xlink" height="800" width="1200" viewBox="-75 -118.7645 650 712.587"><defs><clipPath clip-path="url(#clipPathS)" id="z" clipPathUnits="userSpaceOnUse"><use xlink:href="#a" transform="translate(-393.41 -258.656)" width="100%" height="100%"/></clipPath><clipPath clip-path="url(#clipPathZ)" id="y" clipPathUnits="userSpaceOnUse"><use xlink:href="#a" transform="translate(-370.599 -258.656)" width="100%" height="100%"/></clipPath><clipPath clip-path="url(#clipPathe)" id="x" clipPathUnits="userSpaceOnUse"><use xlink:href="#a" width="100%" height="100%"/></clipPath><clipPath clip-path="url(#clipPathq)" id="w" clipPathUnits="userSpaceOnUse"><use xlink:href="#a" transform="translate(-338.608 -258.656)" width="100%" height="100%"/></clipPath><clipPath clip-path="url(#clipPathAj)" id="v" clipPathUnits="userSpaceOnUse"><use xlink:href="#a" transform="translate(-324.112 -263.932)" width="100%" height="100%"/></clipPath><clipPath clip-path="url(#clipPath3c)" id="u" clipPathUnits="userSpaceOnUse"><use xlink:href="#a" transform="translate(-299.76 -264.671)" width="100%" height="100%"/></clipPath><clipPath clip-path="url(#clipPath1W)" id="t" clipPathUnits="userSpaceOnUse"><use xlink:href="#a" transform="translate(-278.489 -267.287)" width="100%" height="100%"/></clipPath><clipPath clip-path="url(#clipPathM)" id="s" clipPathUnits="userSpaceOnUse"><use xlink:href="#a" transform="translate(-264.266 -258.656)" width="100%" height="100%"/></clipPath><clipPath clip-path="url(#clipPathMv)" id="r" clipPathUnits="userSpaceOnUse"><use xlink:href="#a" transform="translate(-242.805 -258.656)" width="100%" height="100%"/></clipPath><clipPath clip-path="url(#clipPathT)" id="q" clipPathUnits="userSpaceOnUse"><use xlink:href="#a" transform="translate(-224.299 -258.656)" width="100%" height="100%"/></clipPath><clipPath clip-path="url(#clipPath4Q)" id="l" clipPathUnits="userSpaceOnUse"><use xlink:href="#a" width="100%" height="100%"/></clipPath><clipPath clip-path="url(#clipPathIy)" id="p" clipPathUnits="userSpaceOnUse"><use xlink:href="#a" width="100%" height="100%"/></clipPath><clipPath clip-path="url(#clipPathu)" id="g" clipPathUnits="userSpaceOnUse"><use xlink:href="#a" transform="translate(-402.837 -482.288)" width="100%" height="100%"/></clipPath><clipPath clip-path="url(#clipPathR)" id="f" clipPathUnits="userSpaceOnUse"><use xlink:href="#a" transform="translate(-394.789 -490.927)" width="100%" height="100%"/></clipPath><clipPath clip-path="url(#clipPathqp)" id="o" clipPathUnits="userSpaceOnUse"><use xlink:href="#a" transform="translate(-384.492 -289.891)" width="100%" height="100%"/></clipPath><clipPath clip-path="url(#clipPathV)" id="n" clipPathUnits="userSpaceOnUse"><use xlink:href="#a" transform="translate(-362.909 -281.996)" width="100%" height="100%"/></clipPath><clipPath clip-path="url(#clipPathP)" id="m" clipPathUnits="userSpaceOnUse"><use xlink:href="#a" transform="translate(-330.808 -281.957)" width="100%" height="100%"/></clipPath><clipPath clip-path="url(#clipPathy)" id="k" clipPathUnits="userSpaceOnUse"><use xlink:href="#a" transform="translate(-291.858 -281.91)" width="100%" height="100%"/></clipPath><clipPath clip-path="url(#clipPathE)" id="j" clipPathUnits="userSpaceOnUse"><use xlink:href="#a" transform="translate(-262.05 -281.874)" width="100%" height="100%"/></clipPath><clipPath clip-path="url(#clipPathiG)" id="i" clipPathUnits="userSpaceOnUse"><use xlink:href="#a" transform="translate(-233.576 -288.437)" width="100%" height="100%"/></clipPath><clipPath clip-path="url(#clipPathSZ)" id="h" clipPathUnits="userSpaceOnUse"><use xlink:href="#a" transform="translate(-210 -281.812)" width="100%" height="100%"/></clipPath><clipPath clip-path="url(#clipPathFY)" id="e" clipPathUnits="userSpaceOnUse"><use xlink:href="#a" transform="translate(-392.889 -313.934)" width="100%" height="100%"/></clipPath><clipPath clip-path="url(#clipPathuC)" id="d" clipPathUnits="userSpaceOnUse"><use xlink:href="#a" transform="translate(-392.889 -313.934)" width="100%" height="100%"/></clipPath><clipPath clip-path="url(#clipPathO)" id="c" clipPathUnits="userSpaceOnUse"><use xlink:href="#a" transform="translate(-253.318 -314.017)" width="100%" height="100%"/></clipPath><clipPath clip-path="url(#clipPath38)" id="b" clipPathUnits="userSpaceOnUse"><use xlink:href="#a" transform="translate(-253.318 -314.017)" width="100%" height="100%"/></clipPath><path d="M166.44 490.928h244.897V257.985H166.44z" id="a"/></defs><path d="M0 0l-51.293-.062-.16 133.621-36.932-.044-.05 42.317 124.385.149.052-42.317-36.162-.043L0 0" transform="matrix(2.04343 0 0 -2.04343 177.529 361.503)" clip-path="url(#b)" fill="#1476c6"/><path d="M0 0l-51.293-.062-.16 133.621-36.932-.044-.05 42.317 124.385.149.052-42.317-36.162-.043L0 0" transform="matrix(2.04343 0 0 -2.04343 177.529 361.503)" clip-path="url(#c)" fill="#1476c6"/><path d="M0 0l-130.741-.157-.047 39.323 58.304 43.903c10.509 9.029 23.02 19.563 23.001 34.591-.011 10.019-6.283 18.026-16.802 18.013-16.03-.019-20.518-16.555-21.254-29.83l-43.339 8.464c4.715 36.823 31.235 59.898 68.303 59.942 34.314.041 63.389-18.458 63.434-55.527.023-18.534-8.476-32.32-21.987-44.358l-39.788-29.855L-64.92 42l66.873.08L0 0" transform="matrix(2.04343 0 0 -2.04343 462.732 361.672)" clip-path="url(#d)"/><path d="M0 0l-130.741-.157-.047 39.323 58.304 43.903c10.509 9.029 23.02 19.563 23.001 34.591-.011 10.019-6.283 18.026-16.802 18.013-16.03-.019-20.518-16.555-21.254-29.83l-43.339 8.464c4.715 36.823 31.235 59.898 68.303 59.942 34.314.041 63.389-18.458 63.434-55.527.023-18.534-8.476-32.32-21.987-44.358l-39.788-29.855L-64.92 42l66.873.08L0 0" transform="matrix(2.04343 0 0 -2.04343 462.732 361.672)" clip-path="url(#e)"/><path d="M0 0v-1.016h2.91v-7.623h1.178v7.623h2.909V0H0" transform="matrix(2.04343 0 0 -2.04343 466.614 0)" clip-path="url(#f)"/><path d="M0 0h1.109v5.098c0 .201-.01.522-.024.955-.017.433-.023.756-.023.97v.262L3.556 0h1.163l2.508 7.285c0-.465-.009-.903-.023-1.31a22.448 22.448 0 01-.023-.877V0H8.29v8.639H6.63L4.144 1.334 1.665 8.639H0V0" transform="matrix(2.04343 0 0 -2.04343 483.06 17.653)" clip-path="url(#g)"/><path d="M0 0l-4.629-.006-.014 12.058-3.333-.003-.005 3.818 11.225.014.005-3.819-3.263-.004L0 0" transform="matrix(2.04343 0 0 -2.04343 89.012 427.311)" clip-path="url(#h)"/><path d="M0 0l-1.301 4.604-1.291-4.607zm.837-3.471l-4.235-.005-.968-3.125-3.958-.005 4.911 15.883 5.138.006L6.72-6.588l-4.976-.006-.907 3.123" transform="matrix(2.04343 0 0 -2.04343 137.188 413.774)" clip-path="url(#i)"/><path d="M0 0l-2.739 5.991-1.663-2.316.004-3.68L-8.98-.01l-.019 15.877 4.582.004.008-6.549 4.39 6.555 4.374.005-3.997-5.814L5.346.007 0 0" transform="matrix(2.04343 0 0 -2.04343 195.372 427.185)" clip-path="url(#j)"/><path d="M0 0l-11.918-.015-.019 15.877 11.918.015.004-3.657-7.151-.009.004-2.314 5.784.007.005-3.541-5.785-.007.003-2.569 7.15.008L0 0" transform="matrix(2.04343 0 0 -2.04343 256.283 427.111)" clip-path="url(#k)"/><path d="M312.448 287.635h-9.565v4.474h9.565z" transform="matrix(2.04343 0 0 -2.04343 -340.108 1003.173)" clip-path="url(#l)"/><path d="M0 0l-4.629-.005-.014 12.057-3.332-.004-.005 3.819 11.224.014.005-3.819-3.263-.004L0 0" transform="matrix(2.04343 0 0 -2.04343 335.874 427.015)" clip-path="url(#m)"/><path d="M0 0l-4.096-.005-2.21 8.745h-.046L-8.401-.01l-4.258-.006-4.255 15.872 4.583.005 2.209-9.162h.046l2.142 9.168 3.819.004 2.348-9.162h.046l2.188 9.168 3.727.005L0 0" transform="matrix(2.04343 0 0 -2.04343 401.47 426.935)" clip-path="url(#n)"/><path d="M0 0c.002-1.527.168-4.466 2.389-4.464C4.611-4.462 4.77-1.522 4.768.005c-.002 1.551-.238 4.652-2.39 4.65C.226 4.652-.002 1.551 0 0zm9.975.035c.005-4.513-2.768-8.126-7.582-8.132-4.813-.006-7.595 3.601-7.6 8.114-.006 4.745 2.744 8.219 7.581 8.225 4.837.006 7.595-3.463 7.601-8.207" transform="matrix(2.04343 0 0 -2.04343 445.573 410.802)" clip-path="url(#o)"/><path d="M206.911 258.656h-4.474v14.476h4.474z" transform="matrix(2.04343 0 0 -2.04343 -340.108 1003.173)" clip-path="url(#p)"/><path d="M0 0l-4.157 6.774-1.288 2.617-.042-.042.042-.169c.212-.929.296-1.436.296-2.427V0h-3.609v14.476h4.2L.295 6.394l.043.042-.317 4.01v4.03h3.608V0H0" transform="matrix(2.04343 0 0 -2.04343 118.23 474.629)" clip-path="url(#q)"/><path d="M0 0h-4.22v10.994h-3.039v3.482H2.976v-3.482H0V0" transform="matrix(2.04343 0 0 -2.04343 156.046 474.629)" clip-path="url(#r)"/><path d="M0 0h-10.868v14.476H0v-3.334h-6.52v-2.11h5.275V5.803H-6.52V3.461H0V0" transform="matrix(2.04343 0 0 -2.04343 199.9 474.629)" clip-path="url(#s)"/><path d="M0 0c.971 0 2.131.147 2.131 1.393 0 .486-.253.949-.697 1.182-.379.189-.843.189-1.265.189h-1.794V0zm1.878-8.631l-2.11 5.529h-1.393v-5.529H-6.12V5.845h7.365c1.266 0 2.659-.168 3.735-.886 1.203-.76 1.773-2.046 1.773-3.461 0-1.898-.845-3.038-2.554-3.819l2.617-6.31H1.878" transform="matrix(2.04343 0 0 -2.04343 228.964 456.992)" clip-path="url(#t)"/><path d="M0 0l-1.181 4.199L-2.363 0zm.759-3.165h-3.861l-.887-2.849h-3.608l4.495 14.476h4.684L6.119-6.014H1.582L.759-3.165" transform="matrix(2.04343 0 0 -2.04343 272.43 462.338)" clip-path="url(#u)"/><path d="M0 0c-.275-3.334-2.701-5.486-6.035-5.486-4.347 0-6.627 3.144-6.627 7.259 0 4.178 2.005 7.639 6.563 7.639 3.693 0 5.803-2.195 6.099-5.803l-4.137-.212c.043 1.225-.421 2.765-1.919 2.765-1.963 0-2.047-3.018-2.047-4.389 0-1.456.084-3.925 2.089-3.925 1.371 0 1.899 1.202 1.962 2.405L0 0" transform="matrix(2.04343 0 0 -2.04343 322.191 463.848)" clip-path="url(#v)"/><path d="M0 0h-4.221v10.994H-7.26v3.482H2.975v-3.482H0V0" transform="matrix(2.04343 0 0 -2.04343 351.813 474.629)" clip-path="url(#w)"/><path d="M353.781 258.656h-4.474v14.476h4.474z" transform="matrix(2.04343 0 0 -2.04343 -340.108 1003.173)" clip-path="url(#x)"/><path d="M0 0h-4.537L-9.2 14.476h4.663l2.279-7.829.423-1.435.401 1.372 2.279 7.892h3.65L0 0" transform="matrix(2.04343 0 0 -2.04343 417.184 474.629)" clip-path="url(#y)"/><path d="M0 0h-10.868v14.476H0v-3.334h-6.521v-2.11h5.276V5.803h-5.276V3.461H0V0" transform="matrix(2.04343 0 0 -2.04343 463.797 474.629)" clip-path="url(#z)"/></svg>