<svg width="50" height="50" viewBox="0 0 50 50" fill="none" xmlns="http://www.w3.org/2000/svg">
<rect x="0.5" y="0.5" width="49" height="49" rx="24.5" fill="#1D1E2D"/>
<rect x="0.5" y="0.5" width="49" height="49" rx="24.5" stroke="url(#paint0_linear_106_170)"/>
<path fill-rule="evenodd" clip-rule="evenodd" d="M37.4357 16.9913V18.5778C37.2759 18.5367 37.1083 18.5148 36.9357 18.5148H14C13.8274 18.5148 13.6598 18.5367 13.5 18.5778V13.5H22.3489L23.9611 15.8896C24.4258 16.5784 25.2025 16.9913 26.0335 16.9913H37.4357ZM12 20.5148V13C12 12.4477 12.4477 12 13 12H22.6147C22.9471 12 23.2578 12.1652 23.4437 12.4407L25.2045 15.0506C25.3904 15.3262 25.7011 15.4913 26.0335 15.4913H37.9357C38.488 15.4913 38.9357 15.939 38.9357 16.4913V20.5148V27.3346V36.3999C38.9357 37.5045 38.0403 38.3999 36.9357 38.3999H30.284H14.0047C12.9001 38.3999 12 37.5045 12 36.3999V20.5148ZM14 20.0148H36.9357C37.2118 20.0148 37.4357 20.2386 37.4357 20.5148V27.3346V36.3999C37.4357 36.6761 37.2118 36.8999 36.9357 36.8999H30.284H14.0047C13.724 36.8999 13.5 36.6715 13.5 36.3999V20.5148C13.5 20.2386 13.7239 20.0148 14 20.0148ZM13.5673 15.8856C13.5673 15.4714 13.9031 15.1356 14.3173 15.1356H19.162C19.5763 15.1356 19.912 15.4714 19.912 15.8856C19.912 16.2998 19.5763 16.6356 19.162 16.6356H14.3173C13.9031 16.6356 13.5673 16.2998 13.5673 15.8856ZM22.3346 26.2259C22.6573 25.9661 22.7082 25.4939 22.4484 25.1713C22.1886 24.8487 21.7164 24.7978 21.3938 25.0576L17.8965 27.874C17.7197 28.0164 17.6169 28.2312 17.6169 28.4582C17.6169 28.6852 17.7197 28.8999 17.8965 29.0423L21.3938 31.8588C21.7164 32.1186 22.1886 32.0676 22.4484 31.745C22.7082 31.4224 22.6573 30.9503 22.3346 30.6905L19.5626 28.4582L22.3346 26.2259ZM28.4881 25.1713C28.2283 25.4939 28.2792 25.9661 28.6018 26.2259L31.3738 28.4582L28.6018 30.6905C28.2792 30.9503 28.2283 31.4224 28.4881 31.745C28.7479 32.0676 29.22 32.1186 29.5426 31.8588L33.04 29.0423C33.2168 28.8999 33.3196 28.6852 33.3196 28.4582C33.3196 28.2312 33.2168 28.0164 33.04 27.874L29.5426 25.0576C29.22 24.7978 28.7479 24.8487 28.4881 25.1713ZM27.5255 25.4497C27.6839 25.067 27.5021 24.6283 27.1194 24.4698C26.7367 24.3114 26.298 24.4932 26.1396 24.8759L23.411 31.4666C23.2526 31.8493 23.4344 32.288 23.8171 32.4464C24.1998 32.6049 24.6385 32.423 24.7969 32.0403L27.5255 25.4497Z" fill="white"/>
<defs>
<linearGradient id="paint0_linear_106_170" x1="25" y1="0" x2="25" y2="50" gradientUnits="userSpaceOnUse">
<stop stop-color="#54567C"/>
<stop offset="0.473958" stop-color="#54567C" stop-opacity="0"/>
<stop offset="0.9375" stop-color="#282B60"/>
</linearGradient>
</defs>
</svg>
