<svg width="184" height="30" viewBox="0 0 184 30" fill="none" xmlns="http://www.w3.org/2000/svg">
<g filter="url(#filter0_b_20_101)">
<rect width="184" height="30" rx="15" fill="#FFD5D2"/>
<rect x="0.5" y="0.5" width="183" height="29" rx="14.5" stroke="#FF675E"/>
</g>
<circle cx="17.5" cy="15" r="3.5" fill="#FF675E"/>
<path d="M35.7234 20L33.3234 11.06H35.0754L36.9594 18.68H36.5034L38.4714 11.06H40.1634L42.1194 18.68H41.6634L43.5474 11.06H45.2994L42.8994 20H41.0274L39.0474 12.584H39.5754L37.5954 20H35.7234ZM48.8671 20.144C48.1951 20.144 47.6071 19.992 47.1031 19.688C46.5991 19.384 46.2071 18.972 45.9271 18.452C45.6471 17.932 45.5071 17.356 45.5071 16.724C45.5071 16.068 45.6471 15.488 45.9271 14.984C46.2151 14.472 46.6031 14.068 47.0911 13.772C47.5871 13.476 48.1391 13.328 48.7471 13.328C49.2591 13.328 49.7071 13.412 50.0911 13.58C50.4831 13.748 50.8151 13.98 51.0871 14.276C51.3591 14.572 51.5671 14.912 51.7111 15.296C51.8551 15.672 51.9271 16.08 51.9271 16.52C51.9271 16.632 51.9191 16.748 51.9031 16.868C51.8951 16.988 51.8751 17.092 51.8431 17.18H46.8031V15.98H50.9551L50.2111 16.544C50.2831 16.176 50.2631 15.848 50.1511 15.56C50.0471 15.272 49.8711 15.044 49.6231 14.876C49.3831 14.708 49.0911 14.624 48.7471 14.624C48.4191 14.624 48.1271 14.708 47.8711 14.876C47.6151 15.036 47.4191 15.276 47.2831 15.596C47.1551 15.908 47.1071 16.288 47.1391 16.736C47.1071 17.136 47.1591 17.492 47.2951 17.804C47.4391 18.108 47.6471 18.344 47.9191 18.512C48.1991 18.68 48.5191 18.764 48.8791 18.764C49.2391 18.764 49.5431 18.688 49.7911 18.536C50.0471 18.384 50.2471 18.18 50.3911 17.924L51.6631 18.548C51.5351 18.86 51.3351 19.136 51.0631 19.376C50.7911 19.616 50.4671 19.804 50.0911 19.94C49.7231 20.076 49.3151 20.144 48.8671 20.144ZM56.6827 20.144C56.2107 20.144 55.7747 20.052 55.3747 19.868C54.9827 19.676 54.6707 19.404 54.4387 19.052L54.5947 18.74V20H53.1187V10.916H54.6907V14.768L54.4507 14.444C54.6747 14.092 54.9787 13.82 55.3627 13.628C55.7467 13.428 56.1907 13.328 56.6947 13.328C57.3107 13.328 57.8667 13.48 58.3627 13.784C58.8587 14.088 59.2507 14.496 59.5387 15.008C59.8347 15.52 59.9827 16.096 59.9827 16.736C59.9827 17.368 59.8387 17.944 59.5507 18.464C59.2627 18.984 58.8707 19.396 58.3747 19.7C57.8787 19.996 57.3147 20.144 56.6827 20.144ZM56.5027 18.704C56.8627 18.704 57.1827 18.62 57.4627 18.452C57.7427 18.284 57.9587 18.052 58.1107 17.756C58.2707 17.46 58.3507 17.12 58.3507 16.736C58.3507 16.352 58.2707 16.016 58.1107 15.728C57.9587 15.432 57.7427 15.2 57.4627 15.032C57.1827 14.856 56.8627 14.768 56.5027 14.768C56.1587 14.768 55.8467 14.852 55.5667 15.02C55.2947 15.188 55.0787 15.424 54.9187 15.728C54.7667 16.024 54.6907 16.36 54.6907 16.736C54.6907 17.12 54.7667 17.46 54.9187 17.756C55.0787 18.052 55.2947 18.284 55.5667 18.452C55.8467 18.62 56.1587 18.704 56.5027 18.704ZM60.5812 20L63.6652 11.06H65.7772L68.8612 20H67.0852L66.4492 18.08H62.9932L62.3452 20H60.5812ZM63.4612 16.64H65.9812L64.4932 12.188H64.9492L63.4612 16.64ZM69.7242 22.4V13.472H71.2002V14.768L71.0562 14.444C71.2802 14.092 71.5842 13.82 71.9682 13.628C72.3522 13.428 72.7962 13.328 73.3002 13.328C73.9162 13.328 74.4722 13.48 74.9682 13.784C75.4642 14.088 75.8562 14.496 76.1442 15.008C76.4402 15.52 76.5882 16.096 76.5882 16.736C76.5882 17.368 76.4442 17.944 76.1562 18.464C75.8682 18.984 75.4762 19.396 74.9802 19.7C74.4842 19.996 73.9202 20.144 73.2882 20.144C72.8162 20.144 72.3802 20.052 71.9802 19.868C71.5882 19.676 71.2762 19.404 71.0442 19.052L71.2962 18.74V22.4H69.7242ZM73.1082 18.704C73.4682 18.704 73.7882 18.62 74.0682 18.452C74.3482 18.284 74.5642 18.052 74.7162 17.756C74.8762 17.46 74.9562 17.12 74.9562 16.736C74.9562 16.352 74.8762 16.016 74.7162 15.728C74.5642 15.432 74.3482 15.2 74.0682 15.032C73.7882 14.856 73.4682 14.768 73.1082 14.768C72.7642 14.768 72.4522 14.852 72.1722 15.02C71.9002 15.188 71.6842 15.424 71.5242 15.728C71.3722 16.024 71.2962 16.36 71.2962 16.736C71.2962 17.12 71.3722 17.46 71.5242 17.756C71.6842 18.052 71.9002 18.284 72.1722 18.452C72.4522 18.62 72.7642 18.704 73.1082 18.704ZM77.7867 22.4V13.472H79.2627V14.768L79.1187 14.444C79.3427 14.092 79.6467 13.82 80.0307 13.628C80.4147 13.428 80.8587 13.328 81.3627 13.328C81.9787 13.328 82.5347 13.48 83.0307 13.784C83.5267 14.088 83.9187 14.496 84.2067 15.008C84.5027 15.52 84.6507 16.096 84.6507 16.736C84.6507 17.368 84.5067 17.944 84.2187 18.464C83.9307 18.984 83.5387 19.396 83.0427 19.7C82.5467 19.996 81.9827 20.144 81.3507 20.144C80.8787 20.144 80.4427 20.052 80.0427 19.868C79.6507 19.676 79.3387 19.404 79.1067 19.052L79.3587 18.74V22.4H77.7867ZM81.1707 18.704C81.5307 18.704 81.8507 18.62 82.1307 18.452C82.4107 18.284 82.6267 18.052 82.7787 17.756C82.9387 17.46 83.0187 17.12 83.0187 16.736C83.0187 16.352 82.9387 16.016 82.7787 15.728C82.6267 15.432 82.4107 15.2 82.1307 15.032C81.8507 14.856 81.5307 14.768 81.1707 14.768C80.8267 14.768 80.5147 14.852 80.2347 15.02C79.9627 15.188 79.7467 15.424 79.5867 15.728C79.4347 16.024 79.3587 16.36 79.3587 16.736C79.3587 17.12 79.4347 17.46 79.5867 17.756C79.7467 18.052 79.9627 18.284 80.2347 18.452C80.5147 18.62 80.8267 18.704 81.1707 18.704ZM88.114 20V11.06H91.03C91.974 11.06 92.794 11.252 93.49 11.636C94.194 12.012 94.738 12.536 95.122 13.208C95.506 13.872 95.698 14.644 95.698 15.524C95.698 16.396 95.506 17.172 95.122 17.852C94.738 18.524 94.194 19.052 93.49 19.436C92.794 19.812 91.974 20 91.03 20H88.114ZM89.746 18.56H91.066C91.674 18.56 92.198 18.436 92.638 18.188C93.086 17.932 93.434 17.58 93.682 17.132C93.93 16.676 94.054 16.14 94.054 15.524C94.054 14.9 93.93 14.364 93.682 13.916C93.434 13.468 93.086 13.12 92.638 12.872C92.198 12.624 91.674 12.5 91.066 12.5H89.746V18.56ZM99.9608 20.144C99.2888 20.144 98.7008 19.992 98.1968 19.688C97.6928 19.384 97.3008 18.972 97.0208 18.452C96.7408 17.932 96.6008 17.356 96.6008 16.724C96.6008 16.068 96.7408 15.488 97.0208 14.984C97.3088 14.472 97.6968 14.068 98.1848 13.772C98.6808 13.476 99.2328 13.328 99.8408 13.328C100.353 13.328 100.801 13.412 101.185 13.58C101.577 13.748 101.909 13.98 102.181 14.276C102.453 14.572 102.661 14.912 102.805 15.296C102.949 15.672 103.021 16.08 103.021 16.52C103.021 16.632 103.013 16.748 102.997 16.868C102.989 16.988 102.969 17.092 102.937 17.18H97.8968V15.98H102.049L101.305 16.544C101.377 16.176 101.357 15.848 101.245 15.56C101.141 15.272 100.965 15.044 100.717 14.876C100.477 14.708 100.185 14.624 99.8408 14.624C99.5128 14.624 99.2208 14.708 98.9648 14.876C98.7088 15.036 98.5128 15.276 98.3768 15.596C98.2488 15.908 98.2008 16.288 98.2328 16.736C98.2008 17.136 98.2528 17.492 98.3888 17.804C98.5328 18.108 98.7408 18.344 99.0128 18.512C99.2928 18.68 99.6128 18.764 99.9728 18.764C100.333 18.764 100.637 18.688 100.885 18.536C101.141 18.384 101.341 18.18 101.485 17.924L102.757 18.548C102.629 18.86 102.429 19.136 102.157 19.376C101.885 19.616 101.561 19.804 101.185 19.94C100.817 20.076 100.409 20.144 99.9608 20.144ZM106.063 20L103.495 13.472H105.211L107.071 18.608H106.435L108.307 13.472H110.023L107.455 20H106.063ZM113.871 20.144C113.199 20.144 112.611 19.992 112.107 19.688C111.603 19.384 111.211 18.972 110.931 18.452C110.651 17.932 110.511 17.356 110.511 16.724C110.511 16.068 110.651 15.488 110.931 14.984C111.219 14.472 111.607 14.068 112.095 13.772C112.591 13.476 113.143 13.328 113.751 13.328C114.263 13.328 114.711 13.412 115.095 13.58C115.487 13.748 115.819 13.98 116.091 14.276C116.363 14.572 116.571 14.912 116.715 15.296C116.859 15.672 116.931 16.08 116.931 16.52C116.931 16.632 116.923 16.748 116.907 16.868C116.899 16.988 116.879 17.092 116.847 17.18H111.807V15.98H115.959L115.215 16.544C115.287 16.176 115.267 15.848 115.155 15.56C115.051 15.272 114.875 15.044 114.627 14.876C114.387 14.708 114.095 14.624 113.751 14.624C113.423 14.624 113.131 14.708 112.875 14.876C112.619 15.036 112.423 15.276 112.287 15.596C112.159 15.908 112.111 16.288 112.143 16.736C112.111 17.136 112.163 17.492 112.299 17.804C112.443 18.108 112.651 18.344 112.923 18.512C113.203 18.68 113.523 18.764 113.883 18.764C114.243 18.764 114.547 18.688 114.795 18.536C115.051 18.384 115.251 18.18 115.395 17.924L116.667 18.548C116.539 18.86 116.339 19.136 116.067 19.376C115.795 19.616 115.471 19.804 115.095 19.94C114.727 20.076 114.319 20.144 113.871 20.144ZM118.123 20V10.916H119.695V20H118.123ZM124.338 20.144C123.698 20.144 123.114 19.996 122.586 19.7C122.066 19.404 121.65 19 121.338 18.488C121.034 17.976 120.882 17.392 120.882 16.736C120.882 16.08 121.034 15.496 121.338 14.984C121.65 14.472 122.066 14.068 122.586 13.772C123.106 13.476 123.69 13.328 124.338 13.328C124.978 13.328 125.558 13.476 126.078 13.772C126.598 14.068 127.01 14.472 127.314 14.984C127.626 15.488 127.782 16.072 127.782 16.736C127.782 17.392 127.626 17.976 127.314 18.488C127.002 19 126.586 19.404 126.066 19.7C125.546 19.996 124.97 20.144 124.338 20.144ZM124.338 18.704C124.69 18.704 124.998 18.62 125.262 18.452C125.534 18.284 125.746 18.052 125.898 17.756C126.058 17.452 126.138 17.112 126.138 16.736C126.138 16.352 126.058 16.016 125.898 15.728C125.746 15.432 125.534 15.2 125.262 15.032C124.998 14.856 124.69 14.768 124.338 14.768C123.978 14.768 123.662 14.856 123.39 15.032C123.118 15.2 122.902 15.432 122.742 15.728C122.59 16.016 122.514 16.352 122.514 16.736C122.514 17.112 122.59 17.452 122.742 17.756C122.902 18.052 123.118 18.284 123.39 18.452C123.662 18.62 123.978 18.704 124.338 18.704ZM128.974 22.4V13.472H130.45V14.768L130.306 14.444C130.53 14.092 130.834 13.82 131.218 13.628C131.602 13.428 132.046 13.328 132.55 13.328C133.166 13.328 133.722 13.48 134.218 13.784C134.714 14.088 135.106 14.496 135.394 15.008C135.69 15.52 135.838 16.096 135.838 16.736C135.838 17.368 135.694 17.944 135.406 18.464C135.118 18.984 134.726 19.396 134.23 19.7C133.734 19.996 133.17 20.144 132.538 20.144C132.066 20.144 131.63 20.052 131.23 19.868C130.838 19.676 130.526 19.404 130.294 19.052L130.546 18.74V22.4H128.974ZM132.358 18.704C132.718 18.704 133.038 18.62 133.318 18.452C133.598 18.284 133.814 18.052 133.966 17.756C134.126 17.46 134.206 17.12 134.206 16.736C134.206 16.352 134.126 16.016 133.966 15.728C133.814 15.432 133.598 15.2 133.318 15.032C133.038 14.856 132.718 14.768 132.358 14.768C132.014 14.768 131.702 14.852 131.422 15.02C131.15 15.188 130.934 15.424 130.774 15.728C130.622 16.024 130.546 16.36 130.546 16.736C130.546 17.12 130.622 17.46 130.774 17.756C130.934 18.052 131.15 18.284 131.422 18.452C131.702 18.62 132.014 18.704 132.358 18.704ZM137.037 20V13.472H138.513V14.984L138.345 14.732C138.465 14.26 138.705 13.908 139.065 13.676C139.425 13.444 139.849 13.328 140.337 13.328C140.873 13.328 141.345 13.468 141.753 13.748C142.161 14.028 142.425 14.396 142.545 14.852L142.101 14.888C142.301 14.368 142.601 13.98 143.001 13.724C143.401 13.46 143.861 13.328 144.381 13.328C144.845 13.328 145.257 13.432 145.617 13.64C145.985 13.848 146.273 14.14 146.481 14.516C146.689 14.884 146.793 15.312 146.793 15.8V20H145.221V16.172C145.221 15.884 145.169 15.636 145.065 15.428C144.961 15.22 144.817 15.06 144.633 14.948C144.449 14.828 144.225 14.768 143.961 14.768C143.713 14.768 143.493 14.828 143.301 14.948C143.109 15.06 142.961 15.22 142.857 15.428C142.753 15.636 142.701 15.884 142.701 16.172V20H141.129V16.172C141.129 15.884 141.077 15.636 140.973 15.428C140.869 15.22 140.721 15.06 140.529 14.948C140.345 14.828 140.125 14.768 139.869 14.768C139.621 14.768 139.401 14.828 139.209 14.948C139.017 15.06 138.869 15.22 138.765 15.428C138.661 15.636 138.609 15.884 138.609 16.172V20H137.037ZM151.219 20.144C150.547 20.144 149.959 19.992 149.455 19.688C148.951 19.384 148.559 18.972 148.279 18.452C147.999 17.932 147.859 17.356 147.859 16.724C147.859 16.068 147.999 15.488 148.279 14.984C148.567 14.472 148.955 14.068 149.443 13.772C149.939 13.476 150.491 13.328 151.099 13.328C151.611 13.328 152.059 13.412 152.443 13.58C152.835 13.748 153.167 13.98 153.439 14.276C153.711 14.572 153.919 14.912 154.063 15.296C154.207 15.672 154.279 16.08 154.279 16.52C154.279 16.632 154.271 16.748 154.255 16.868C154.247 16.988 154.227 17.092 154.195 17.18H149.155V15.98H153.307L152.563 16.544C152.635 16.176 152.615 15.848 152.503 15.56C152.399 15.272 152.223 15.044 151.975 14.876C151.735 14.708 151.443 14.624 151.099 14.624C150.771 14.624 150.479 14.708 150.223 14.876C149.967 15.036 149.771 15.276 149.635 15.596C149.507 15.908 149.459 16.288 149.491 16.736C149.459 17.136 149.511 17.492 149.647 17.804C149.791 18.108 149.999 18.344 150.271 18.512C150.551 18.68 150.871 18.764 151.231 18.764C151.591 18.764 151.895 18.688 152.143 18.536C152.399 18.384 152.599 18.18 152.743 17.924L154.015 18.548C153.887 18.86 153.687 19.136 153.415 19.376C153.143 19.616 152.819 19.804 152.443 19.94C152.075 20.076 151.667 20.144 151.219 20.144ZM155.47 20V13.472H156.946V14.756L156.826 14.528C156.978 14.136 157.226 13.84 157.57 13.64C157.922 13.432 158.33 13.328 158.794 13.328C159.274 13.328 159.698 13.432 160.066 13.64C160.442 13.848 160.734 14.14 160.942 14.516C161.15 14.884 161.254 15.312 161.254 15.8V20H159.682V16.172C159.682 15.884 159.626 15.636 159.514 15.428C159.402 15.22 159.246 15.06 159.046 14.948C158.854 14.828 158.626 14.768 158.362 14.768C158.106 14.768 157.878 14.828 157.678 14.948C157.478 15.06 157.322 15.22 157.21 15.428C157.098 15.636 157.042 15.884 157.042 16.172V20H155.47ZM165.56 20.072C164.824 20.072 164.252 19.872 163.844 19.472C163.444 19.064 163.244 18.492 163.244 17.756V14.876H162.116V13.472H162.236C162.556 13.472 162.804 13.388 162.98 13.22C163.156 13.052 163.244 12.808 163.244 12.488V11.984H164.816V13.472H166.316V14.876H164.816V17.672C164.816 17.888 164.852 18.072 164.924 18.224C165.004 18.376 165.124 18.492 165.284 18.572C165.452 18.652 165.664 18.692 165.92 18.692C165.976 18.692 166.04 18.688 166.112 18.68C166.192 18.672 166.268 18.664 166.34 18.656V20C166.228 20.016 166.1 20.032 165.956 20.048C165.812 20.064 165.68 20.072 165.56 20.072Z" fill="#18181B"/>
<defs>
<filter id="filter0_b_20_101" x="-14" y="-14" width="212" height="58" filterUnits="userSpaceOnUse" color-interpolation-filters="sRGB">
<feFlood flood-opacity="0" result="BackgroundImageFix"/>
<feGaussianBlur in="BackgroundImageFix" stdDeviation="7"/>
<feComposite in2="SourceAlpha" operator="in" result="effect1_backgroundBlur_20_101"/>
<feBlend mode="normal" in="SourceGraphic" in2="effect1_backgroundBlur_20_101" result="shape"/>
</filter>
</defs>
</svg>
